<?xml version="1.0" encoding="UTF-8"?><svg xmlns="http://www.w3.org/2000/svg" viewBox="0 0 16 16"><g id="a"/><g id="b"><g id="c"><path d="M16,7.44v1.19c-.02,.15-.05,.29-.07,.44-.27,1.89-1.08,3.5-2.49,4.79-1.84,1.69-4.02,2.37-6.49,2.07-1.72-.21-3.23-.93-4.47-2.14C.58,11.95-.23,9.69,.05,7.08c.21-1.94,1.06-3.59,2.49-4.92C3.87,.94,5.43,.24,7.22,.06,7.37,.04,7.52,.02,7.67,0c.22,0,.44,0,.66,0,.03,.01,.06,.03,.09,.03,.37,.05,.75,.07,1.12,.14,3.34,.66,5.88,3.33,6.37,6.69,.03,.19,.06,.38,.09,.58Zm-7.08,.15l-.08-.15s.06-.07,.08-.11c.52-.78,1.04-1.57,1.56-2.35,.15-.22,.33-.42,.6-.46,.48-.07,.72-.58,.58-1.06-.12-.41-.55-.67-.97-.61-.42,.07-.73,.41-.7,.86,.03,.34-.09,.6-.27,.87-.56,.8-1.1,1.62-1.64,2.43l-.27,.02c-.04-.07-.07-.15-.12-.22-.55-.81-1.1-1.62-1.66-2.42-.12-.17-.15-.34-.1-.54,.11-.46-.28-.97-.75-1-.46-.03-.88,.28-.94,.69-.07,.5,.19,.91,.67,1.02,.17,.04,.29,.12,.39,.26,.54,.8,1.09,1.6,1.63,2.4,.05,.08,.09,.17,.15,.28-.11,.02-.19,.06-.28,.06-.9,0-1.79,0-2.69,0-.19,0-.37-.06-.51-.19-.32-.28-.71-.32-1.05-.11-.31,.19-.46,.61-.36,.99,.17,.62,.94,.82,1.41,.37,.15-.15,.32-.21,.53-.21,.99,0,1.97,0,2.96,0v.04s-.02,.09-.05,.12c-.56,.84-1.13,1.67-1.69,2.51-.08,.13-.2,.19-.35,.21-.43,.08-.73,.49-.69,.92,.04,.43,.44,.8,.86,.8,.58,0,.97-.51,.84-1.1-.03-.14-.01-.26,.07-.37,.04-.06,.09-.13,.13-.2,.52-.79,1.05-1.58,1.57-2.36l.38,.03s.03,.05,.05,.08c.58,.86,1.16,1.71,1.75,2.57,.11,.16,.18,.34,.16,.54-.05,.47,.22,.88,.65,.96,.48,.09,.91-.17,1.03-.64,.12-.43-.16-.94-.54-1-.32-.05-.55-.27-.73-.54-.55-.82-1.1-1.63-1.65-2.44l.06-.13c.91,0,1.82,.01,2.74,0,.31,0,.57,.06,.81,.27,.36,.31,.73,.29,1.1-.02,.47-.39,.38-1.14-.17-1.41-.36-.18-.7-.14-1.01,.13-.15,.13-.31,.2-.51,.2-.99,0-1.98,.02-2.97,.03Z"/><path d="M8.92,7.59c.09,.27,.08,.54,0,.81l-.06,.13c-.18,.24-.43,.38-.71,.47l-.38-.03c-.3-.09-.51-.29-.68-.53v-.04c-.03-.15-.07-.31-.07-.46,0-.39,.23-.64,.56-.81,.07-.04,.15-.07,.23-.1l.27-.02c.3,.07,.55,.21,.75,.44l.08,.15Z"/></g></g></svg>