<?xml version="1.0" encoding="utf-8"?>
<!-- Generator: Adobe Illustrator 26.2.1, SVG Export Plug-In . SVG Version: 6.00 Build 0)  -->
<svg version="1.1" id="Capa_1" xmlns="http://www.w3.org/2000/svg" xmlns:xlink="http://www.w3.org/1999/xlink" x="0px" y="0px"
	 viewBox="0 0 414 289" style="enable-background:new 0 0 414 289;" xml:space="preserve">
<style type="text/css">
	.st0{fill:#DFE9F3;}
	.st1{fill:#A17562;}
	.st2{fill:#E7C0A9;}
	.st3{fill:#AECAE1;}
	.st4{fill:#9CBBD7;}
	.st5{fill:#A07B6C;}
	.st6{fill:#DBE7F1;}
	.st7{fill:#0471DC;}
	.st8{fill:#71A8CB;}
	.st9{fill:#C4D9EA;}
	.st10{fill:#83A7C4;}
	.st11{fill:#EAA782;}
	.st12{fill:#C2D8E9;}
	.st13{fill:#373F5F;}
	.st14{fill:#DFE7F1;}
	.st15{fill:#E8C0A9;}
	.st16{fill:#DFE9F2;}
	.st17{fill:#FEFEFE;}
	.st18{fill:#4985B4;}
	.st19{fill:#F7F2EB;}
	.st20{fill:#1C3A54;}
	.st21{fill:#F6EDE6;}
	.st22{fill:#244159;}
	.st23{fill:#AFC6DB;}
	.st24{fill:#DCE3EA;}
	.st25{fill:#FDFDFD;}
	.st26{fill:#285783;}
</style>
<g id="a">
</g>
<g>
	<path class="st0" d="M-63.6-296.9c6.7-4.6,12.8-10.6,20.2-13.6c37.5-15,76.8-23.3,116.4-29.8c9.9-1.6,20.2-0.1,30.3-0.7
		c5.3-0.3,10.5-2.1,15.7-3.2h115c15.3,4.8,31.4,8,45.6,14.9c21.5,10.5,43.1,21.8,62.1,36.1c27.7,20.8,53.4,44.3,79.5,67.2
		c5.3,4.6,8.3,11.7,12.4,17.7l-2.6,25c-1.2,2.5-2.6,4.9-3.4,7.5c-4.4,13.2-8.7,26,3.4,38.3c2.9,2.9,1.2,10.2,1.6,15.6
		c-10.9,6-21.7,12-32.6,18.1c-6.2,11-12.4,22.1-18.6,33.1c-6.3,9.1-12.6,18.2-18.9,27.3l-6.4-67.5c4.5,0,9.1,0.5,13.5,0
		c5.2-0.6,10.4-2,15.6-3.1c-2.6-4.6-4.3-10-7.8-13.7c-11.4-11.7-22.3-23.3-29.5-38.5c-8.6-18-23.6-29.3-44-32.7
		c-12.8-2.2-20.9-10.7-25.3-22.5c-19-51.3-85.5-86.7-144.3-65.5c-25.8,9.3-46.4,24.9-60.9,48c-5.8,9.3-13.2,12.3-23.4,13.3
		c-14.3,1.3-28.5,4.2-42.8,6.4c-4-2.6-8.3-4.8-11.9-7.7c-6.3-5.2-15-9.7-17.6-16.5c-5.4-14.1-14.2-24.9-24.7-35.1
		C-52.7-284.2-58-290.7-63.6-296.9L-63.6-296.9z"/>
	<path class="st1" d="M-469.2,75.4c7.7-6.1,15.3-12.1,23-18.2l13.1,11.4l7.7,10.5c2.5,3.3,4.9,6.6,7.4,9.8l8.9,10.9
		c4.9,7.7,9.8,15.3,14.7,23c-5,7.2-18.3,7.3-17,19.8l-10.3,5.7c-1.1,0.1-2.3,0-3.3,0.4c-7.2,3-12.1,13.8-21.8,8.1
		c-9.8-5.8-19.9-12-27.5-20.2c-5.2-5.6-6.1-15.2-9.6-22.7c-2.5-5.3-6-10.2-9.1-15.3c0-3.4,0-6.8,0-10.1c4.5-1.3,9-2.5,13.5-3.7
		c4.5,3.5,9,7,13.5,10.6l0.9,4.4l1.9-1.1l-2.6-3.4l-8.6-14l1.8-2.8L-469.2,75.4L-469.2,75.4z M-428.7,109l3.3,3.4l3.3,6.8l3.3,3.4
		l1.2,4.4l1.9-1.3l-2.8-3.4l-3.4-3.3l-3.4-6.7L-428.7,109l-3.4-3.3l-3.4-6.8c-0.2-0.5-0.3-1-0.6-1.4c-0.2-0.2-0.6-0.2-1-0.3l1.7,1.5
		l3.3,6.8L-428.7,109L-428.7,109z M-438.8,132.6c-0.2-0.5-0.3-1-0.7-1.4c-0.2-0.2-0.7-0.2-1.1-0.2l1.7,1.7l1,4.4l1.9-1.2
		L-438.8,132.6L-438.8,132.6z"/>
	<path class="st2" d="M903.7,54.9c1.1,0,2.2,0,3.3,0v20.3c-1,0-2,0.1-3,0.2C903.9,68.6,903.8,61.8,903.7,54.9z"/>
	<path class="st3" d="M284.2,545.5c-30.7,2-61.3,4.1-92,6.1c-19.5,1.3-39.1,2.5-58.6,3.5c-25.2,1.3-50.3,2.2-75.5,3.3V179.1
		c-7.3,5.6-11.3,11.6-15,17.8C30,218.4,17,239.9,4,261.4c-5,8.4-12.3,13.4-22,12.9c-7.7-0.4-15.4-2.3-23-3.8
		c-39.3-7.6-78.6-15.2-117.9-23c-21.2-4.2-42.4-8.9-63.5-13.4c-17.7-4-35.3-8.1-54.9-12.5c11.9-16.7,23.5-32.1,34.3-48.1
		c12.3-18.4,27.2-31,51.1-27.4c6.1,0.8,12.1,1.7,18.2,2.3c25.5,2.6,50.9,5.2,76.4,7.7h10.5c10,0.1,20.1,0.2,30.1,0.2l10.2,3.2
		l61,6.7l10,0.1c9,0.1,18.1,0.1,27.1,0.2l10.2,3.2l-0.1,0.1c7.7,19.1,15.8,38.2,23.2,57.5c14.1,36.8,14,36.9,52.7,33.9
		c0.6,0,1.1,0,1.7-0.1c38.3-3.3,76.6-7.1,114.9-9.9c37.9-2.8,75.8-4.6,113.7-7c13.4-0.8,26.7-1.6,39.9-3.6c5.6-0.8,10.7-4.7,16-7.2
		c3.3,5.9,6.6,11.8,9.9,17.8l-0.3,8.9c-7.6,3.6-15.2,7.2-22.8,10.9c-15.6,0.1-31.2,0.6-46.8,0.2c-9.8-0.2-13.6,3.1-10.1,12.8
		c0.9,2.6,1.7,5.3,2.5,7.9c-4.6,16.1-9.3,32.3-13.9,48.4C322.9,408.7,303.6,477.1,284.2,545.5z"/>
	<path class="st4" d="M-222.4,234.1c21.2,4.5,42.3,9.2,63.5,13.4c39.3,7.8,78.6,15.4,117.9,23c7.6,1.5,15.3,3.4,23,3.8
		c9.7,0.5,17-4.6,22-12.9c13-21.6,26-43.1,39.1-64.6c3.8-6.2,7.7-12.2,15-17.8v379.3c-38.3-6.8-76.7-13.5-115-20.3
		c0-34.3,0.1-68.7,0.1-103c0-9.2-0.9-18.6-11.9-21.4c-7.5-1.9-15.4-2.9-23.1-3.6c-14-1.4-15.6,0.1-15.7,14.1
		c-0.2,34.9-0.2,69.8-0.3,104.7c-34.6-5.1-69.3-10.4-103.9-15.3c-10.7-1.5-15.2-6.3-13.9-17.6c1.6-13.8,1.6-27.8,2.3-41.7
		c0.3-6.2,0.8-12.3,0.8-18.4C-222.5,368.6-222.5,301.4-222.4,234.1L-222.4,234.1z"/>
	<path class="st5" d="M284.2,545.5c19.4-68.4,38.8-136.8,58.2-205.2c4.6-16.2,9.2-32.3,13.9-48.4l12.8-0.1
		c-1.4,7.1-2.1,14.4-4.4,21.2c-2.4,7.1-0.1,9.1,6.7,9c12.3-0.1,24.7,0.2,37-0.1c10-0.2,22.2,2.3,29.2-2.5c6-4.1,6-17,8.6-26
		c0.2-0.5,0.3-1.1,0.5-1.6l14-0.1c1.1,5.4,2.7,10.8,3.3,16.2c1.1,11,6.6,15,17.7,14.2c11.6-0.9,23.4-0.2,35.1-0.2
		c18.6,0,26.1-8.9,22.5-26.7l12.7,6.6c6.6,21.4,13.3,42.8,19.9,64.1c14.6,50.9,29.3,101.7,43.9,152.6c3.2,12.5,6.4,25,9.5,37.4
		c4.8,17.8,9.6,35.6,14.3,53.4c-9.8,7.8-13.3-1.4-18.1-6.9c-0.5-3.9-1.3-7.7-1.4-11.6c-0.4-9.5-5.3-14.7-14.6-14.8
		c-21.1-0.3-42.1-0.1-65.4-0.1c3.1,9.2,5.6,16.4,8,23.7c-4,7.2-8.6,7.7-14,1.5c-0.7-0.8-1.7-1.3-2.6-1.9
		c-12-44.4-23.7-88.9-36-133.2c-10.2-36.8-21.2-73.3-31.8-109.9c-2.3-9.8-4.7-19.6-7-29.5h-3.6c-2.1,5-4.6,9.8-6.1,15
		c-12.5,42.9-25,85.8-37,128.8c-6,21.4-11,43.1-16.5,64.8l-18.4,63.8c-5.3,2-10.4,16.9-16,0.2l6.8-21.8c-2-0.8-3-1.5-4-1.6
		c-15-0.1-30.1-0.2-45.1-0.2c-26.5,0-27.6,0.9-32.6,26.8c-5,2.7-8.8,11.2-16.1,3.5C273.4,585.8,278.7,565.7,284.2,545.5L284.2,545.5
		z M298.8,545.4c-1,3.2-2.4,6.3-3.1,9.5c-2.8,12.8-1.9,13.8,11.8,13.9c12.2,0.1,24.5-0.1,36.7,0.1c25.7,0.5,31.2-4.7,32.2-30.4
		c6.9-10,1.2-13.3-7.8-13.5c-16.3-0.4-32.7-0.3-49-0.1C305.2,525.2,301.1,529.5,298.8,545.4L298.8,545.4z M478.3,352.7
		c2.7,4.3,5.3,12.1,8.3,12.3c20,1,40.1,0.5,60.1,0c2-0.1,4-3.6,6-5.5c-0.6-6.2-0.8-12.5-1.7-18.6c-1.4-9.1-6.3-12.8-16.1-12.1
		c-13.9,1-27.9,0.2-41.9,0.2C475.7,329,470.8,336.9,478.3,352.7L478.3,352.7z M541.8,526.5c-10.6-0.8-16.6,1.8-11.4,14
		c1.7,4,2.4,8.5,3.4,12.8c2.5,10.7,8.7,15.9,20.3,15.3c13.3-0.7,26.7-0.1,40.1-0.2c13.3,0,17.7-6.5,13.3-19.5
		c-1-18.6-4.3-23.8-17.7-24C573.8,524.8,557.7,525.9,541.8,526.5L541.8,526.5z M534.2,423.5h-5.1c-36.4,0-37.5,1.6-23.6,35.1
		c3.1,7.5,8.1,12,16.4,12c18.6,0.1,37.2-0.1,55.8,0.1c6.9,0.1,9.6-2.9,7.6-9.2c-11.6-36.3-5.4-39.4-44.4-38
		C538.7,423.6,536.4,423.5,534.2,423.5L534.2,423.5z M410,423.5c-14.8,0-27.7,0-40.5,0c-34.4-0.1-36.7-6.5-47.8,40.1
		c-0.5,2-0.7,4-1.3,7.2c3.9,0,6.7,0,9.4,0c16.9,0,33.8,0.3,50.7-0.1c13.4-0.3,18.9-5.1,22.5-18.4C405.3,443.7,407.2,435,410,423.5
		L410,423.5z M344.4,518.1c6.2,0,12.3,0.1,18.5,0c19.2-0.2,33.2-16.5,29.5-35.1c-0.5-2.4-6.4-5.3-9.8-5.4
		c-16.8-0.5-33.7,0.1-50.6-0.1c-9.1-0.1-14.8,3.6-17.1,12.6c-1.7,6.5-3.7,12.9-5.5,19.3c-1.6,5.6,0.3,8.6,6.4,8.6
		C325.3,518,334.8,518.1,344.4,518.1L344.4,518.1z M338.6,416.7c17.9,0,36.3,0.1,54.7,0c17.8-0.2,25.1-7.2,26.7-25.1
		c1.3-14.4,0.5-15.4-13.6-15.6c-8.4-0.1-16.8,0-25.2,0c-37.9,0-39.1,1-43.6,38.2C337.5,414.6,337.9,415.1,338.6,416.7L338.6,416.7z
		 M599.2,517.8c-2.6-9.4-4.7-16.3-6.5-23.3c-3-12.3-10.8-17.6-23.3-16.9c-8.4,0.4-16.8,0.1-25.3,0.1c-34,0-33.7-0.1-23.3,32.3
		c2,6.1,4.6,8,10.4,8C553.2,517.7,575.1,517.8,599.2,517.8L599.2,517.8z M485.1,376.6c2,8.7,3.1,15.2,4.9,21.6
		c4.4,15.7,7,17.7,23.5,18.1c9.5,0.3,19,0.1,28.6,0.1c29.2,0,28.8,0.1,20.9-28.6c-2.1-7.7-4.9-11.4-13.4-11.3
		C528.9,376.9,508.3,376.6,485.1,376.6L485.1,376.6z M348.9,366c23.5,0,45.4,0.6,67.2-0.5c4.8-0.2,10.7-5.5,13.6-10
		c3.1-4.9,2.7-11.9,4.8-17.6c2.6-7.1,0.1-9.1-6.6-9c-16.9,0.1-33.7,0.4-50.6-0.1c-11.2-0.3-18.1,4.9-21.8,14.8
		C353,350.2,351.4,357.2,348.9,366L348.9,366z"/>
	<path class="st6" d="M-222.4,234.1c0,67.3,0,134.5-0.1,201.7c0,6.2-0.5,12.3-0.8,18.4c-12.8-2.7-25.5-5.6-38.3-8.2
		c-5.8-1.1-11.8-1.5-17.7-2.2c2.7-22.9,7.1-45.7,7.7-68.6c0.5-21.1-3.1-42.2-4.9-63.4c-2-20-2.2-40.4-6.3-60
		c-6.4-31-10.8-61.4-1.6-92.8c4-13.7,3.1-28.8,4.4-43.3c0.1-6.8,0.3-13.5,0.4-20.3c7.7-1.1,15.4-2.3,23.1-3.5
		c18-0.2,35.2-11,53.7-3.5c3.6,19.2,7.2,38.3,10.9,57.6c-23.9-3.6-38.8,9-51.1,27.4c-10.7,16-22.3,31.4-34.3,48.1
		C-257.6,226.1-240,230.1-222.4,234.1L-222.4,234.1z"/>
	<path class="st7" d="M-276.6,311.9c1.8,21.1,5.4,42.3,4.9,63.4c-0.5,22.9-4.9,45.7-7.7,68.6c-8.9,30.2-17.9,60.5-26.8,90.7
		c-3.7,0-7.4,0-11.1,0c0.8-17.2,1.2-34.5,2.5-51.7c2.2-27.8,5-55.5,7.6-83.2l-1.6-19l-4.7,0.4v19.1c-2.5,22.3-4.6,44.6-7.5,66.8
		c-3.1,23.8-7,47.5-10.6,71.3c-4,0-7.9,0-11.9,0.1c-1.6-47-3.1-94-4.8-141.1c-0.2-6-1.7-11.8-2.5-17.8c-1.7-8.1-3.1-16.4-5.1-24.4
		c-3.3-13-3.1-25.3,4.5-36.8C-327.1,307.9-303.1,294.6-276.6,311.9L-276.6,311.9z"/>
	<path class="st8" d="M802.6,170.2c-6.8,8.9-13.7,17.8-20.5,26.7c-2.3,4.8-5.7,9.4-6.9,14.4c-7.7,33.3-14.9,66.8-22.3,100.2
		c-17.4-3.1-34.8-6.3-52.1-9.5l-17.4-7.8c5-28.4,8.9-57.1,15.4-85.1c3.8-16.4,5.7-30.4-9.1-42c-1.8-1.5-2-5-3-7.6
		c2.4-6.9,4.9-13.8,7.3-20.7c11.4,5.6,22.9,11.3,34.3,16.9c3.7,7.6,7.3,15.1,12.3,25.6c5.8-6.8,10.3-12.2,14.8-17.6l26.5-13.6
		c4-0.1,7.9-0.3,11.9-0.4C796.8,156.7,799.7,163.5,802.6,170.2L802.6,170.2z"/>
	<path class="st9" d="M531.5,599.3c0.9,0.6,1.9,1.1,2.6,1.9c5.4,6.2,10,5.7,14-1.5c24.4,0.9,48.9,1.9,73.3,2.9
		c4.8,5.5,8.3,14.6,18.1,6.9h19.1c0.2,1.7,0.4,3.5,0.6,5.2c-8.6,2.6-17.1,6.1-25.9,7.6c-12.1,2.1-24.4,3.8-36.6,4
		c-77.5,1.4-155,3.6-232.5,3c-35-0.3-70-6.2-105-10c-5.7-0.6-11.2-3.6-16.8-5.5l0.3-3.3l25.3-4.3c7.3,7.7,11.1-0.8,16.1-3.5
		l74.9-3.2c5.5,16.7,10.7,1.7,16-0.2c11.6-1,23.1-3.1,34.7-2.9C450.4,596.8,490.9,598.2,531.5,599.3L531.5,599.3z"/>
	<path class="st8" d="M-276.6,311.9c-26.5-17.3-50.5-4-74.8,6.3c1.1-6.5,1.6-13.2,3.4-19.5c9-31.2,5.4-46.7-29.6-68.6
		c-12.8-23.4-25.7-46.9-38.6-70.3l11.5-7.6c2.4,2.9,4.9,5.8,7.3,8.8c9.3,12.1,18.6,24.3,27.9,36.4c3.4,9.5,9.5,4.9,15,2.8
		c2.5,2.8,5.2,5.4,7.5,8.4c5.1,6.3,10.4,7.6,16.6,1.6c1,0.2,2.1,0.4,3.1,0.8c6.1,28.4,12.1,56.7,18.2,85.1l4.5-0.2
		c0.3-6.3,1.5-12.7,0.8-19c-2-19.4-4.3-38.9-7.2-58.2c-0.5-3.4-4.1-6.3-6.2-9.5c0.1-0.9,0.3-1.8,0.7-2.7l2.4-20.1l1.2-3.5
		c16-19.6,17.1-43.5,19.7-67c4.4,0,8.8,0,13.1,0c-1.3,14.5-0.3,29.7-4.4,43.3c-9.3,31.5-4.8,61.8,1.6,92.8
		C-278.7,271.5-278.5,291.9-276.6,311.9L-276.6,311.9z"/>
	<path class="st7" d="M700.7,302.2c17.4,3.1,34.8,6.3,52.1,9.5l-7.4,61.2c-13.8,35.3-6,70.4,0.3,105.7c1.5,8.5,0.6,17.4,0.7,26.2
		c-5.6,0.2-11.3,0.4-16.9,0.5c-5.7-17.9-12.6-35.6-16.7-53.9c-5.4-24.3-8.5-49.2-12.6-73.9C700.5,352.5,700.6,327.4,700.7,302.2
		L700.7,302.2z"/>
	<path class="st10" d="M-107.8,528.8c0.1-34.9,0.1-69.8,0.3-104.7c0.1-14,1.6-15.4,15.7-14.1c7.7,0.7,15.6,1.7,23.1,3.6
		c11,2.8,11.9,12.2,11.9,21.4c0.1,34.3,0,68.7-0.1,103C-73.8,535-90.8,531.9-107.8,528.8L-107.8,528.8z"/>
	<path class="st6" d="M745.4,372.9l7.4-61.2c7.4-33.4,14.6-66.9,22.3-100.2c1.2-5.1,4.5-9.6,6.9-14.4c2.1,8.4,6,16.8,5.9,25.2
		c-0.4,33.4,0.6,67.2-4.3,100C780.6,343.6,770.3,365.2,745.4,372.9L745.4,372.9z"/>
	<path class="st6" d="M-377.5,230.2c35,21.9,38.5,37.4,29.6,68.6c-1.8,6.3-2.3,13-3.4,19.5c-7.7,11.5-7.8,23.9-4.5,36.8
		c2,8,3.4,16.3,5.1,24.4c-6-5.2-14-9.3-17.7-15.8c-10.4-18.7-16.2-39.3-16.1-60.8c0.1-21.1,2-42.3,3.4-63.4
		C-380.9,236.4-378.8,233.3-377.5,230.2L-377.5,230.2z"/>
	<path class="st1" d="M903.7,54.9c0.1,6.8,0.2,13.6,0.3,20.5c-4.8,9-8.6,18.7-14.6,26.8c-5.2,6.9-13.2,11.7-19.3,18
		c-6.6,6.7-13,7.7-20.3,1.7c2.1-3.8,4.1-7.7,6.5-11.2c6.9-10.2,14.9-19.7,20.7-30.4c7.8-14.6,6-12.8-7.7-20.4
		c-9.1-5-11.4-1.9-15.4,3.7c-9.4,13.2-18.6,26.5-27.8,39.7c-4.7-2.5-9.4-5-14.1-7.5c4.8-9,9.6-17.9,14.4-26.9
		c1.9-3.4,3.9-6.9,5.7-10.3c3.9-5.4,7.8-10.7,11.6-16.1c1-3.7,2.1-7.4,3.1-11.1c3.3-2.5,6.6-5.1,9.9-7.6
		C872.3,34.2,888,44.6,903.7,54.9L903.7,54.9z"/>
	<path class="st11" d="M825.9,103.3c9.3-13.3,18.5-26.5,27.8-39.7c4-5.6,6.3-8.7,15.4-3.7c13.7,7.5,15.6,5.7,7.7,20.4
		c-5.8,10.8-13.8,20.3-20.7,30.4c-2.4,3.6-4.3,7.5-6.5,11.2c-15.7,16.1-31.4,32.3-47.1,48.4c-2.9-6.8-5.7-13.5-8.7-20.3
		c9.6-10.9,19.1-21.9,28.9-32.6C826.7,113.1,831.3,109.4,825.9,103.3z"/>
	<path class="st12" d="M625.2,555.9c-3.2-12.5-6.4-25-9.5-37.4c8.5,1.3,16.9,2.6,25.4,4c-3.3,6.5-6.6,12.5,5.7,11.6
		c8.9-0.7,17.9-0.9,26.7,0.1c11.7,1.3,16.4-3.2,15.1-14.7c5.5,0.9,11,1.9,16.4,2.8c-3.8,6.4-7.7,12.6,5.2,11.8
		c7.3-0.5,14.6-0.5,21.9,0c9.8,0.7,16.2-3.2,19.4-12.5c7,1.3,14.3,2,20.9,4.3c3.1,1,7.3,5.6,7,8c-0.3,2.9-4.7,6.8-7.9,7.5
		c-14.1,3-28.3,6.2-42.6,7.1c-30.6,1.9-61.2,2.4-91.8,3.8C633.2,552.4,629.2,554.6,625.2,555.9L625.2,555.9z"/>
	<path class="st12" d="M-300,552c32.4,1,65.1-3.6,96.8,6.7c6.3,2,12.5,4.4,19.5,6.8c-19.4,13.4-71.4,18.1-131.4,12.5l-5.4-15.4
		c2.1,0.5,5,0.2,6.1,1.5c8.2,10.7,18.7,9.2,32.9,6.6c-7.7-5.4-13.1-9.1-18.4-12.8L-300,552L-300,552z"/>
	<path class="st13" d="M751.7,521.5c-3.2,9.3-9.6,13.2-19.4,12.5c-7.3-0.5-14.6-0.5-21.9,0c-13,0.8-9-5.4-5.2-11.8
		c6-2.4,12.3-4.3,17.7-7.5c3-1.8,4.6-6.1,6.8-9.3c5.6-0.2,11.3-0.4,16.9-0.5C748.2,510.4,749.9,515.9,751.7,521.5L751.7,521.5z"/>
	<path class="st12" d="M-335.9,574.4c-14.9-0.5-29.9-0.8-44.8-1.8c-2.5-0.2-4.8-3.5-7.2-5.3c2.2-2.2,4.1-5.9,6.6-6.4
		c10.8-2.4,21.8-3.9,32.7-5.7c1.4,6.1-2.7,18,11.3,10.3L-335.9,574.4L-335.9,574.4z"/>
	<path d="M-300,552v5.9c-12.7,5.1-12.7-9.9-20.3-12.9l3.1-10.4c3.7,0,7.4,0,11.1,0C-304.1,540.4-302.1,546.2-300,552L-300,552z"/>
	<path class="st13" d="M-335.9,574.4l-1.3-9c0.4-0.8,0.7-1.7,1-2.6c1.9-0.3,3.8-0.5,5.7-0.8l6.8-0.1c1,0.3,2,0.5,3,0.6
		c1.8,5.1,3.7,10.2,5.4,15.4C-322.1,576.8-329,575.6-335.9,574.4L-335.9,574.4z"/>
	<path class="st11" d="M-330.4,562.2c-1.9,0.3-3.8,0.5-5.7,0.8c-2.8-4.2-5.5-8.4-8.3-12.6l1.1-12.1c4,0,7.9,0,11.9-0.1l1.3,13.9
		L-330.4,562.2L-330.4,562.2z"/>
	<path class="st11" d="M-404.7,152.2l-11.5,7.6c-1.9-3.8-3.8-7.6-5.6-11.4c3.4-1.9,6.9-3.8,10.3-5.7L-404.7,152.2L-404.7,152.2z"/>
	<path class="st7" d="M-344.5,550.4c2.8,4.2,5.5,8.4,8.3,12.6c-0.3,0.8-0.7,1.7-1,2.6c-14,7.6-9.9-4.3-11.3-10.3L-344.5,550.4
		L-344.5,550.4z"/>
	<path class="st14" d="M686.7,159.7c0.9,2.6,1.1,6.1,3,7.6c14.7,11.7,12.9,25.6,9.1,42c-6.6,28-10.4,56.7-15.4,85.1
		c-2.1,5.6-4.6,11.2-6.2,16.9c-6,21.6-11.6,43.3-17.4,64.9l-87.9-10.3c-6.6-21.4-13.3-42.8-19.9-64.1c3.1-3.8,7-7.1,9-11.3
		c2.2-4.6,3.8-10.1,3.2-14.9c-0.2-1.9-6.9-3.4-10.9-4.3c-3.2-0.7-6.6-0.3-10-0.4c2.4-9.2,4.7-18.4,7.1-27.6c3.1-12,2.3-13-12.2-13.4
		c-5.5-12.1-10.4-24.5-16.5-36.3c-16.3-31.3-34.1-61.9-38.8-98c-2.8-21.6-8-42.9-12.1-64.4c-1.1-28.2-1.5-56.3,9.8-83
		c0.6-1.4,0-3.3-0.1-5c5-17.1,6.2-34.3,0.5-51.5c-6.8-4.4-13.6-8.8-20.3-13.2l-1.5-16.3c11.6-6.9,19.8-16,19.2-30.6
		c47.2,23.3,94.4,46.6,141.7,69.8c6.5,3.2,13.4,5.6,20.1,8.4c-3.1,5.9-5.7,12-9.3,17.6c-28.7,44.3-25.6,87.5,0.5,127.8
		c12,29.6,23.3,59.4,36.5,88.5C671,150.4,680.3,154.4,686.7,159.7L686.7,159.7z"/>
	<path class="st15" d="M631.5,55.1c-26.1-40.3-29.1-83.4-0.5-127.8c3.6-5.5,6.2-11.7,9.3-17.6c4.2-2.8,8.6-5.3,12.5-8.5
		c50.9-41,127.7-28.6,156,43.3c8.5,21.5,17.8,42.9,35.7,58.2c7,6,11.3,12.1,12.1,20.9l-9.9,7.6c-23.1-15.6-46.1-31.5-69.5-46.8
		c-7.8-5.1-10.3-9.6-5.4-18.9c6.4-12.2,3.9-19.7-5.9-26.2c-8-5.3-20.2-3.1-27.4,4.9c-6.6,7.5-6.3,14.5,3.6,24.9
		c6.3,6.6,6.3,12,2,19.3C735,3.9,735.2,3.9,716.8,1.1c-9.1-1.4-16.8,0.7-21,9.8c-3.5,7.5,0.3,22.4,7.5,27.4
		c8.1,5.8,17.4,4.5,22.7-2.6c7.9-10.6,15.4-8.3,24.7-3.7c25.1,12.4,50.4,24.5,75.6,36.7c-4.8,9-9.6,17.9-14.4,26.9
		c-13.3-3.7-26.6-7.3-39.8-10.9c-4.5-2.1-8.9-5.6-13.5-6c-32.8-2.7-65.7-4.9-98.6-7.2C650.5,66.1,641,60.5,631.5,55.1L631.5,55.1z
		 M697.1-97.4c18.2,3.7,34.2,7.1,50.3,10c2,0.4,4.5-2,6.8-3.1c-1.1-2.3-1.7-5.3-3.5-6.8C737.6-108,719.7-112.2,697.1-97.4
		L697.1-97.4z M671.2-88.8c7.2,0.8,10.7,2.1,13.4,1.2c2.4-0.8,4.4-3.9,5.8-6.3c0.6-1-0.6-3.1-0.9-4.6c-2.8,0.7-5.9,1.1-8.5,2.3
		C678.6-95.1,676.7-93.1,671.2-88.8L671.2-88.8z"/>
	<path class="st7" d="M478.6-168.4c0.6,14.6-7.6,23.7-19.2,30.6c-1-5.3-2.1-10.6-3.1-15.9c-2.9-14.5-9.4-25.8-25-29.5l2.6-25
		C451.3-197.8,468.9-187.6,478.6-168.4L478.6-168.4z"/>
	<path class="st16" d="M-266.5-94.3c10.1-21.3,20.3-42.5,30.5-63.8c41.8,0,83.5,0,125.3,0.1c-7.5,6.6-14.9,13.1-22.5,19.6
		c-5,4.4-11,8-15.1,13.1c-6.3,7.8-3.5,13.6,6.2,14.4c3.3,0.3,6.7,0.1,10.1,0.1c115.2,0,230.4,0,345.6,0c-1,3.1-1.8,6.4-3.1,9.4
		c-11.9,27.7-3.3,62.2,22.6,77.6C259.2-8.3,284.6,7.1,300.5,34c0.2,0.4,1,0.4,1.5,0.7l0.3,10c-3.8,5.4-7.3,11.1-11.6,16.1
		c-4.4,5.2-8.6,12.3-14.4,14.3c-22.6,7.9-27.3,5.6-40.5-13.8c-18.7-27.6-56-41.2-88.6-34.6c-17.9,3.7-30.5,13.8-41.7,26.6
		c-6.1,6.9-10.2,9.1-19.1,2.2c-9.9-7.7-22.3-13.3-34.4-17.1c-28.5-9.1-54,1.3-78.3,15.3C-39.2,61.2-39,61.6-47.4,49
		c-1.3-1.9-2.2-4-3.6-5.7c-16.9-22.3-40-33.1-67.3-31.2c-37.5,2.7-61.7,26.5-81,56.5l-16.7-3.6c3.2-13.5,7.8-26.7,9.5-40.4
		c4.2-33.3-0.4-64.8-26.1-89.4c-10.8-10.4-22.7-19.6-34.1-29.4L-266.5-94.3z"/>
	<path class="st9" d="M-110.8-158c-41.8,0-83.5,0-125.3-0.1c-38.2,0-76.4,0.2-114.6-0.4c-6.5-0.1-13-4-19.5-6.1
		c4.2-5.1,7.7-10.9,12.6-15c8.6-7,18.3-12.7,27.2-19.4c10.9-8.1,23.2-10.8,36.4-9.9c10.9,0.7,20.5-2.1,26.2-11.6
		c14-23,35.4-31.7,60.9-31.9c8.9-0.1,14.3-3,19.5-9.9c6.3-8.4,13.1-17,21.3-23.5c23-18.3,49.4-21.9,77.7-15.2
		c8.1,1.9,16.4,2.8,24.7,4.1c5.6,6.2,10.9,12.6,16.8,18.4c10.5,10.2,19.2,21,24.7,35.1c2.6,6.8,11.3,11.3,17.6,16.5
		c3.6,3,7.9,5.2,11.9,7.7c-11.9,11.6-24.8,22.4-35.4,35.2c-5.4,6.5-10,10.2-18,9C-70.2-178.8-91.3-171.6-110.8-158L-110.8-158z"/>
	<path class="st15" d="M-266.5-94.3c11.4,9.7,23.3,19,34.1,29.4c25.6,24.7,30.3,56.1,26.1,89.4c-1.7,13.6-6.3,26.9-9.5,40.4
		c-13.6,9-27.1,18.1-40.7,27.1c-7.7,1.1-15.4,2.3-23.1,3.5c-4.8,1.1-9.6,2.3-14.4,3.4c-18.2,1.2-36.6,1.1-53.5,9.6l-46.8,14.3
		c-4.9-7.7-9.8-15.3-14.7-23c22.1-14.1,44.8-27.6,66.2-42.8c10.7-7.6,18.6-9.5,29.2-0.7c3.9,3.2,11.5,4.4,16.5,3.2
		c10.3-2.5,16.3-16.2,13-25.7c-3.7-10.4-16.5-15.7-27.9-11.6c-3.9,1.4-8.8,4.5-11.7,3.3c-14.4-5.9-19.4-23.9-12-38
		c1.8-3.5,3.2-8.1,2.6-11.8c-2.1-11.1-13.5-17.9-23.7-15.1c-9.9,2.7-18.2,19-12.1,29.2c7.4,12.3,1.8,18-6.9,24.5
		c-4,3-7.2,7.1-10.9,10.6c-15.4,14.6-30.9,29.2-46.3,43.8l-13.1-11.4c2.1-5.5,2.9-12.5,6.7-16.4c13.7-14.2,22.1-30.8,28.2-49.2
		c4.8-14.3,10.7-28.3,16.7-42.2c15.2-35.2,63-63.4,110.4-48.5C-278.4-97.2-272.4-95.8-266.5-94.3L-266.5-94.3z M-348.5-61.9
		c11.1-3.7,22.3-7,32.9-11.4c3.2-1.3,5-5.9,7.4-9c-4.5-2-9.8-6.6-13.3-5.5C-332-84.7-342-79.6-352-74.5c-2.4,1.2-3.5,4.9-5.2,7.4
		L-348.5-61.9L-348.5-61.9z M-270.6-73.1c-6.9-3.9-11.9-7.1-17.2-9.4c-0.7-0.3-3.3,3.6-5,5.6c4.6,3.3,9.1,6.8,14.1,9.5
		C-277.8-66.8-274.9-69.9-270.6-73.1L-270.6-73.1z"/>
	<path d="M-474.5,81.4l8.6,14l-0.1,0.1c-4.5-3.5-9-7-13.5-10.6C-479.5,85-474.5,81.4-474.5,81.4z"/>
	<path d="M-469.2,75.4l-3.5,3.1C-472.7,78.5-469.2,75.4-469.2,75.4z"/>
	<path class="st17" d="M-110.8-158c19.5-13.6,40.6-20.9,64.8-17c7.9,1.3,12.6-2.5,18-9c10.5-12.7,23.4-23.5,35.4-35.2
		c14.3-2.2,28.4-5.1,42.8-6.4c10.3-0.9,17.7-4,23.4-13.3c14.4-23.1,35.1-38.7,60.9-48c58.8-21.2,125.2,14.2,144.3,65.5
		c4.4,11.7,12.4,20.3,25.3,22.5c20.4,3.4,35.4,14.7,44,32.7c7.2,15.2,18.1,26.8,29.5,38.5c3.6,3.7,5.3,9.1,7.8,13.7
		c-5.2,1-10.3,2.5-15.6,3.1c-4.4,0.5-9,0-13.5,0c-16.8-29.5-40.8-44.8-75.9-40.2c-28.3,3.7-49.8,18-66.7,40.3
		c-115.2,0-230.4,0-345.6,0c-3.4,0-6.8,0.2-10.1-0.1c-9.7-0.8-12.6-6.6-6.2-14.4c4.2-5.1,10-8.8,15.1-13.1
		c7.5-6.5,15-13.1,22.5-19.6L-110.8-158z"/>
	<path class="st15" d="M213.6-110.8c16.8-22.4,38.4-36.6,66.7-40.3c35.1-4.6,59.1,10.7,75.9,40.2l6.4,67.5c-2.2,3.6-5.4,7-6.3,11
		c-1.1,5.5-2.5,12.3,6.6,13.4c-7.1,8.8-2.5,17.5,0,26.2l-7.1,3.8l-7.2,3.7c-1-0.1-2.1-0.3-3.1-0.5l-3.2-6.5L339-2.7
		c-1.3-5.4-2-11-3.9-16.2c-7.1-19.6-14.4-39-1.3-59.2c1.1-1.7-1-7.5-3.3-9.2c-11.2-8.2-21.3-2.6-22.3,11.9
		c-1.2,17-7.9,20.9-23.5,14.4c-5-2.1-10.7-2.6-16.2-3.7c-11.3-2.2-14.2,0.1-14.3,11.3c-0.1,11.9,4.5,17.2,17.7,16.8
		c9.3-0.3,14.7,2.8,18.6,10.8c8.2,16.6,16.7,32.9,25.1,49.4c-4.6,3.7-9.1,7.4-13.7,11.2c-0.5-0.2-1.3-0.3-1.5-0.7
		C284.5,7,259.1-8.3,233-23.8c-25.9-15.4-34.5-49.9-22.6-77.6c1.3-3,2.1-6.3,3.1-9.4L213.6-110.8z M341.7-100.7
		c-1.5-19.1-11.9-31.3-26.2-33.2c-1.9-0.2-5.8,1.2-5.8,1.7c0.3,3,0.3,7.2,2.2,8.9C320.9-115.9,330.5-109.1,341.7-100.7L341.7-100.7z
		 M287.3-141.3l-1.5,6.1c4.5,1,8.9,2.1,13.5,2.8c0.1,0,1.2-3.9,1-3.9C296-138.2,291.6-139.7,287.3-141.3z"/>
	<path class="st8" d="M460.8-121.5c6.8,4.4,13.6,8.8,20.3,13.2c-4.7,2.4-9.5,4.8-14.1,7.4c-3.2,1.8-7.8,3.3-9.1,6.2
		c-6.4,14.5-11.9,29.5-17.8,44.2c-4.4,4.7-9.3,9.1-13.2,14.2c-6.3,8-11.7,16.7-23.2,17.7c-0.2-13.8-0.5-27.6-0.7-41.4
		c-1-14.6-2-29.1-3-43.8c10.9-6,21.7-12,32.6-18.1c0.3,6.6,0.1,13.3,1.1,19.8c1,7,5.1,8.6,9.9,2.8
		C449.7-106.4,455.2-114.1,460.8-121.5L460.8-121.5z"/>
	<path class="st11" d="M460.8-121.5c-5.7,7.5-11.1,15.1-17.1,22.4c-4.8,5.8-8.8,4.2-9.9-2.8c-1-6.5-0.8-13.2-1.1-19.8
		c-0.4-5.3,1.3-12.7-1.6-15.6c-12.2-12.3-7.8-25.1-3.4-38.3c0.9-2.6,2.3-5,3.4-7.5c15.7,3.6,22.1,15,25,29.5
		c1,5.3,2.1,10.6,3.1,15.9L460.8-121.5z"/>
	<path class="st11" d="M362.9-19.1c-9.1-1-7.7-7.9-6.6-13.4c0.8-3.9,4.1-7.3,6.3-11c6.3-9.1,12.6-18.2,18.9-27.3
		c6.1,3.7,12.2,7.3,18.3,11C393.9-40.4,382.8-25.7,362.9-19.1L362.9-19.1z"/>
	<path class="st18" d="M399.7-59.7c-6.1-3.7-12.2-7.3-18.3-11c6.2-11,12.4-22.1,18.6-33.1c1,14.6,2,29.1,3,43.8L399.7-59.7
		L399.7-59.7z"/>
	<path class="st19" d="M-433.2,68.7c15.5-14.6,30.9-29.1,46.3-43.8c3.7-3.5,6.9-7.5,10.9-10.6c8.7-6.5,14.3-12.2,6.9-24.5
		c-6.1-10.1,2.2-26.5,12.1-29.2c10.2-2.8,21.7,4,23.7,15.1c0.7,3.7-0.7,8.3-2.6,11.8c-7.4,14.1-2.4,32.2,12,38
		c3,1.2,7.8-1.9,11.7-3.3c11.4-4.1,24.2,1.2,27.9,11.6c3.4,9.5-2.7,23.2-13,25.7c-5.1,1.3-12.7,0-16.5-3.2
		c-10.6-8.8-18.6-6.9-29.2,0.7c-21.4,15.2-44.1,28.6-66.2,42.8L-418,89c26.2-15.9,52.5-31.6,78.7-47.6c5.2-3.1,6-7.3,1.6-12.5
		c-5.3-6.3-9.9-13.2-16.8-22.4c-24.2,24.9-47.5,48.8-70.9,72.8L-433.2,68.7L-433.2,68.7z M-359.7-18.3l6.3,11.6
		c3-4.1,7.7-7.9,8.4-12.3c0.4-2.9-5.1-6.6-7.9-10C-352.9-29-359.7-18.3-359.7-18.3z M-306.8,31.9l-9.7,7.4c4.1,2.9,7.9,6.5,12.5,8.2
		c1.4,0.5,4.7-3.9,7.1-6.1L-306.8,31.9L-306.8,31.9z"/>
	<path class="st15" d="M-425.4,79.1c23.3-23.9,46.7-47.9,70.9-72.8c6.8,9.2,11.4,16.1,16.8,22.4c4.4,5.2,3.6,9.4-1.6,12.5
		c-26.1,16-52.4,31.8-78.7,47.6L-425.4,79.1L-425.4,79.1z"/>
	<path d="M-418.5,122.4l2.8,3.4l-1.9,1.3l-1.2-4.4L-418.5,122.4L-418.5,122.4z"/>
	<path d="M-465.9,95.4l2.6,3.4l-1.9,1.1l-0.9-4.4L-465.9,95.4z"/>
	<path d="M-432.1,105.6l-3.3-6.8l-0.1,0.1l3.4,6.8L-432.1,105.6L-432.1,105.6z"/>
	<path d="M-438.9,132.6l2.8,3.4l-1.9,1.2l-1-4.4L-438.9,132.6L-438.9,132.6z"/>
	<path d="M-425.3,112.4l3.4,6.7l-0.1,0.1L-425.3,112.4L-425.3,112.4L-425.3,112.4z"/>
	<path d="M-439,132.7l-1.7-1.7c0.4,0.1,0.9,0,1.1,0.2c0.3,0.4,0.5,0.9,0.7,1.4L-439,132.7L-439,132.7z"/>
	<path d="M-421.9,119.1l3.4,3.3l-0.3,0.3l-3.3-3.4C-422,119.2-421.9,119.1-421.9,119.1z"/>
	<path d="M-435.4,98.8l-1.7-1.5c0.3,0.1,0.8,0.1,1,0.3c0.3,0.4,0.4,0.9,0.6,1.4L-435.4,98.8L-435.4,98.8z"/>
	<path d="M-432.2,105.7l3.4,3.3l0,0l-3.3-3.4L-432.2,105.7L-432.2,105.7z"/>
	<path d="M-428.7,109l3.4,3.3l-0.1,0.1L-428.7,109L-428.7,109L-428.7,109z"/>
	<path class="st2" d="M-199.2,68.5c19.2-30,43.5-53.8,81-56.5c27.3-2,50.4,8.9,67.3,31.2c1.4,1.8,2.3,3.9,3.6,5.7
		c8.5,12.5,8.3,12.2,21.2,4.7c24.3-14,49.8-24.4,78.3-15.3c12.1,3.9,24.5,9.4,34.4,17.1c8.9,6.9,13,4.8,19.1-2.2
		c11.3-12.8,23.8-22.9,41.7-26.6c32.6-6.7,70,7,88.6,34.6c13.1,19.4,17.9,21.6,40.5,13.8c5.8-2,10-9.1,14.4-14.3
		c4.2-5,7.7-10.7,11.6-16.1c5.7,8,11.3,16.1,17.2,23.9c1.9,2.5,4.3,5.4,7,6.3c16.1,5.4,41.1-5.4,49.6-20.4c4-7.2,3.2-12.6-3.6-17.2
		c0.1-0.8,0.1-1.7,0-2.5l-0.5-10l7.3-0.3c4.7,2.4,9.4,4.9,14,7.3l-4.2,70.4c-11.8-0.6-24.3,3.2-34.1-8.8c-2.1-2.6-14.8-0.5-18.7,3.4
		c-5.6,5.7-0.3,16.4,8.3,20.2c2.5,1.1,5.6,1,7.9,2.4c3.5,2.1,8.1,4.5,9.3,7.8c3.3,9.4,5,19.3,7.4,29c-19.1,0-38.3,0.1-57.5,0.1
		c-0.8-3.7-0.4-8.7-2.7-10.9c-4-3.8-10.3-8.9-14.5-7.9c-5.1,1.1-9.6,7.4-13.2,12.3c-1.6,2.2-0.4,6.5-0.5,9.8
		c-41.5,1.1-82.9,2.3-124.4,3.4c6.8-7.8,13.6-15.6,20.6-23.3c1.3-1.5,4.5-2.2,4.7-3.6c1-7.4,1.4-14.9,2-22.7c-1.2,0.3-2.8,0.4-4.3,1
		c-24,10.8-26.7,9.6-33.8-14.8c-3.4-11.6-15.3-16.5-22.8-9c-6.1,6.1-6.6,14.1-0.5,19.5c9.4,8.5,6.1,16.8,2.9,26
		c-3.5,10-6.7,20.1-10,30.1l-53.8,3.6l0.1-0.1c-0.9-11.7,0.4-22.3,12.5-28.7c3-1.6,6.1-6.3,6-9.5c-0.2-5.5-1.4-12-4.8-16
		c-4.6-5.4-11.5-4.2-16.2,1.2c-4.3,4.9-7.3,10.9-11.3,16c-2.1,2.6-4.8,5.8-7.8,6.4c-9.5,2-16.7-0.3-22.2-10.1
		c-2.3-4-12-6.6-17.2-5.4c-4.7,1.1-7.9,8.4-11.8,13l11.8,9.7l-0.1-0.1c4.6,6.7,9.2,13.4,13.7,20l-61-6.7c-0.6-2.1-1-4.4-2-6.3
		c-10.6-19.9-28.9-37.6-18.3-63.6c0.2-0.5,0-1.1,0-1.7c0-6.3,0.9-12.8-8.7-12.8c-7.3,0-13.6,0.4-14.9,9.5c-0.7,4.9-2.4,9.8-3.3,14.7
		c-2.7,14.7-12,20.4-24.7,13.1c-9.3-5.3-17.3-3.6-22.6,3c-3.3,4.2-4.3,13.9-1.7,18.5c4.3,7.3,13.2,10.4,21.7,5.3
		c7.1-4.2,11.7-1.4,15.7,4c3,4,5.4,8.5,8,12.8c-25.5-2.6-50.9-5.1-76.4-7.7c-6.1-0.6-12.1-1.5-18.2-2.3
		c-3.6-19.2-7.2-38.3-10.9-57.6C-201.6,81.8-200.4,75.2-199.2,68.5L-199.2,68.5z M-67,54.9c0.2,0.4,0.3,1,0.6,1.3
		c0.2,0.2,0.7,0.2,1,0.2L-67,54.9c-3.6-18.3-14.1-25.1-37.7-21.8C-90.6,41.2-78.8,48.1-67,54.9z M315.1,125.9
		c-6.2-26-33.3-39.6-56.7-28.4C284.3,92.1,294.8,115.5,315.1,125.9z M114,75.4c11.1-10.7,20.7-19.9,31.1-30
		C125,45.4,117.7,52.5,114,75.4z M68.9,66c8.5,14.5,14.8,25.4,22.4,38.3C97.6,84.9,91.5,74.3,68.9,66z M50.2,54.5L48.5,60l17.4,5.3
		l1.7-5.6C61.8,58,56,56.2,50.2,54.5L50.2,54.5z M168.7,44.7l-0.9-6.6c-4.7,1-9.5,1.9-14.1,3.2c-0.3,0.1,0.3,4.4,0.3,4.4
		C159,45.4,163.9,45,168.7,44.7L168.7,44.7z M-112.2,32l-0.6-4.1c-4.7,1-9.3,1.9-13.9,3.1c-0.3,0.1,0.1,2.9,0.1,4.5
		c4.5-0.7,8.9-1.5,13.4-2.3C-112.8,33.2-112.5,32.4-112.2,32z"/>
	<path class="st12" d="M156.7,162.9c41.5-1.1,82.9-2.3,124.4-3.4h23.6l7.2-3.3c19.1,0,38.3-0.1,57.5-0.1c3.4,0,6.7,0,10.1,0.1
		c5.3,0.1,10.7,0.1,16.1,0.2c9.4,25.6,18.8,51.3,28.2,76.9c-5.3,2.5-10.4,6.4-16,7.2c-13.2,2-26.6,2.7-39.9,3.6
		c-37.9,2.4-75.8,4.2-113.7,7c-38.3,2.8-76.6,6.6-114.9,9.9c-0.6,0-1.1,0-1.7,0.1c-38.7,3-38.5,2.9-52.7-33.9
		c-7.4-19.3-15.5-38.3-23.2-57.5l53.8-3.6c2.4,0,4.8,0.1,7.1,0.1h23.6l3.3-3.3l-0.1,0.1L156.7,162.9L156.7,162.9z"/>
	<path class="st20" d="M423.8,233.3c-9.4-25.6-18.8-51.3-28.2-76.9l-6.1-47.4c-0.1-2.3-0.1-4.5-0.2-6.8l4.2-70.4
		c1-0.1,1.9-0.6,2.5-1.5c5.6,0.6,11.3,1.2,16.9,1.8c7.9,25.4,15.9,50.7,23.8,76.1c-5.7,11.5-10.4,23-7.4,36.6
		c8,35.2,15.5,70.6,23.2,105.8c-6.3,0.2-12.6,0.3-18.9,0.5C430.4,245.1,427.2,239.2,423.8,233.3L423.8,233.3z"/>
	<path d="M543.3,270.8c3.3,0.1,6.8-0.3,10,0.4c3.9,0.9,10.7,2.4,10.9,4.3c0.6,4.8-1,10.3-3.2,14.9c-2,4.3-6,7.6-9,11.3l-12.7-6.6
		c-5.1-1.2-10.2-3.4-15.4-3.4c-21.1-0.4-42.1-0.1-63.2-0.1l-14,0.1c-25.9,0-51.7-0.1-77.6-0.1l-12.8,0.1c-0.8-2.6-1.6-5.3-2.5-7.9
		c-3.5-9.7,0.2-13.1,10.1-12.8c15.6,0.4,31.2-0.1,46.8-0.2c16.5,0.1,32.9,0.2,49.4,0.2l58.4,0.1C526.6,271.1,534.9,271,543.3,270.8
		L543.3,270.8z"/>
	<path class="st21" d="M-97.4,156.1c-2.6-4.3-5-8.8-8-12.8c-4-5.4-8.6-8.2-15.7-4c-8.6,5-17.5,2-21.7-5.3
		c-2.6-4.5-1.7-14.3,1.7-18.5c5.3-6.6,13.3-8.4,22.6-3c12.7,7.3,22,1.6,24.7-13.1c0.9-4.9,2.6-9.7,3.3-14.7
		c1.4-9.2,7.6-9.6,14.9-9.5c9.6,0.1,8.8,6.6,8.7,12.8c0,0.6,0.2,1.2,0,1.7c-10.6,26,7.8,43.7,18.3,63.6c1,1.9,1.4,4.2,2,6.3
		l-10.2-3.2c-7-11.9-14.3-23.6-20.9-35.8c-3.6-6.7-6.9-10-13.3-3.2c-4.8,5.1-18,5.7-9.1,18.1c4.8,6.6,8.8,13.8,13.2,20.7
		L-97.4,156.1L-97.4,156.1z M-69.7,85.5c-3.4-1.3-6.8-3.6-8.3-2.7c-2.5,1.6-5,4.9-5.4,7.8c-0.3,2.1,2.6,4.7,4.2,7.1L-69.7,85.5
		L-69.7,85.5z M-119.1,126.6c-5.1-3-7.5-5.2-10.3-5.8c-1.3-0.3-3.2,2.6-4.9,4.1c1.9,1.5,3.7,3.7,5.8,4.2
		C-126.5,129.5-124.1,128-119.1,126.6L-119.1,126.6z"/>
	<path class="st21" d="M14.4,166.2c-4.6-6.7-9.2-13.4-13.7-20c4.3-1.4,8.7-2.7,13-4.1c-1.5-2.7-2.5-7.2-4.6-7.8
		c-13.3-3.8-6.5,7.2-8.4,12l-11.8-9.7c3.9-4.6,7.1-11.9,11.8-13c5.3-1.2,14.9,1.4,17.2,5.4c5.5,9.7,12.7,12.1,22.2,10.1
		c2.9-0.6,5.7-3.8,7.8-6.4c4-5.1,7.1-11.1,11.3-16c4.7-5.4,11.6-6.6,16.2-1.2c3.3,4,4.6,10.5,4.8,16c0.1,3.2-3,7.9-6,9.5
		c-12.1,6.5-13.4,17-12.5,28.7l-10.2-3.2c0-4.5,0.4-9-0.3-13.4c-0.3-2.1-2.5-5.2-4.3-5.5c-14.3-2.5-22.1,4.2-22.5,18.7L14.4,166.2
		L14.4,166.2z M66.8,120.4c-3.4,3.9-6.2,6.2-7.5,9.2c-0.4,1,3,3.7,4.7,5.6c2.5-2.4,5.5-4.4,7.3-7.3C71.8,127,69.1,124.1,66.8,120.4
		L66.8,120.4z"/>
	<path class="st15" d="M-86.9,156.1c-4.4-6.9-8.4-14.1-13.2-20.7c-8.9-12.3,4.2-13,9.1-18.1c6.4-6.8,9.7-3.5,13.3,3.2
		c6.6,12.1,13.9,23.9,20.9,35.8C-66.9,156.3-76.9,156.2-86.9,156.1L-86.9,156.1z"/>
	<path class="st15" d="M24.4,166.3c0.4-14.5,8.1-21.1,22.5-18.7c1.8,0.3,4,3.4,4.3,5.5c0.7,4.4,0.3,8.9,0.3,13.4
		C42.5,166.4,33.5,166.4,24.4,166.3L24.4,166.3z"/>
	<path class="st22" d="M460,271.1c-16.5-0.1-32.9-0.2-49.4-0.2c7.6-3.6,15.2-7.2,22.8-10.9c7.9,0.4,15.8,0.9,23.6,1.3
		C458,264.6,459,267.8,460,271.1L460,271.1z"/>
	<path d="M457,261.3l-23.6-1.3l0.3-8.9c6.3-0.2,12.6-0.3,18.9-0.5l4.1,1.4L457,261.3L457,261.3z"/>
	<path class="st3" d="M463.7,356.2c-1,5.9-2.9,11.7-2.9,17.6c-0.2,44.5-0.1,89-0.1,133.5c0,22.5-1.8,24.1-23.6,24.7
		c-14.5,0.4-29,2.2-43.5,3.3C399,513.7,404,492,410,470.6c12-43,24.5-85.9,37-128.8c1.5-5.2,4.1-10,6.1-15h3.6
		C459,336.6,461.3,346.4,463.7,356.2L463.7,356.2z"/>
	<path class="st23" d="M409.9,423.5c-2.8,11.5-4.7,20.2-7.1,28.8c-3.6,13.2-9.1,18-22.5,18.4c-16.9,0.4-33.8,0.1-50.7,0.1
		c-2.7,0-5.5,0-9.4,0c0.5-3.2,0.8-5.2,1.3-7.2c11.2-46.6,13.5-40.2,47.8-40.1C382.3,423.6,395.1,423.5,409.9,423.5L409.9,423.5z"/>
	<path class="st3" d="M344.3,518.1c-9.5,0-19.1-0.1-28.6,0c-6.2,0.1-8-3-6.4-8.6c1.8-6.5,3.9-12.8,5.5-19.3c2.3-9,8-12.7,17.1-12.6
		c16.8,0.1,33.7-0.4,50.6,0.1c3.4,0.1,9.3,2.9,9.8,5.4c3.8,18.6-10.3,34.9-29.5,35.1C356.7,518.1,350.5,518.1,344.3,518.1
		L344.3,518.1z"/>
	<path class="st23" d="M338.6,416.7c-0.7-1.7-1.1-2.1-1-2.5c4.6-37.2,5.7-38.2,43.6-38.2c8.4,0,16.8-0.1,25.2,0
		c14.1,0.2,14.9,1.1,13.6,15.6c-1.6,17.9-8.9,24.9-26.7,25.1C374.9,416.8,356.5,416.7,338.6,416.7L338.6,416.7z"/>
	<path class="st23" d="M348.8,366c2.5-8.8,4.1-15.8,6.6-22.4c3.7-9.9,10.5-15.1,21.8-14.8c16.8,0.5,33.7,0.2,50.6,0.1
		c6.7-0.1,9.3,1.9,6.6,9c-2.1,5.7-1.7,12.7-4.8,17.6c-2.9,4.5-8.8,9.8-13.6,10C394.3,366.6,372.4,366,348.8,366L348.8,366z"/>
	<path class="st24" d="M460.6,291.6c21.1,0,42.2-0.3,63.2,0.1c5.1,0.1,10.2,2.3,15.4,3.4c3.6,17.8-3.9,26.7-22.5,26.7
		c-11.7,0-23.5-0.7-35.1,0.2c-11.1,0.8-16.5-3.2-17.7-14.2C463.3,302.4,461.8,297.1,460.6,291.6L460.6,291.6z"/>
	<path class="st23" d="M369,291.7c25.9,0,51.7,0.1,77.6,0.1c-0.2,0.5-0.3,1.1-0.5,1.6c-2.6,9-2.6,21.8-8.6,26
		c-7,4.8-19.2,2.3-29.2,2.5c-12.3,0.3-24.7-0.1-37,0.1c-6.7,0.1-9-1.9-6.7-9C366.9,306.1,367.6,298.8,369,291.7z"/>
	<path class="st24" d="M478.3,352.7c-7.6-15.8-2.7-23.7,14.7-23.7c14,0,28,0.7,41.9-0.2c9.8-0.7,14.7,2.9,16.1,12.1
		c0.9,6.2,1.2,12.4,1.7,18.6C527.8,357.2,503,354.9,478.3,352.7L478.3,352.7z"/>
	<path class="st23" d="M376.4,538.6l-77.6,6.8c2.4-15.9,6.5-20.2,20.8-20.4c16.3-0.2,32.7-0.3,49,0.1
		C377.5,525.3,383.3,528.6,376.4,538.6z"/>
	<path class="st12" d="M607.4,549c-14.2-2.2-28.4-5.7-42.7-6.3c-12.2-0.5-18.1-6.8-23-16.2c16-0.5,32-1.7,48-1.4
		C603.1,525.2,606.4,530.4,607.4,549L607.4,549z"/>
	<path class="st25" d="M-199.2,68.5c-1.2,6.7-2.4,13.3-3.7,20c-18.5-7.4-35.7,3.3-53.7,3.5c13.6-9,27.1-18.1,40.7-27.1
		C-210.3,66.1-204.8,67.3-199.2,68.5z"/>
	<path class="st11" d="M-294.1,99c4.8-1.1,9.6-2.3,14.4-3.4l-0.4,20.3c-4.4,0-8.8,0-13.1,0C-293.5,110.2-293.8,104.5-294.1,99
		L-294.1,99z"/>
	<path class="st18" d="M-307.1,399.7l-6.4,0.5v-19.1l4.7-0.4L-307.1,399.7L-307.1,399.7z"/>
	<path class="st22" d="M664.1,504.5c-2.5-29.5-5.5-58.9-7.1-88.4c-0.7-13.2,1.7-26.6,2.7-39.9c5.8-21.6,11.5-43.3,17.4-64.9
		c1.6-5.8,4.1-11.3,6.2-16.9l17.4,7.8c-0.2,25.2-0.3,50.3-0.5,75.4c-10,12.3-12.7,27.1-13.4,42.3c-1.2,28.5-1.9,56.9-2.8,85.4
		L664.1,504.5L664.1,504.5z"/>
	<path class="st24" d="M659.9,71.8c32.9,2.3,65.8,4.4,98.6,7.2c4.6,0.4,9,3.9,13.5,6c-0.1,7-0.2,13.9-0.3,20.9
		c-7.4-4.9-14.5-10.5-22.4-14.5c-16-8.1-22-3.8-21.2,14.3c-7.9,16.8-3.7,33.6,0.4,50.3c-11.4-5.6-22.9-11.3-34.3-16.9
		C682.7,116.6,671.3,94.2,659.9,71.8L659.9,71.8z"/>
	<path class="st11" d="M659.9,71.8c11.4,22.4,22.8,44.8,34.2,67.3c-2.4,6.9-4.9,13.8-7.3,20.7c-6.4-5.3-15.7-9.3-18.7-16.1
		c-13.2-29-24.5-58.9-36.5-88.5C641,60.6,650.4,66.2,659.9,71.8L659.9,71.8z"/>
	<path class="st11" d="M728.4,155.9c-4.1-16.7-8.3-33.5-0.4-50.3c15.4,5.6,23.4,16.3,23.6,32.9c0,3.1,2.1,6.1,3.2,9.2l0.7,16.3
		c-4.5,5.4-9.1,10.7-14.8,17.6C735.7,171,732,163.5,728.4,155.9L728.4,155.9z"/>
	<path class="st24" d="M755.5,164c-0.2-5.4-0.5-10.9-0.7-16.3c5.6-6.1,11.3-12.2,16.9-18.3c3.4,7,6.9,14,10.3,21L755.5,164
		L755.5,164z"/>
	<path class="st6" d="M-294.1,99l0.9,16.9c-2.6,23.5-3.8,47.4-19.7,67c-2.2-9.1-4.8-18.2-6.6-27.4c-2.3-12.3-9.8-18.1-21.7-19.2
		c-4.4-0.4-8.9-0.8-13.3-1.1c2.3-8.8,4.6-17.7,6.9-26.4C-330.7,100.2-312.3,100.2-294.1,99L-294.1,99z"/>
	<path class="st13" d="M-354.5,135c4.4,0.4,8.9,0.7,13.3,1.1c11.9,1.1,19.4,7,21.7,19.2c1.7,9.2,4.3,18.3,6.6,27.4l-1.2,3.5
		l-6.7,0.3c-3.8-9.1-7.1-18.5-11.3-27.4c-5.3-11.2-10.6-12.2-20.8-5.2c-8.7,5.9-10.9,13.7-6.7,23.1c2.5,5.5,6,10.6,9,15.9l-4,7.3
		c-5.6,2.1-11.6,6.7-15-2.8c-0.9-6.6-1.3-13.4-2.9-19.9C-377.1,158.7-371,144.7-354.5,135L-354.5,135z"/>
	<path class="st11" d="M-350.5,192.9c-3-5.3-6.5-10.3-9-15.9c-4.3-9.3-2-17.1,6.7-23.1c10.2-7,15.5-6,20.8,5.2
		c4.2,8.9,7.6,18.2,11.3,27.4l4.2,19.8c-0.4,0.8-0.6,1.8-0.7,2.7c-3.4,0.6-6.7,1.2-10.1,1.8c-1-0.3-2.1-0.6-3.1-0.8L-350.5,192.9
		L-350.5,192.9z"/>
	<path class="st6" d="M-327.3,210.9c3.4-0.6,6.7-1.2,10.1-1.8c2.1,3.1,5.7,6.1,6.2,9.5c2.8,19.3,5.2,38.8,7.2,58.2
		c0.6,6.2-0.5,12.6-0.8,19l-4.5,0.2C-315.2,267.7-321.2,239.3-327.3,210.9L-327.3,210.9z"/>
	<path class="st18" d="M-350.5,192.9l20.2,17.2c-6.2,6.1-11.5,4.8-16.6-1.6c-2.3-2.9-5-5.6-7.5-8.4
		C-354.5,200.2-350.5,192.9-350.5,192.9z"/>
	<path class="st18" d="M-316.5,206.4l-4.2-19.8l6.7-0.3L-316.5,206.4L-316.5,206.4z"/>
	<path class="st19" d="M826.3,68.9c-25.2-12.2-50.5-24.2-75.6-36.7c-9.4-4.6-16.9-6.9-24.7,3.7c-5.3,7.1-14.5,8.4-22.7,2.6
		c-7.2-5.1-11-19.9-7.5-27.4c4.2-9.1,11.9-11.2,21-9.8C735.3,4,735,4,744.1-11.4c4.3-7.3,4.3-12.7-2-19.3
		c-9.8-10.4-10.2-17.4-3.6-24.9c7.2-8.1,19.4-10.3,27.4-4.9c9.8,6.5,12.3,14,5.9,26.2c-4.9,9.3-2.4,13.7,5.4,18.9
		c23.4,15.3,46.3,31.1,69.5,46.8c-1,3.7-2.1,7.4-3.1,11.1c-23.4-16-46.9-31.9-70.1-48.2c-12.6-8.8-13.9-9-22.3,3.2
		c-13.1,19.1-10.9,16.5,5.6,24.8c3.5,1.7,6.6,4.2,10.1,5.9c21.6,10.2,43.3,20.3,64.9,30.4L826.3,68.9L826.3,68.9z M727.5,19.4
		c-7.1-5.5-13.2-12.3-20-2.6c-1.5,2.2-0.3,8.9,2,10.6C719.6,34.9,721.4,23.5,727.5,19.4L727.5,19.4z M766.7-43.2
		c-4.9-5.1-8.5-8.8-12.1-12.5c-2.2,2.8-6.7,6.2-6.1,8.4c1,4,4.4,8,7.8,10.6C757.3-36,761.9-40.1,766.7-43.2L766.7-43.2z"/>
	<path class="st15" d="M832,58.6c-21.6-10.1-43.3-20.2-64.9-30.4c-3.5-1.7-6.7-4.1-10.1-5.9c-16.5-8.2-18.7-5.6-5.6-24.8
		c8.4-12.2,9.7-12.1,22.3-3.2c23.2,16.3,46.7,32.2,70.1,48.2C839.7,47.9,835.9,53.2,832,58.6L832,58.6z"/>
	<path class="st13" d="M684.1,514.5l4.6,4.8c1.3,11.4-3.5,15.9-15.1,14.7c-8.8-0.9-17.8-0.7-26.7-0.1c-12.4,0.9-9.1-5.1-5.7-11.6
		c7.4-2.6,14.9-5.2,22.3-7.8C670.3,514.6,677.2,514.6,684.1,514.5L684.1,514.5z"/>
	<path class="st7" d="M-324.4,551.9l4-7c7.6,3,7.6,18,20.3,12.9c5.3,3.7,10.7,7.4,18.4,12.8c-14.2,2.7-24.7,4.1-32.9-6.6
		c-1-1.3-4-1-6.1-1.5c-1-0.1-2-0.3-3-0.6L-324.4,551.9L-324.4,551.9z"/>
	<path class="st12" d="M-324.4,551.9l0.7,10.1l-6.8,0.1l0.2-10.1C-328.3,552-326.3,552-324.4,551.9L-324.4,551.9z"/>
	<path class="st26" d="M436.8,108.2c-7.9-25.4-15.9-50.7-23.8-76.1c19.3-0.3,38.5-0.6,57.8-0.9c4.1,21.4,9.3,42.8,12.1,64.4
		c4.7,36.1,22.5,66.7,38.8,98c6.1,11.8,11.1,24.2,16.5,36.3c-0.4,1.4-0.9,2.8-1.3,4.2c-7.3-0.2-15.5,4.9-21.2-3.7
		c-3.2-4.5-6.3-9.1-9.6-13.6c-25.1-33.7-55.2-64.4-66.7-106.6C439.1,109.4,437.7,108.9,436.8,108.2L436.8,108.2z"/>
	<path class="st8" d="M470.8,31.2c-19.3,0.3-38.5,0.6-57.8,0.9l-16.9-1.8c-0.1-3.2-0.2-6.4-0.3-9.5C395,9.9,403.3,7.3,410.9,3.5
		c21.1-10.6,41.9-21.7,49.7-46.6c6.7-4.6,13.3-9.1,20-13.7c0,1.7,0.6,3.6,0.1,5C469.3-25.1,469.7,3,470.8,31.2L470.8,31.2z"/>
	<path class="st18" d="M480.6-56.8c-6.7,4.6-13.3,9.1-20,13.7l-20.4-7.3c5.8-14.8,11.3-29.7,17.8-44.2c1.3-2.9,5.8-4.4,9.1-6.2
		c4.6-2.6,9.4-4.9,14.1-7.4C486.8-91.1,485.7-73.9,480.6-56.8L480.6-56.8z"/>
	<path class="st13" d="M536.9,234.1l1.3-4.2c14.5,0.5,15.4,1.5,12.2,13.4c-2.4,9.2-4.8,18.4-7.1,27.6c-8.3,0.1-16.6,0.2-25,0.3
		C524.5,258.8,530.7,246.4,536.9,234.1L536.9,234.1z"/>
	<path class="st19" d="M697.1-97.3c22.6-14.9,40.5-10.7,53.6,0.1c1.8,1.5,2.4,4.5,3.5,6.8c-2.3,1.1-4.8,3.5-6.8,3.1
		C731.3-90.3,715.2-93.7,697.1-97.3L697.1-97.3z"/>
	<path class="st19" d="M671.2-88.8c5.5-4.3,7.4-6.3,9.8-7.4c2.6-1.2,5.6-1.6,8.5-2.3c0.4,1.6,1.5,3.7,0.9,4.6
		c-1.5,2.5-3.4,5.5-5.8,6.3C681.8-86.6,678.4-87.9,671.2-88.8L671.2-88.8z"/>
	<path class="st1" d="M372.7,37.3c6.8,4.6,7.6,10,3.6,17.2c-8.5,15-33.5,25.7-49.6,20.4c-2.8-0.9-5.1-3.8-7-6.3
		c-5.9-7.8-11.5-16-17.2-23.9c-0.1-3.3-0.2-6.7-0.3-10c4.6-3.7,9.1-7.4,13.7-11.2c3.4-0.6,6.8-1.2,10.2-1.8c5.4-1.4,10.9-2.7,16.3-4
		l0,0c-3.4,6.7-6.8,13.5-10.2,20.2l-4.2,1l1.1,1.7l3.2-2.5l13.4,3.4c0,0.9,0,1.8,0.1,2.7l-4.2,6.4l5.1-2.4c2.9-1.1,5.8-2.1,8.7-3.2
		C361.1,42.5,366.9,39.9,372.7,37.3L372.7,37.3z"/>
	<path class="st19" d="M-348.5-61.9l-8.6-5.2c1.7-2.5,2.8-6.2,5.2-7.4c9.9-5,19.9-10.2,30.5-13.4c3.6-1.1,8.8,3.5,13.3,5.5
		c-2.4,3.1-4.3,7.7-7.4,9C-326.3-68.8-337.4-65.6-348.5-61.9L-348.5-61.9z"/>
	<path class="st21" d="M-270.5-73.1c-4.4,3.1-7.2,6.2-8.2,5.7c-5-2.7-9.4-6.3-14.1-9.5c1.7-2,4.3-5.9,5-5.6
		C-282.4-80.1-277.5-77-270.5-73.1L-270.5-73.1z"/>
	<path class="st11" d="M345.6,41.5l-13.4-3.4l-0.2-0.2c3.4-6.7,6.8-13.5,10.2-20.2l6.4-3.1l7.2-3.7l10-3c12.7-8.8,25.4-17.6,38-26.4
		c11.5-0.9,17-9.7,23.2-17.7c4-5.1,8.8-9.5,13.2-14.2l20.4,7.3c-7.7,24.9-28.6,36-49.7,46.6c-7.6,3.9-15.9,6.4-15.1,17.3
		c-5.4,1.3-10.9,2.5-16.3,3.7l-7.3,0.3c-1.3,3.4-11.1,7.2,0.5,10c0.1,0.8,0.1,1.7,0,2.5c-5.8,2.6-11.6,5.1-17.4,7.7
		C355.4,34.5,349.8,39.8,345.6,41.5L345.6,41.5z"/>
	<path class="st21" d="M326,21.7l-10.2,1.8C307.3,7,298.8-9.4,290.6-26c-3.9-7.9-9.3-11.1-18.6-10.8c-13.1,0.5-17.8-4.9-17.7-16.8
		c0.1-11.2,2.9-13.5,14.3-11.3c5.4,1,11.1,1.6,16.2,3.7c15.6,6.5,22.3,2.5,23.5-14.4c1-14.4,11.1-20.1,22.3-11.9
		c2.3,1.7,4.4,7.5,3.3,9.2c-13.1,20.2-5.9,39.6,1.3,59.2c1.9,5.2,2.6,10.8,3.9,16.2l-0.3,0.2c-6.8-13.2-14.1-26.1-20.1-39.6
		c-3.7-8.1-6-13.5-16.8-8.4c-9.9,4.7-10.8,9.6-5.1,17.7c1.9,2.7,3.7,5.6,5.2,8.6C310-8.9,318,6.4,326,21.7L326,21.7z M280.5-48.8
		c-5.3-3.1-8.5-5.7-12.2-6.8c-1.5-0.4-3.9,2.7-5.9,4.3c3.7,2.3,7.3,4.9,11.2,6.8C274.5-44.1,276.6-46.3,280.5-48.8L280.5-48.8z
		 M326.9-74.5c-2.8-2.4-4.7-4-6.5-5.5c-1.6,2.4-4.2,4.7-4.6,7.3c-0.2,1.6,2.9,3.6,4.5,5.4C322.2-69.5,324.2-71.6,326.9-74.5
		L326.9-74.5z"/>
	<path class="st24" d="M403.8-18.6c-12.7,8.8-25.4,17.6-38,26.4c-0.9-0.3-1.9-0.5-2.9-0.7c-2.5-8.8-7.1-17.5,0-26.2
		c19.9-6.6,31-21.2,36.9-40.6l3.3-0.3C403.4-46.2,403.6-32.4,403.8-18.6L403.8-18.6z"/>
	<path class="st21" d="M341.7-100.7c-11.3-8.5-20.8-15.2-29.8-22.7c-2-1.6-2-5.8-2.2-8.9c0-0.4,3.9-1.9,5.8-1.7
		C329.8-132,340.3-119.8,341.7-100.7L341.7-100.7z"/>
	<path class="st21" d="M287.2-141.3c4.4,1.6,8.7,3.2,13,5c0.2,0.1-0.9,4-1,3.9c-4.5-0.8-9-1.9-13.5-2.8L287.2-141.3z"/>
	<path d="M362.9,7.2c1,0.2,1.9,0.4,2.9,0.7l-10,3L362.9,7.2L362.9,7.2z"/>
	<path class="st21" d="M339-2.7l3.3,10.2h0c-1.2-3.3-2.3-6.7-3.5-10L339-2.7L339-2.7z"/>
	<path class="st1" d="M348.5,14.6l-6.4,3.1l0,0c0.1-1,0.1-2,0.1-3c1.1,0.1,2.2-0.1,3.2-0.6C346.5,14.3,347.5,14.5,348.5,14.6z"/>
	<path class="st21" d="M345.5,14.1c-1,0.4-2.1,0.6-3.2,0.6c0-2.4,0-4.7-0.1-7.1h0L345.5,14.1L345.5,14.1z"/>
	<path class="st15" d="M-359.7-18.3l6.7-10.7c2.8,3.3,8.3,7.1,7.9,10c-0.6,4.4-5.4,8.3-8.4,12.3C-353.4-6.7-359.7-18.3-359.7-18.3z"
		/>
	<path class="st15" d="M-306.8,31.9l9.8,9.6c-2.4,2.2-5.7,6.6-7.1,6.1c-4.5-1.8-8.4-5.3-12.5-8.2L-306.8,31.9L-306.8,31.9z"/>
	<path class="st21" d="M122.6,166.4l-7.1-0.1c3.3-10,6.5-20.2,10-30.1c3.2-9.2,6.5-17.6-2.9-26c-6.1-5.4-5.5-13.5,0.5-19.5
		c7.5-7.5,19.4-2.6,22.8,9c7.1,24.4,9.8,25.5,33.8,14.8c1.4-0.6,3.1-0.7,4.3-1c-0.6,7.7-0.9,15.3-2,22.7c-0.2,1.4-3.4,2.1-4.7,3.6
		c-6.9,7.7-13.7,15.5-20.6,23.3l-7.2,0.2c3.3-7.6,6.1-15.5,10-22.8c5.6-10.4-4-10.6-8.8-13.8c-4.9-3.2-10-5.5-13.1,2.6
		C132.8,141.6,127.6,153.9,122.6,166.4L122.6,166.4z M140.7,100.8c-3.1-3.3-5-6.9-7.4-7.4c-1.8-0.3-4.3,3.6-6.5,5.7
		c2.3,2.1,4.2,5,6.9,6C135,105.6,137.6,102.7,140.7,100.8L140.7,100.8z"/>
	<path class="st21" d="M389.3,102.2c0.1,2.3,0.1,4.5,0.2,6.8c-2.7,0.7-5.3,1.4-8,2.2c-13.5,4-13.4,4-9.3,17.8
		c2.6,9,4.9,18.2,7.3,27.3c-3.4,0-6.7,0-10.1-0.1c-2.3-9.7-4.1-19.6-7.4-29c-1.1-3.3-5.8-5.7-9.3-7.8c-2.3-1.4-5.4-1.3-7.9-2.4
		c-8.5-3.8-13.9-14.5-8.3-20.2c3.8-3.9,16.6-5.9,18.7-3.4C365,105.4,377.5,101.6,389.3,102.2L389.3,102.2z M356.6,106.7
		c-5.5-4.6-7.5-7.5-9.2-7.3c-1.8,0.2-4.6,3.4-4.5,5.2c0.2,2.2,2.6,5.5,4.5,5.8C349.7,110.8,352.5,108.5,356.6,106.7L356.6,106.7z"/>
	<path class="st21" d="M315.1,125.9c-20.2-10.4-30.7-33.8-56.7-28.4C281.7,86.3,308.9,99.9,315.1,125.9z"/>
	<path class="st21" d="M312,156.2l-7.2,3.3c-2.3-4.1-4.5-8.1-7.3-13.2l-9,13.2h-7.3c0.1-3.4-1.1-7.6,0.5-9.8
		c3.6-4.9,8-11.2,13.2-12.3c4.1-0.9,10.4,4.1,14.5,7.9C311.6,147.5,311.2,152.5,312,156.2L312,156.2z"/>
	<path class="st21" d="M114,75.4c3.8-22.9,11-30,31.1-30C134.6,55.5,125.1,64.7,114,75.4z"/>
	<path class="st21" d="M68.9,66c22.6,8.4,28.7,18.9,22.4,38.3C83.7,91.4,77.3,80.5,68.9,66z"/>
	<path class="st21" d="M-67,54.9c-11.8-6.9-23.7-13.7-37.7-21.8C-81.1,29.9-70.5,36.6-67,54.9C-66.9,54.9-67,54.9-67,54.9z"/>
	<path class="st21" d="M50.2,54.5c5.8,1.8,11.6,3.5,17.5,5.3L66,65.3L48.5,60L50.2,54.5L50.2,54.5z"/>
	<path class="st21" d="M168.7,44.6c-4.9,0.4-9.8,0.8-14.6,0.9c-0.1,0-0.6-4.3-0.3-4.4c4.6-1.3,9.4-2.2,14.1-3.2L168.7,44.6
		L168.7,44.6z"/>
	<path class="st21" d="M-112.2,32c-0.3,0.4-0.6,1.1-1,1.2c-4.5,0.8-8.9,1.6-13.4,2.3c-0.1-1.6-0.5-4.4-0.1-4.5
		c4.6-1.3,9.3-2.2,13.9-3.1C-112.8,27.9-112.2,32-112.2,32z"/>
	<path class="st21" d="M379.5,24.5c5.4-1.3,10.9-2.5,16.3-3.7c0.1,3.2,0.2,6.4,0.3,9.5c-0.6,0.8-1.5,1.3-2.5,1.5
		C388.9,29.3,384.2,26.9,379.5,24.5L379.5,24.5z"/>
	<path class="st1" d="M372.7,34.8c-11.5-2.8-1.8-6.6-0.5-10L372.7,34.8z"/>
	<path class="st21" d="M-66.9,54.9l1.6,1.6c-0.4-0.1-0.8,0-1-0.2C-66.6,55.9-66.7,55.4-66.9,54.9C-67,54.9-66.9,54.9-66.9,54.9z"/>
	<path class="st15" d="M122.6,166.4c5-12.4,10.2-24.7,15-37.2c3.1-8.1,8.2-5.9,13.1-2.6c4.8,3.1,14.4,3.3,8.8,13.8
		c-3.9,7.3-6.7,15.2-10,22.8l0.1-0.1l-3.3,3.3L122.6,166.4L122.6,166.4z"/>
	<path class="st2" d="M379.5,156.2c-2.4-9.1-4.7-18.2-7.3-27.3c-4-13.8-4.2-13.8,9.3-17.8c2.6-0.8,5.3-1.5,8-2.2l6.1,47.4
		C390.3,156.3,384.9,156.3,379.5,156.2L379.5,156.2z"/>
	<path class="st15" d="M288.4,159.6l9-13.2c2.8,5.1,5.1,9.1,7.3,13.2L288.4,159.6L288.4,159.6z"/>
	<path class="st21" d="M146.2,166.4l3.3-3.3L146.2,166.4z"/>
	<path class="st12" d="M436.8,108.2c0.8,0.7,2.3,1.2,2.5,2c11.6,42.2,41.6,72.8,66.7,106.6c3.3,4.5,6.4,9,9.6,13.6
		c-12.1,1.3-24.1,3.1-36.3,3.7c-16.7,0.8-16.8,0.4-22.7,18l-4.1-1.4c-7.7-35.3-15.2-70.6-23.2-105.8
		C426.3,131.2,431.1,119.7,436.8,108.2L436.8,108.2z"/>
	<path class="st24" d="M456.7,251.9c5.9-17.6,6-17.1,22.7-18c12.1-0.6,24.2-2.4,36.3-3.7c5.8,8.6,14,3.5,21.2,3.7
		c-6.2,12.4-12.4,24.7-18.5,37.1c-19.4,0-38.9,0-58.4-0.1c-1-3.2-2-6.5-3-9.8L456.7,251.9L456.7,251.9z"/>
	<path class="st15" d="M-69.7,85.5c-5.1,6.6-7.3,9.4-9.5,12.2c-1.5-2.4-4.5-5-4.2-7.1c0.4-2.9,2.9-6.3,5.4-7.8
		C-76.6,81.9-73.1,84.3-69.7,85.5L-69.7,85.5z"/>
	<path class="st15" d="M-119.1,126.6c-4.9,1.4-7.4,2.9-9.4,2.4c-2.1-0.4-3.9-2.7-5.8-4.2c1.7-1.5,3.6-4.4,4.9-4.1
		C-126.6,121.3-124.2,123.5-119.1,126.6L-119.1,126.6z"/>
	<path class="st15" d="M0.7,146.2c1.9-4.7-4.9-15.8,8.4-12c2.1,0.6,3.1,5.1,4.6,7.8c-4.3,1.4-8.7,2.7-13,4.1L0.7,146.2L0.7,146.2z"
		/>
	<path class="st15" d="M66.8,120.4c2.3,3.7,5,6.7,4.4,7.5c-1.8,2.8-4.7,4.9-7.3,7.3c-1.7-1.9-5.1-4.6-4.7-5.6
		C60.6,126.6,63.4,124.3,66.8,120.4L66.8,120.4z"/>
	<path class="st5" d="M684.1,514.5c-6.9,0-13.8,0.1-20.7,0.1c0.2-3.4,0.5-6.8,0.7-10.1l19.9,0.8C684,508.4,684.1,511.4,684.1,514.5
		L684.1,514.5z"/>
	<path class="st22" d="M771.7,129.3c-5.6,6.1-11.3,12.2-16.9,18.3c-1.1-3-3.2-6.1-3.2-9.2c-0.2-16.6-8.3-27.3-23.6-32.9
		c-0.8-18,5.3-22.4,21.2-14.3c7.9,4,15,9.6,22.4,14.5C771.6,113.7,771.7,121.5,771.7,129.3L771.7,129.3z"/>
	<path class="st15" d="M727.5,19.4c-6.2,4.1-7.9,15.5-18.1,8c-2.2-1.6-3.4-8.4-2-10.6C714.4,7,720.4,13.8,727.5,19.4L727.5,19.4z"/>
	<path class="st15" d="M766.7-43.2c-4.8,3-9.4,7.1-10.4,6.4c-3.4-2.5-6.9-6.5-7.8-10.6c-0.5-2.2,3.9-5.5,6.1-8.4
		C758.1-52.1,761.7-48.3,766.7-43.2L766.7-43.2z"/>
	<path class="st15" d="M342.2,7.6c0,2.4,0,4.7,0.1,7.1c0,1,0,2-0.1,3c-5.4,1.4-10.9,2.7-16.3,4c-8-15.3-16-30.6-24-45.9
		c-1.6-2.9-3.3-5.9-5.2-8.6c-5.7-8.1-4.9-13,5.1-17.7c10.9-5.2,13.2,0.2,16.8,8.4c6.1,13.5,13.3,26.4,20.1,39.6
		C339.8,0.9,341,4.2,342.2,7.6L342.2,7.6z"/>
	<path class="st5" d="M345.6,41.5c4.3-1.8,9.8-7,9.7,3.5l-8.7,3.2l-0.9-4C345.6,43.3,345.6,42.4,345.6,41.5L345.6,41.5z"/>
	<path class="st11" d="M345.7,44.2c0.3,1.3,0.6,2.7,0.9,4l-5.1,2.4L345.7,44.2z"/>
	<path class="st11" d="M332.2,38.1l-3.2,2.5l-1.1-1.7l4.2-1L332.2,38.1L332.2,38.1z"/>
	<path class="st15" d="M280.5-48.8c-3.8,2.4-6,4.7-6.9,4.3c-3.9-1.8-7.5-4.5-11.2-6.8c2-1.5,4.4-4.7,5.9-4.3
		C271.9-54.5,275.2-51.9,280.5-48.8L280.5-48.8z"/>
	<path class="st15" d="M326.9-74.5l-6.6,7.2c-1.6-1.8-4.7-3.9-4.5-5.4c0.4-2.6,2.9-4.9,4.6-7.3C322.2-78.5,324.1-76.9,326.9-74.5
		L326.9-74.5z"/>
	<path class="st15" d="M140.7,100.8c-3.1,2-5.7,4.8-7,4.3c-2.7-1-4.6-3.9-6.9-6c2.2-2,4.7-6,6.5-5.7
		C135.8,93.8,137.6,97.4,140.7,100.8L140.7,100.8z"/>
	<path class="st15" d="M356.6,106.7c-4.1,1.8-6.8,4.1-9.1,3.7c-1.9-0.3-4.4-3.7-4.5-5.8c-0.1-1.7,2.7-4.9,4.5-5.2
		C349.1,99.2,351.1,102.1,356.6,106.7L356.6,106.7z"/>
</g>
</svg>
