<?xml version="1.0" encoding="UTF-8"?><svg xmlns="http://www.w3.org/2000/svg" viewBox="0 0 453.07 425.85"><defs><style>.g{fill:#fff;}.h{fill:#fafafa;}.i{opacity:.5;}.j{opacity:.6;}.k{fill:#f5f5f5;}.l{fill:#455a64;}.m{fill:#e0e0e0;}.n{fill:#161ecf;}.o{opacity:.4;}.p{fill:#eb996e;}.q{opacity:.3;}.r{fill:#ffbe9d;}.s{fill:#ebebeb;}.t{fill:#aecae1;}</style></defs><g id="a"/><g id="b"/><g id="c"/><g id="d"/><g id="e"/><g id="f"><g><g><rect class="s" x="144.08" y="337.48" width="104.15" height="80.33"/><path class="m" d="M222.14,417.24c-.14,0-.26-17.91-.26-39.99s.12-39.99,.26-39.99,.26,17.9,.26,39.99-.12,39.99-.26,39.99Z"/><rect class="h" x="231.42" y="399.53" width="7.98" height="9.03"/><rect class="m" x="175.86" y="337.69" width="11.83" height="17.14"/><rect class="m" x="175.86" y="400.43" width="11.83" height="17.14"/></g><g><rect class="s" x="305.89" y="317.34" width="131.33" height="101.29"/><path class="m" d="M404.32,417.91c-.14,0-.26-22.58-.26-50.42s.12-50.43,.26-50.43,.26,22.57,.26,50.43-.12,50.42-.26,50.42Z"/><rect class="h" x="416.02" y="395.57" width="10.07" height="11.38"/><rect class="m" x="345.96" y="317.6" width="14.92" height="21.61"/><rect class="m" x="345.96" y="396.71" width="14.92" height="21.61"/></g><g><g><path class="s" d="M58.53,320.32c5.32-2.74,11.57-3.1,17.47-2.12,3.17,.52,6.48,1.47,8.63,3.85,2.16,2.38,2.57,6.57,.09,8.62-1.47,1.22-3.53,1.4-5.44,1.38-4.62-.05-9.74-.87-13.44,1.91-2.11,1.59-3.51,4.22-6.02,5-2.46,.76-5.24-.69-6.55-2.91-1.31-2.22-1.35-5-.74-7.51,0,0,.64-5.46,6-8.22Z"/><path class="s" d="M46.36,296.81c3.25,4.64,9.57,3.1,12.5,.27,2.93-2.83,4.17-6.94,5.29-10.86,2.57-8.95,5.17-18.33,3.26-27.45-.57-2.72-1.59-5.44-3.51-7.46-1.91-2.02-4.86-3.22-7.55-2.51-3.19,.84-5.16,3.96-6.6,6.93-4.21,8.72-6.43,18.39-6.47,28.08-.02,4.52,.52,9.27,3.07,13"/><path class="s" d="M37.43,303.47c3.53-4.19,4.2-10.3,2.63-15.54-1.57-5.25-5.12-9.71-9.21-13.35-4.79-4.27-10.43-7.6-16.49-9.73-2.38-.84-4.9-1.5-7.41-1.26-2.52,.24-5.05,1.53-6.22,3.76-1.73,3.31-.07,7.32,1.73,10.6,3.17,5.77,6.79,11.29,10.83,16.49,3.25,4.18,6.96,8.31,11.91,10.2,4.95,1.89,10.08,1.67,12.71-1.76"/><path class="m" d="M46.14,366.83c.06,0,.16-.75,.29-2.11,.15-1.54,.34-3.46,.56-5.76,.27-2.42,.62-5.3,1.29-8.44,.67-3.13,1.72-6.52,3.07-9.97,1.4-3.42,3.1-6.53,5.09-9.02,1.98-2.5,4.27-4.31,6.43-5.35,2.15-1.06,4.08-1.5,5.42-1.69,1.35-.14,2.1-.24,2.1-.3,0-.06-.75-.07-2.14-.03-1.37,.09-3.38,.44-5.65,1.47-2.28,1.01-4.71,2.85-6.79,5.4-2.09,2.54-3.85,5.72-5.27,9.2-1.37,3.5-2.41,6.93-3.05,10.13-.64,3.19-.93,6.11-1.12,8.55-.18,2.44-.25,4.42-.29,5.79-.03,1.37-.01,2.13,.04,2.13Z"/><path class="m" d="M46.53,362.4s.05-.34,.06-.98c0-.74,0-1.66,0-2.8,0-2.43,0-5.94,.12-10.28,.21-8.68,.96-18.02,2.41-31.2,1.37-12.39,3.2-26.8,5.14-36.17,.42-2.13,.83-4.05,1.23-5.73,.38-1.68,.7-3.13,1.01-4.31,.27-1.11,.48-2.01,.65-2.72,.14-.62,.2-.96,.17-.97-.03,0-.15,.31-.34,.92-.21,.7-.48,1.59-.81,2.68-.36,1.16-.73,2.61-1.15,4.28-.44,1.67-.9,3.59-1.36,5.71-1.92,8.49-3.94,20.36-5.4,33.56-1.45,13.2-2.1,25.22-2.16,33.92-.05,4.35,.04,7.87,.15,10.3,.07,1.14,.13,2.06,.17,2.8,.05,.64,.09,.97,.12,.97Z"/><path class="m" d="M46.59,339.22c.06,0,.05-1.04-.02-2.92-.11-1.88-.37-4.59-.9-7.92-.56-3.32-1.34-7.26-2.58-11.54-.53-1.96-1.79-6.65-4.83-13.66-4-9.5-9.44-17.26-14.17-22.07-1.11-1.28-2.35-2.2-3.33-3.1-.51-.43-.96-.86-1.42-1.21-.46-.32-.89-.62-1.29-.89-1.56-1.06-2.43-1.63-2.46-1.58-.14,.19,3.49,2.32,8.07,7.2,4.56,4.86,9.85,12.57,13.82,21.99,2.21,5.11,3.76,9.66,4.85,13.53,1.27,4.24,2.11,8.14,2.74,11.43,.6,3.29,.95,5.98,1.16,7.84,.17,1.86,.3,2.9,.36,2.9Z"/></g><polygon class="s" points="22.64 376.59 24.96 408.41 65.84 408.41 68.16 376.59 22.64 376.59"/><rect class="s" x="18.69" y="364.05" width="54.35" height="12.54"/><polygon class="m" points="18.69 407.2 18.69 410.67 21.24 410.67 72.14 410.67 72.14 407.2 18.69 407.2"/><polygon class="m" points="23.74 416.41 21.24 410.29 70.19 410.29 67.27 416.41 23.74 416.41"/><path class="k" d="M67.4,386.99s-.06,.11-.19,.29c-.16,.22-.36,.48-.61,.81-.58,.74-1.38,1.76-2.38,3.05l-.11,.14-.1-.14c-1.5-2.07-3.5-4.84-5.85-8.09h.34c-1.74,2.46-3.68,5.21-5.76,8.16l-.18,.26-.2-.24c-2.13-2.53-4.43-5.28-6.83-8.13h.39c-.12,.14-.25,.31-.38,.47-2.12,2.66-4.17,5.23-6.11,7.66l-.2,.26-.19-.27c-2.07-2.93-4.01-5.68-5.76-8.15l.34,.02c-2.84,3.24-5.25,5.98-7.1,8.09l-.13,.14-.1-.16c-.94-1.57-1.68-2.83-2.22-3.73-.23-.41-.42-.73-.57-.99-.13-.23-.19-.35-.17-.35,.01,0,.09,.1,.24,.32,.17,.25,.37,.57,.63,.96,.57,.89,1.35,2.12,2.33,3.67l-.22-.02c1.82-2.13,4.19-4.91,6.98-8.19l.18-.21,.16,.22c1.77,2.47,3.72,5.2,5.81,8.12h-.39c1.93-2.45,3.98-5.02,6.09-7.68,.13-.16,.26-.32,.38-.47l.19-.24,.2,.24c2.39,2.86,4.69,5.61,6.81,8.14h-.38c2.1-2.92,4.06-5.65,5.82-8.1l.17-.24,.17,.24c2.3,3.29,4.26,6.09,5.73,8.18h-.21c1.04-1.26,1.87-2.25,2.48-2.98,.27-.31,.49-.56,.66-.77,.15-.17,.24-.26,.25-.25Z"/><path class="k" d="M68.73,376.38c0,.14-10.24,.25-22.88,.25s-22.88-.11-22.88-.25,10.24-.25,22.88-.25,22.88,.11,22.88,.25Z"/></g><g><rect class="m" x="347.22" y="15.57" width="8.38" height="41.7" transform="translate(-.19 1.88) rotate(-.31)"/><g><rect class="s" x="274.57" y="15.72" width="21.7" height="23.02" transform="translate(-.14 1.53) rotate(-.31)"/><rect class="k" x="296.17" y="15.6" width="21.7" height="23.02" transform="translate(-.14 1.64) rotate(-.31)"/><path class="m" d="M274.55,22.13c14.42,.12,28.88,.04,43.3-.2,.3,0,.29-.46,0-.46-14.42-.08-28.88,0-43.3,.26-.25,0-.25,.39,0,.4h0Z"/></g><g><rect class="s" x="261.03" y="38.4" width="39.43" height="18.76" transform="translate(-.25 1.51) rotate(-.31)"/><rect class="k" x="300.27" y="38.19" width="39.43" height="18.76" transform="translate(-.25 1.71) rotate(-.31)"/><path class="m" d="M261.01,43.72c26.19,.3,52.48,.03,78.67-.39,.3,0,.29-.46,0-.46-26.19-.14-52.48-.12-78.67,.45-.25,0-.25,.39,0,.4h0Z"/></g><g><rect class="m" x="246.26" y="57.27" width="152.76" height="6.72"/><rect class="m" x="271.27" y="60.5" width="6.2" height="22.93"/><rect class="m" x="363.84" y="60.5" width="6.2" height="22.93"/></g><rect class="s" x="355.44" y=".02" width="8.38" height="57.35" transform="translate(-.15 1.93) rotate(-.31)"/><g><rect class="k" x="363.87" y="10.71" width="13.02" height="46.48" transform="translate(-.18 1.99) rotate(-.31)"/><path class="m" d="M376.68,19.63c0,.12-2.92,.23-6.51,.23s-6.51-.1-6.51-.23,2.91-.23,6.51-.23,6.51,.1,6.51,.23Z"/><path class="m" d="M376.68,17.68c0,.12-2.92,.23-6.51,.23s-6.51-.1-6.51-.23,2.91-.23,6.51-.23,6.51,.1,6.51,.23Z"/><path class="m" d="M376.68,50.16c0,.12-2.92,.23-6.51,.23s-6.51-.1-6.51-.23,2.91-.23,6.51-.23,6.51,.1,6.51,.23Z"/><path class="m" d="M376.68,48.21c0,.12-2.92,.23-6.51,.23s-6.51-.1-6.51-.23,2.91-.23,6.51-.23,6.51,.1,6.51,.23Z"/><path class="m" d="M370.38,43.95c-.12,0-.23-4.69-.23-10.47s.1-10.47,.23-10.47,.23,4.69,.23,10.47-.1,10.47-.23,10.47Z"/></g><rect class="s" x="376.82" y="22.09" width="14.17" height="35.08"/><circle class="m" cx="359.36" cy="9.79" r="2.41"/><rect class="m" x="358.61" y="16.42" width="1.49" height="34.12"/></g><path class="n" d="M441.73,418.08c0,.14-96.11,.26-214.65,.26s-214.67-.12-214.67-.26,96.09-.26,214.67-.26,214.65,.12,214.65,.26Z"/><g><g><path class="n" d="M126.28,51.08c4.69,5.7,7.3,13.08,7.22,20.46-.05,4.22-.82,8.87,1.63,12.3,1.86,2.6,5.26,3.91,6.77,6.73,1.82,3.39,.27,7.68,1.39,11.36,1.59,5.22,7.7,7.41,11.33,11.48,3.15,3.54,4.31,8.71,3.04,13.27-1.27,4.56-4.9,8.38-9.38,9.92-2.4,.83-5.15,1.01-7.42-.12-2.45-1.22-3.97-3.73-5.2-6.18-2.42-4.82-23.59-30.87-24.79-36.12"/><path class="n" d="M110.88,44.94c-8.66-1.39-16.98,4.35-20.63,12.33-3.65,7.97-3.75,17.04-4.02,25.81-.27,8.76-.88,17.91-5.36,25.46-2.84,4.79-7.24,8.98-7.93,14.51-.62,4.94,1.94,9.92,1.09,14.83-.74,4.27-4,7.99-3.87,12.33,.16,5.22,5.52,9.15,10.74,9.29,5.22,.14,10.09-2.59,14.18-5.84,6.64-5.26,12.02-12.1,15.57-19.78"/></g><g><g><path class="r" d="M96.64,65.58c-1.14-9.13,5.46-17.47,14.73-18.36,8.74-.83,16.5,5.67,17.81,14.35,1.15,7.61,2.13,15.29,2.1,18.08-.11,8.41-5.03,11.69-7.02,12.67-.46,.22-1.71,.48-2.21,.55h0s-.05,.03-.05,.07l1.87,9.66c.85,6.33-2.68,11.97-9,12.89-6.34,.92-11.29-3.94-12.26-10.27l-5.97-39.64Z"/><path class="n" d="M127.46,65.26c-.14,.2-1.25-.4-2.67-.19-1.42,.19-2.36,1.08-2.54,.92-.09-.07,.03-.4,.44-.8,.4-.4,1.12-.83,2-.95,.89-.12,1.68,.09,2.16,.36,.49,.27,.68,.56,.61,.65Z"/><path class="n" d="M114.8,68.34c-.14,.2-1.25-.4-2.67-.19-1.42,.19-2.36,1.08-2.54,.92-.09-.07,.03-.4,.44-.8,.4-.4,1.12-.83,2-.95,.89-.12,1.68,.09,2.16,.36,.49,.27,.68,.56,.61,.65Z"/><path class="n" d="M119.99,75.97c-.02-.08,.84-.36,2.25-.75,.36-.09,.69-.21,.72-.47,.05-.28-.16-.64-.4-1.04-.47-.83-.96-1.7-1.48-2.61-2.07-3.72-3.62-6.81-3.47-6.89,.15-.08,1.95,2.87,4.02,6.59,.5,.92,.98,1.8,1.44,2.64,.2,.39,.5,.83,.4,1.4-.06,.29-.3,.52-.52,.62-.22,.11-.43,.14-.6,.18-1.43,.29-2.33,.43-2.34,.34Z"/><path class="p" d="M121.99,92.88s-5.43,1.25-12.91-1.88c0,0,3.23,6.95,13.41,4.48l-.5-2.6Z"/><path class="n" d="M114.08,64.61c-.08,.41-1.53,.43-3.17,.88-1.65,.41-2.93,1.1-3.2,.78-.12-.15,.06-.55,.55-1,.49-.45,1.29-.93,2.28-1.19,.99-.26,1.93-.23,2.57-.07,.65,.16,1,.42,.97,.61Z"/><path class="n" d="M126.29,62.11c-.2,.36-1.23,.17-2.42,.32-1.19,.11-2.15,.53-2.43,.23-.12-.15-.01-.5,.38-.87,.39-.37,1.07-.72,1.88-.82,.81-.09,1.56,.1,2.02,.37,.47,.27,.65,.58,.56,.76Z"/></g><path class="n" d="M111.71,70.18c.1,.62,.7,1.05,1.35,.96,.65-.09,1.09-.66,.99-1.28-.1-.62-.7-1.05-1.35-.96-.65,.09-1.09,.66-1,1.28Z"/><path class="n" d="M124.32,67.45c.1,.62,.7,1.05,1.35,.96,.65-.09,1.09-.66,.99-1.28-.1-.62-.7-1.05-1.35-.96-.65,.09-1.09,.66-1,1.28Z"/><path class="p" d="M122.23,78.74c-.92-.27-1.7,.2-2.08,.86-.37,.66-.28,1.57,.25,2.11s1.49,.63,2.08,.15c.4-.33,.6-.85,.65-1.36,.05-.47-.03-.98-.32-1.36-.29-.38-.84-.58-1.27-.39"/><path class="n" d="M128.07,54.77c-.65-3.16-2.83-5.86-5.48-7.71-2.25-1.57-4.92-2.6-7.66-2.69-2.74-.08-5.55,.84-7.54,2.74-1.47,1.4-2.22,3.39-2.28,5.42l.16-1.4c-.41,1.15-.41,2.39,.02,3.52h0c.23,.61,.51,1.23,.76,1.84,.7,1.75,2.06,3.22,3.74,4.07,.78,.39,1.63,.65,2.5,.61,.87-.04,1.74-.41,2.27-1.1,.75-.99,.66-2.35,.54-3.58,.74,1.16,1.53,2.37,2.73,3.06,1.2,.69,2.92,.66,3.76-.43,.81-1.06,.49-2.58,.02-3.83,.76,1.17,1.86,2.11,3.12,2.7,.7,.32,1.52,.54,2.23,.23,.6-.26,1-.86,1.16-1.5s.09-1.31-.05-1.95Z"/><path class="l" d="M120.85,57.38c-.09,0-.08-1.19-.46-3.03-.39-1.81-1.3-4.38-3.45-6.27-1.06-.94-2.28-1.58-3.46-1.87-1.18-.29-2.31-.26-3.22-.08-1.84,.37-2.73,1.25-2.78,1.15-.02-.02,.17-.25,.61-.57,.44-.32,1.14-.7,2.09-.94,.95-.23,2.14-.31,3.41-.03,1.27,.28,2.58,.96,3.69,1.94,2.27,2,3.17,4.72,3.47,6.59,.15,.95,.19,1.73,.18,2.27,0,.54-.05,.83-.08,.83Z"/></g><path class="r" d="M212.95,173.97l-38.45-15.24s-19.7-25.83-19.29-26.33l-13.83,15.14,20.1,27.2,46.57,10.9,22.05,.18c-1.71-8.48-17.15-11.85-17.15-11.85Z"/><g><path class="t" d="M129.14,100.29l-5.24-2.03-22.62,2.87v4l-.65,.08s-7.03,1.28-13.86,5.38c-8.27,4.97-12.57,14.54-11.04,24.07,.92,5.72,2.7,12.67,6.14,16.69,6.57,7.68,12.57-1.81,12.57-1.81,0,0,4.12,9.41,3.89,13.85-.2,3.73-1.85,11.49-2.38,13.91-.09,.41,.18,.8,.59,.88l47.72,8.82,.23-11.66-1.52-47.97-2.11-18.63s.07-8.9-11.74-8.44Z"/><polygon class="t" points="140.15 105.63 158.34 131.92 143.69 149.76 140.15 105.63"/><path class="n" d="M144.05,160.95s-.06-.61-.07-1.7c-.01-1.18-.03-2.74-.06-4.62-.09-3.9-.31-9.28-1.09-15.18-.75-5.9-1.9-11.17-2.78-14.97-.43-1.83-.79-3.35-1.06-4.5-.25-1.06-.37-1.65-.34-1.66,.03,0,.22,.57,.53,1.61,.31,1.05,.73,2.57,1.22,4.46,.97,3.78,2.18,9.06,2.94,14.99,.78,5.92,.94,11.33,.94,15.24-.02,1.95-.05,3.53-.11,4.63-.05,1.09-.1,1.69-.13,1.69Z"/><path class="h" d="M99.28,120.98c0,.08-1.38,.07-3.6,.19-2.21,.12-5.27,.42-8.58,1.1-3.31,.69-6.23,1.62-8.31,2.4-2.08,.77-3.34,1.33-3.37,1.26-.02-.03,.28-.21,.84-.5,.55-.29,1.37-.67,2.4-1.11,2.06-.87,5-1.87,8.34-2.56,3.35-.69,6.44-.94,8.67-.96,1.12-.01,2.02,.01,2.64,.06,.62,.04,.97,.09,.96,.12Z"/><path class="h" d="M141.42,133.01c.01,.07-.85,.28-2.27,.49-1.42,.22-3.39,.43-5.57,.5-2.19,.07-4.17,0-5.6-.12-1.43-.12-2.3-.27-2.3-.34,0-.08,.89-.06,2.31-.03,1.42,.03,3.39,.04,5.56-.03,2.17-.08,4.13-.23,5.55-.35,1.42-.12,2.3-.2,2.31-.13Z"/><path class="h" d="M149.77,121.12c.09,.1-1.52,1.71-3.9,3.16-2.38,1.46-4.55,2.16-4.59,2.04-.06-.14,1.98-1.05,4.32-2.48,2.34-1.42,4.07-2.83,4.17-2.71Z"/><path class="h" d="M142.42,108.93c.09,.09-2.06,2.02-5.3,3.38-3.23,1.38-6.11,1.58-6.11,1.46-.03-.16,2.75-.58,5.91-1.93,3.17-1.33,5.41-3.03,5.5-2.9Z"/><path class="h" d="M143.41,153.36s-.32,.21-.95,.5c-.62,.29-1.54,.67-2.69,1.09-2.3,.85-5.58,1.79-9.29,2.37-3.71,.57-7.12,.65-9.57,.53-1.23-.06-2.22-.14-2.9-.23-.68-.09-1.05-.15-1.05-.19,0-.09,1.52,.04,3.96,.06,2.44,.02,5.81-.12,9.48-.68,3.67-.57,6.93-1.45,9.25-2.2,2.32-.75,3.72-1.32,3.76-1.24Z"/><path class="h" d="M143.78,166.92s-.14,.1-.43,.24c-.34,.16-.76,.36-1.27,.6-1.1,.52-2.73,1.2-4.77,1.96-2.04,.77-4.51,1.57-7.29,2.33-2.79,.74-5.88,1.42-9.17,1.94-3.29,.5-6.45,.78-9.33,.93-2.88,.11-5.48,.1-7.65-.01-2.18-.11-3.93-.26-5.14-.42-.55-.08-1.01-.14-1.39-.19-.32-.05-.48-.08-.48-.1,0-.02,.17-.02,.49,0,.38,.02,.84,.06,1.4,.09,1.21,.1,2.97,.2,5.13,.26,2.17,.07,4.75,.04,7.62-.1,2.86-.17,6-.46,9.27-.96,3.27-.52,6.35-1.19,9.13-1.89,2.77-.73,5.24-1.49,7.29-2.21,2.05-.72,3.69-1.34,4.81-1.8,.52-.2,.95-.37,1.3-.51,.3-.11,.46-.16,.47-.15Z"/></g><g><g><path class="t" d="M56.04,379.51l-5.4,24.43-9.85,18.09c-.71,1.3-.17,2.94,1.18,3.56h0c.76,.35,1.62,.31,2.34-.11,4.58-2.65,21.39-12.47,21.68-14.28,.34-2.1,7.41-25.39,7.41-25.39l-17.37-6.3Z"/><g class="j"><path class="g" d="M41.97,425.59l24.43-16.02-.25,1.03c-.22,.89-.74,1.68-1.48,2.21-1.99,1.43-7.56,5.28-20.27,12.7-.74,.43-1.65,.46-2.42,.09h0Z"/></g><g class="j"><path class="g" d="M63.34,400.5c-.71,.27-1.14,1.14-.89,1.87,.24,.72,1.13,1.16,1.84,.9,.72-.26,1.26-1.29,.94-1.98-.32-.69-1.39-1.15-2.02-.73"/></g><path class="n" d="M50.13,416.33c-.15,.03-.39-1.37-1.67-2.41-1.25-1.08-2.67-1.06-2.67-1.22,0-.06,.35-.18,.94-.12,.58,.06,1.39,.34,2.08,.92,.7,.59,1.11,1.33,1.27,1.89,.16,.57,.11,.94,.05,.94Z"/><path class="n" d="M47.6,419.16c-.14,.08-.73-.9-1.9-1.57-1.15-.69-2.3-.73-2.3-.89-.04-.14,1.26-.37,2.58,.41,1.33,.77,1.76,2.01,1.62,2.05Z"/><path class="n" d="M54.38,412.95c-.14,.09-1.04-1.43-2.76-2.63-1.71-1.23-3.43-1.56-3.4-1.72,0-.14,1.88-.03,3.72,1.28,1.85,1.29,2.58,3.03,2.45,3.07Z"/><path class="n" d="M56.64,405.66c-.1,.13-1.31-.76-3.04-1.25-1.73-.52-3.22-.41-3.23-.58-.04-.14,1.53-.5,3.39,.05,1.86,.53,2.99,1.69,2.88,1.78Z"/><path class="n" d="M58.41,398.53c-.11,.12-1.26-1.02-3.13-1.39-1.86-.41-3.37,.17-3.42,.02-.03-.06,.31-.3,.95-.49,.64-.19,1.58-.28,2.58-.07,1,.21,1.83,.67,2.34,1.1,.51,.43,.73,.78,.68,.83Z"/><path class="n" d="M55.66,395.79s0-.35,.19-.93c.2-.58,.58-1.4,1.32-2.23,.37-.39,.79-.9,1.55-1.05,.38-.08,.86,.11,1.07,.5,.21,.38,.2,.8,.12,1.19-.4,1.54-2.09,2.7-3.88,2.5-1.79-.24-3.12-1.62-3.49-3.12-.07-.38-.07-.83,.22-1.19,.29-.37,.82-.41,1.15-.27,.7,.28,1.05,.81,1.4,1.22,.67,.88,1.02,1.71,1.2,2.29,.18,.58,.2,.92,.17,.93-.1,.04-.32-1.34-1.67-2.98-.35-.39-.74-.86-1.24-1.04-.25-.09-.49-.04-.63,.14-.14,.17-.16,.49-.1,.79,.32,1.23,1.54,2.49,3.05,2.67,1.51,.19,2.99-.84,3.33-2.07,.08-.3,.07-.62-.05-.84-.11-.21-.34-.32-.59-.28-.52,.07-.96,.51-1.33,.87-1.46,1.53-1.7,2.94-1.8,2.89Z"/></g><g class="q"><polygon points="55.41 382.16 54.24 387.76 71.93 390.7 73.41 385.81 56.04 379.51 55.41 382.16"/></g></g><g><g><path class="t" d="M135.1,388.55l-1.46,19.52s19.35,8.04,19.44,11.68l-37.96-1.47,1.03-30.51,18.95,.79Z"/><g class="j"><path class="g" d="M121.96,405.97c-.74,.17-1.28,.98-1.14,1.73,.14,.75,.96,1.3,1.7,1.15,.75-.16,1.42-1.11,1.2-1.84-.22-.73-1.22-1.33-1.9-1"/></g><g class="j"><path class="g" d="M115.11,418.28l.22-3.07,36.31,2.56s1.66,.8,1.42,1.98l-37.96-1.47Z"/></g><path class="n" d="M134.26,407.9c-.01,.19-.94,.23-1.88,.79-.95,.54-1.45,1.32-1.62,1.24-.17-.04,.15-1.14,1.29-1.8,1.14-.67,2.25-.4,2.2-.24Z"/><path class="n" d="M138.18,409.7c.04,.18-.78,.47-1.44,1.23-.68,.74-.87,1.58-1.06,1.57-.18,.02-.26-1.07,.58-2,.83-.94,1.92-.97,1.92-.79Z"/><path class="n" d="M140.25,414.56c-.17,.03-.39-.9,.12-1.9,.51-1,1.4-1.37,1.47-1.21,.1,.16-.49,.68-.9,1.5-.43,.81-.51,1.59-.7,1.61Z"/><path class="n" d="M134.1,403.42c-.08,.17-.92-.12-1.98-.09-1.05,0-1.88,.33-1.97,.17-.1-.14,.72-.79,1.96-.81,1.24-.03,2.08,.6,1.99,.74Z"/></g><g class="q"><polygon points="134.8 392.41 134.55 395.89 115.9 395 116.02 390.98 134.8 392.41"/></g><path class="n" d="M134.32,399.47c0,.08-.74,.16-1.9-.08-.58-.12-1.26-.34-1.97-.69-.35-.17-.71-.38-1.07-.62-.17-.12-.37-.24-.56-.47-.2-.2-.3-.7-.05-.99,.21-.28,.55-.4,.83-.39,.28,0,.5,.07,.71,.13,.42,.12,.81,.27,1.17,.45,.71,.36,1.29,.8,1.71,1.22,.85,.85,1.12,1.55,1.06,1.59-.09,.06-.49-.54-1.36-1.25-.43-.35-.99-.72-1.66-1.02-.33-.15-.7-.28-1.08-.38-.4-.12-.74-.14-.85,.04-.04,.07-.05,.09,.03,.21,.08,.11,.24,.22,.41,.34,.33,.23,.66,.44,.98,.61,.65,.35,1.27,.6,1.81,.78,1.08,.35,1.79,.42,1.78,.52Z"/><path class="n" d="M134.07,399.73c-.07,.03-.41-.65-.43-1.86,0-.6,.08-1.32,.34-2.07,.13-.38,.31-.76,.53-1.14,.24-.37,.53-.86,1.25-.91,.38,0,.68,.31,.77,.56,.12,.26,.13,.48,.17,.7,.05,.45,.03,.88-.05,1.28-.15,.8-.51,1.46-.89,1.93-.78,.95-1.56,1.15-1.58,1.08-.06-.1,.6-.43,1.21-1.35,.3-.46,.57-1.06,.67-1.76,.05-.35,.06-.72,0-1.1-.04-.41-.18-.74-.33-.7-.19-.01-.52,.28-.69,.6-.21,.33-.38,.67-.51,1.01-.26,.68-.39,1.33-.44,1.88-.1,1.11,.08,1.81-.03,1.84Z"/></g><g><path class="n" d="M95.8,178.03s-6.03,.26-10,20.79c-3.97,20.52-34.49,186.79-34.49,186.79l22.11,.2,41.7-158.08-2.77,162.96,22.46,1.72s16.85-180.29,17.01-190.78c.2-13.08-7.31-26.31-7.31-26.31l-48.71,2.7Z"/><path class="l" d="M126.18,176.28c.14,.03-2.15,11.75-5.12,26.18-2.97,14.43-5.49,26.11-5.63,26.08-.14-.03,2.15-11.75,5.12-26.19,2.97-14.43,5.49-26.11,5.63-26.08Z"/><path class="l" d="M129.63,179.2c-.04-.05,.6-.24,1.28,.37,.32,.3,.63,.79,.6,1.41-.01,.64-.49,1.25-1.13,1.52-.63,.27-1.41,.19-1.88-.25-.47-.42-.6-.99-.59-1.42,.04-.92,.62-1.24,.63-1.18,.07,.05-.33,.43-.26,1.17,.03,.35,.19,.79,.53,1.06,.33,.28,.88,.34,1.36,.13,.49-.21,.83-.63,.86-1.07,.04-.44-.16-.85-.39-1.12-.49-.56-1.03-.54-1.02-.63Z"/><path class="l" d="M128.67,187.33c-.01-.06,.62,.02,.97,.83,.15,.38,.22,.94-.06,1.47-.28,.55-.96,.87-1.62,.81-.66-.04-1.29-.47-1.48-1.05-.2-.57-.04-1.11,.17-1.46,.47-.75,1.11-.73,1.09-.67,.03,.08-.47,.2-.76,.84-.14,.31-.21,.74-.04,1.12,.15,.38,.58,.67,1.07,.71,.5,.04,.96-.18,1.17-.53,.22-.35,.22-.79,.13-1.11-.19-.68-.66-.88-.62-.95Z"/><path class="l" d="M107.48,179.41s-.05,.38-.26,1.03c-.21,.65-.59,1.57-1.17,2.65-1.14,2.15-3.27,4.93-6.41,7-3.15,2.08-6.54,2.93-8.97,3.13-1.22,.11-2.21,.09-2.89,.03-.68-.06-1.05-.13-1.05-.16,0-.1,1.51,.07,3.9-.23,2.38-.29,5.66-1.18,8.72-3.2,3.06-2.02,5.18-4.68,6.38-6.75,1.22-2.08,1.66-3.53,1.75-3.49Z"/><path class="l" d="M150.5,193.99s-.26-.11-.66-.4c-.41-.28-.97-.74-1.6-1.37-1.27-1.25-2.77-3.28-3.77-5.84-.98-2.56-1.23-5.08-1.12-6.86,.05-.89,.15-1.61,.27-2.09,.11-.49,.19-.75,.22-.74,.09,.02-.12,1.09-.12,2.84-.01,1.74,.29,4.17,1.24,6.66,.96,2.48,2.37,4.48,3.55,5.77,1.18,1.29,2.06,1.95,2,2.03Z"/></g></g><g><g><g><path class="r" d="M87,138.48l9.82,.54c.62,3.18,2.78,8.05,2.78,8.05,7.91-13.72,14.04-32.11,15.56-39.5-.22-.74-.48-1.55-.81-2.47-.38-1.05-.05-3.05,.12-4.16,.27-1.65,.73-3.86,.86-4.88,.42-3.12,.92-3.61,2.01-3.26,1.48,.48-.61,8.77,.61,8.95,.65,.1,1.45-2.74,1.68-5.07,.23-2.33,1.29-9.5,2.06-9.97,1.13-.7,2.11,.41,1.83,2.73-.29,2.35-.65,9.35,.58,9.45,1.21,.09,2.23-11.79,2.23-11.79,0,0-.19-2.59,1.23-2.52,2.57,.11,.56,12.64,.34,13.83-.15,.83,1.18,.98,1.3,.08,.12-.92,.74-11.88,3.36-11.79,2.01,.07-1.56,10.32-.43,12.7,1.13,2.38,1.91-8.07,3.83-7.93,.71,.05,1.24,.19-.07,6.11-.71,3.18-2.78,9.02-4.59,13.86-3.04,16.4-16.38,68.86-37.31,59.26-11.71-5.37-17.17-31.98-17.17-31.98l10.17-.23Z"/><path class="p" d="M131.31,111.44s.02-.13,.1-.36c.09-.26,.21-.6,.35-1.03,.33-.95,.79-2.27,1.37-3.96,.58-1.72,1.3-3.83,2.01-6.31,.36-1.24,.66-2.58,.94-4.01,.13-.72,.27-1.46,.35-2.22,.04-.38,.08-.77,.05-1.14-.03-.39-.09-.71-.4-.71-.32-.09-.53,.18-.75,.51-.2,.33-.36,.72-.5,1.11-.28,.79-.5,1.63-.72,2.48-.22,.86-.42,1.74-.68,2.64-.16,.45-.23,.89-.6,1.38-.07,.06-.13,.14-.27,.17-.15,.04-.27-.02-.38-.08-.14-.13-.21-.26-.28-.38-.11-.25-.18-.51-.21-.76-.18-2.01,.28-3.95,.59-5.96,.17-1,.35-2.02,.49-3.05,.06-.51,.12-1.03,.12-1.54,.02-.47-.06-1.11-.27-1.2-.26-.1-.72,.19-.96,.62-.28,.42-.48,.91-.65,1.42-.35,1.02-.57,2.1-.77,3.2-.19,1.1-.34,2.22-.46,3.36-.06,.57-.11,1.14-.17,1.72l-.08,.87c-.02,.24-.02,.73-.4,1.01-.35,.26-.81,.29-1.18,.05-.19-.12-.33-.34-.36-.57-.02-.11,0-.22,0-.32l.04-.21c.09-.58,.18-1.16,.27-1.75,.16-1.17,.31-2.36,.42-3.56,.11-1.2,.2-2.41,.21-3.62,0-1.2,0-2.46-.35-3.56-.11-.33-.3-.64-.5-.72-.21-.08-.52,0-.68,.22-.35,.49-.4,1.29-.38,1.94v.05c-.21,2.35-.47,4.66-.81,6.93-.17,1.13-.36,2.26-.65,3.37-.07,.28-.16,.56-.25,.83-.13,.28-.17,.56-.57,.86-.34,.16-.6-.02-.73-.16-.15-.15-.21-.3-.27-.45-.12-.29-.17-.58-.22-.86-.32-2.25-.19-4.42-.06-6.55,.04-1.07,.3-2.13,.16-3.07-.07-.46-.25-.93-.56-1.14-.15-.1-.33-.12-.51-.08-.09,.03-.19,.06-.28,.12-.09,.07-.07,.05-.14,.17-.39,.82-.58,1.85-.79,2.78-.2,.96-.36,1.91-.52,2.85-.15,.94-.29,1.87-.41,2.78-.12,.91-.19,1.83-.36,2.72-.17,.89-.38,1.76-.7,2.59-.08,.21-.18,.41-.29,.61-.14,.19-.22,.43-.6,.55-.22,.06-.41-.09-.51-.21-.08-.13-.12-.25-.16-.37-.05-.23-.07-.45-.08-.67-.02-1.7,.23-3.27,.32-4.78,.05-.75,.08-1.49,0-2.17-.04-.32-.15-.7-.33-.77-.27-.11-.61-.16-.81-.02-.44,.32-.6,1.05-.74,1.64-.14,.62-.21,1.23-.32,1.82-.42,2.37-.86,4.4-1.07,6.06-.1,.83-.14,1.58-.03,2.2,.14,.61,.34,1.14,.46,1.56,.12,.4,.21,.72,.29,.97,.06,.22,.09,.33,.08,.33,0,0-.06-.1-.14-.32-.09-.24-.2-.56-.34-.95-.14-.43-.35-.91-.52-1.57-.13-.65-.11-1.42-.03-2.26,.18-1.69,.59-3.71,.97-6.08,.11-.59,.16-1.22,.3-1.85,.07-.32,.14-.64,.26-.97,.13-.32,.26-.68,.63-.92,.39-.24,.82-.15,1.18-.02,.47,.27,.49,.72,.57,1.07,.1,.75,.07,1.5,.03,2.26-.07,1.52-.31,3.11-.28,4.73,0,.2,.03,.39,.07,.57,.04,.19,.14,.27,.12,.23,.04,0,.19-.17,.27-.32,.09-.17,.18-.36,.25-.55,.3-.78,.5-1.63,.66-2.5,.17-.86,.22-1.77,.34-2.69,.11-.92,.25-1.85,.39-2.8,.15-.95,.31-1.9,.51-2.87,.22-.97,.36-1.94,.84-2.95,.03-.1,.24-.33,.35-.39,.13-.08,.27-.13,.42-.18,.31-.08,.68-.04,.96,.15,.55,.39,.72,.99,.82,1.53,.08,.55,.06,1.1,0,1.63-.06,.51-.1,1.04-.14,1.56-.12,2.09-.24,4.28,.07,6.41,.05,.26,.1,.52,.19,.74,.05,.1,.1,.21,.15,.26,.03,.03,.04,.03,.05,.04h0c-.02,.24,0,.05,0,.1,0-.04-.01-.04-.04-.09,.05-.04,.21-.32,.29-.55,.09-.25,.17-.51,.23-.78,.27-1.07,.46-2.18,.63-3.31,.33-2.25,.59-4.56,.8-6.89v.05c-.01-.77-.02-1.57,.51-2.37,.31-.39,.87-.61,1.4-.41,.52,.24,.71,.71,.86,1.09,.4,1.28,.38,2.53,.39,3.77-.02,1.24-.1,2.46-.22,3.67-.12,1.21-.26,2.4-.43,3.59-.09,.59-.18,1.18-.27,1.77-.07,.37-.06,.38,.05,.49,.12,.09,.35,.08,.47-.02,.13-.09,.14-.26,.17-.58l.08-.87c.06-.58,.12-1.16,.17-1.73,.13-1.15,.28-2.28,.48-3.4,.2-1.12,.43-2.22,.8-3.29,.19-.53,.4-1.06,.73-1.55,.17-.24,.36-.48,.64-.66,.29-.17,.61-.32,1.04-.15,.41,.22,.48,.6,.55,.88,.04,.29,.06,.58,.05,.85,0,.55-.07,1.08-.14,1.61-.14,1.05-.33,2.07-.5,3.07-.33,1.99-.78,3.97-.62,5.8,.02,.22,.08,.43,.16,.61,.05,.09,.1,.17,.13,.2,0-.01,0-.02-.02,.04,0,.08,0-.02,0,0-.04-.06,0-.04,0-.07,.21-.26,.36-.76,.49-1.17,.26-.87,.47-1.76,.69-2.62,.22-.86,.45-1.71,.75-2.52,.15-.41,.31-.81,.55-1.19,.13-.19,.25-.38,.46-.53,.09-.08,.23-.14,.36-.18,.16-.02,.28-.02,.38,0,.24,.01,.55,.22,.63,.46,.1,.23,.12,.45,.13,.66,.02,.42-.03,.82-.07,1.21-.09,.78-.24,1.52-.38,2.24-.29,1.44-.61,2.8-.99,4.03-.75,2.48-1.5,4.58-2.12,6.29-.62,1.71-1.13,3.03-1.48,3.92-.17,.42-.3,.75-.41,1.01-.1,.23-.15,.34-.16,.34Z"/></g><path class="t" d="M76.73,139.62c1.9,6.7,5.61,17.06,9.6,27.98,.58,1.58,2.77,1.68,3.49,.16l9.78-20.68s-2.36-16.99-2.16-16.39c.2,.6-20.19,2.2-20.19,2.2l-.54,6.74Z"/></g><path class="h" d="M98.76,136.29c.02,.08-1.22,.44-3.15,1.18-1.94,.74-4.56,1.91-7.26,3.54-2.7,1.64-4.95,3.42-6.5,4.8-1.55,1.38-2.44,2.31-2.5,2.25-.03-.02,.17-.28,.55-.73,.37-.45,.96-1.06,1.71-1.79,1.5-1.46,3.74-3.31,6.48-4.98,2.74-1.66,5.42-2.79,7.4-3.44,.99-.33,1.81-.56,2.38-.68,.57-.13,.89-.19,.9-.15Z"/><path class="n" d="M102.64,141.44c-.05,.04-.72-.75-1.63-2.14-.91-1.39-2.05-3.4-3.02-5.74-.97-2.35-1.59-4.57-1.93-6.2-.34-1.63-.42-2.65-.36-2.66,.08-.01,.29,.99,.72,2.58,.42,1.59,1.09,3.77,2.05,6.08,.96,2.32,2.03,4.33,2.85,5.75,.83,1.42,1.38,2.28,1.32,2.33Z"/></g><g><path class="n" d="M109.17,49.83c-3.42,5.53-4.15,12.69-1.91,18.81,1,2.75,2.6,5.46,2.31,8.38-.3,2.99-2.56,5.81-1.76,8.7,.47,1.71,1.94,2.98,2.5,4.66,.66,1.97-.03,4.11-.34,6.16-.8,5.24,.87,10.5,1.29,15.79,.41,5.28-1.01,11.47-5.72,13.77-1.43,.7-3.3,.9-4.49-.17-1.51-1.36-1.09-3.79-.68-5.79,4.14-20.02-8.65-39.52-5.73-59.76,.47-3.24,2.28-8.75,4.62-11.02,2.34-2.27,8.79-1.99,11,.4"/><path class="l" d="M89.47,107.85s.6-.72,1.5-2.14c.9-1.41,2.02-3.61,2.61-6.55,.29-1.47,.41-3.1,.31-4.86-.08-1.76-.32-3.66-.21-5.68,.04-1.01,.26-2.05,.57-3.06,.35-1.01,.82-1.99,1.37-2.94,1.12-1.89,2.54-3.65,3.83-5.54,1.3-1.88,2.37-3.86,2.72-5.96,.35-2.1-.03-4.18-.35-6.14-.35-1.96-.59-3.89-.44-5.68,.11-1.79,.47-3.44,.96-4.88,.98-2.89,2.43-4.95,3.53-6.22,.55-.64,1.02-1.11,1.36-1.4,.33-.3,.51-.44,.53-.43,.04,.04-.67,.65-1.73,1.96-1.04,1.3-2.42,3.35-3.34,6.21-.45,1.42-.78,3.04-.88,4.79-.12,1.76,.12,3.62,.48,5.58,.33,1.95,.74,4.08,.38,6.3-.36,2.21-1.48,4.28-2.79,6.17-1.31,1.91-2.73,3.66-3.82,5.5-.55,.92-1,1.87-1.34,2.84-.3,.97-.52,1.95-.57,2.94-.13,1.96,.1,3.85,.16,5.63,.09,1.78-.06,3.47-.38,4.96-.65,2.99-1.85,5.2-2.8,6.59-.48,.7-.9,1.21-1.19,1.54-.3,.33-.46,.5-.48,.48Z"/><path class="l" d="M79.98,109.34s.09-.24,.31-.67c.25-.47,.57-1.1,.97-1.88,.84-1.63,2.09-3.98,3.32-7.01,1.21-3.02,2.41-6.8,2.44-11.11,0-1.07-.07-2.17-.24-3.28-.17-1.11-.43-2.24-.6-3.43-.16-1.18-.24-2.44,.08-3.68,.31-1.25,1.09-2.35,2.04-3.21,1.89-1.71,4.16-2.83,5.33-4.84,1.2-1.97,1.47-4.29,1.77-6.41,.26-2.15,.67-4.22,1.38-6.04,.68-1.83,1.59-3.42,2.54-4.77,1.91-2.72,4.03-4.43,5.56-5.45,.77-.51,1.39-.86,1.83-1.07,.43-.22,.67-.32,.67-.3,.03,.05-.9,.49-2.39,1.54-1.48,1.06-3.53,2.79-5.37,5.49-.91,1.34-1.79,2.91-2.43,4.71-.67,1.79-1.06,3.8-1.31,5.95-.29,2.13-.54,4.5-1.81,6.62-1.27,2.16-3.63,3.31-5.41,4.95-.9,.82-1.6,1.82-1.89,2.96-.29,1.14-.23,2.33-.07,3.48,.16,1.16,.41,2.29,.58,3.42,.17,1.14,.25,2.26,.23,3.36-.07,4.41-1.32,8.22-2.58,11.25-1.29,3.04-2.59,5.36-3.48,6.96-.44,.76-.79,1.37-1.06,1.83-.25,.41-.39,.63-.4,.62Z"/></g><g><g><path class="n" d="M410.85,391.91s.05-.15,.18-.42c.14-.3,.33-.7,.57-1.21,.48-1.07,1.11-2.68,1.66-4.84,1.1-4.3,1.49-10.87-.14-18.68-.76-3.91-1.98-8.1-3.46-12.54-1.47-4.45-3.17-9.18-4.56-14.28-1.38-5.09-2.46-10.62-2.25-16.42,.21-5.81,1.93-11.61,3.82-17.38,1.89-5.78,3.84-11.43,4.42-17.11,.66-5.67-.55-11.24-3.14-15.81-2.5-4.61-5.65-8.56-8.01-12.64-2.39-4.07-3.89-8.26-4.81-12.15-1.79-7.85-1.16-14.47-.3-18.83,.93-4.38,1.96-6.65,1.96-6.65,0,0-.03,.15-.12,.44-.1,.31-.23,.74-.4,1.27-.35,1.12-.8,2.79-1.22,4.98-.78,4.35-1.34,10.92,.49,18.69,.94,3.85,2.44,7.98,4.83,12,2.35,4.04,5.51,7.96,8.07,12.63,2.64,4.61,3.91,10.36,3.24,16.13-.59,5.78-2.55,11.47-4.44,17.24-1.89,5.77-3.59,11.5-3.8,17.21-.21,5.71,.84,11.18,2.2,16.25,1.37,5.08,3.05,9.81,4.5,14.27,1.47,4.46,2.67,8.68,3.41,12.62,1.59,7.86,1.13,14.5-.05,18.81-.6,2.16-1.26,3.77-1.78,4.83-.26,.5-.47,.89-.62,1.19-.14,.27-.22,.4-.23,.39Z"/><g><path class="t" d="M403.13,264.61s-4.79-15.3,3.8-24.26c.3-.31,.83-.17,.91,.26,.46,2.53,1.03,10.23-4.71,24Z"/><path class="n" d="M406,245.45c.08,.02-.06,1.09-.32,2.82-.31,1.94-.68,4.23-1.09,6.75-.4,2.52-.76,4.81-1.07,6.75-.26,1.73-.42,2.8-.51,2.79-.08,0-.07-1.09,.09-2.84,.16-1.75,.47-4.15,.9-6.79,.43-2.64,.89-5.02,1.27-6.73,.37-1.71,.66-2.76,.74-2.75Z"/></g><g><path class="t" d="M408.76,300.71s2.93-15.77,14.71-19.67c.41-.14,.81,.24,.68,.66-.78,2.45-3.87,9.52-15.39,19.01Z"/><path class="n" d="M420.25,285.11c.06,.05-.56,.94-1.61,2.34-1.19,1.57-2.58,3.42-4.12,5.46-1.53,2.04-2.92,3.89-4.1,5.47-1.04,1.41-1.68,2.28-1.75,2.23-.07-.04,.45-1,1.41-2.47,.96-1.47,2.36-3.45,3.97-5.58,1.62-2.13,3.14-4.02,4.27-5.36,1.13-1.34,1.87-2.13,1.94-2.08Z"/></g><g><path class="t" d="M405.57,340.26s-1.78-15.94,8.36-23.09c.36-.25,.85,0,.84,.43-.03,2.57-.94,10.23-9.2,22.66Z"/><path class="n" d="M412.04,321.99c.08,.03-.26,1.06-.85,2.71-.68,1.85-1.48,4.02-2.36,6.42-.87,2.4-1.67,4.57-2.34,6.42-.59,1.65-.95,2.67-1.03,2.65-.07-.02,.14-1.09,.63-2.78,.49-1.69,1.25-3.99,2.18-6.5,.93-2.51,1.83-4.76,2.53-6.37,.69-1.61,1.17-2.59,1.25-2.55Z"/></g><g><path class="t" d="M414.45,380.04s-1.21-15.99,9.18-22.78c.36-.24,.85,.03,.83,.46-.12,2.57-1.3,10.19-10.01,22.32Z"/><path class="n" d="M421.57,362.02c.08,.03-.3,1.05-.95,2.68-.75,1.82-1.62,3.96-2.59,6.33-.96,2.37-1.83,4.51-2.57,6.33-.65,1.62-1.04,2.63-1.12,2.61-.07-.02,.18-1.08,.73-2.75,.55-1.67,1.39-3.94,2.41-6.42,1.02-2.47,2-4.69,2.75-6.27,.75-1.58,1.26-2.54,1.34-2.51Z"/></g><g><path class="t" d="M396.26,251.17s-14.21-7.42-14.49-19.83c0-.44,.47-.71,.83-.46,2.11,1.46,7.97,6.49,13.66,20.29Z"/><path class="n" d="M384.72,235.6c.07-.05,.73,.81,1.77,2.22,1.15,1.6,2.51,3.47,4.01,5.54,1.5,2.07,2.86,3.93,4.02,5.53,1.04,1.41,1.69,2.27,1.62,2.33-.06,.05-.82-.72-1.95-2.07-1.13-1.35-2.61-3.26-4.17-5.44-1.56-2.17-2.92-4.18-3.87-5.65-.95-1.47-1.49-2.42-1.42-2.46Z"/></g><g><path class="t" d="M411.52,284.03s-14.64-6.55-15.67-18.91c-.04-.43,.43-.73,.8-.51,2.2,1.33,8.35,6,14.87,19.42Z"/><path class="n" d="M399.05,269.2c.07-.05,.78,.77,1.9,2.11,1.25,1.52,2.72,3.31,4.34,5.29,1.63,1.97,3.1,3.75,4.35,5.27,1.12,1.34,1.82,2.17,1.76,2.23-.06,.05-.87-.67-2.07-1.95-1.21-1.28-2.8-3.1-4.5-5.17-1.69-2.07-3.17-3.99-4.21-5.41-1.04-1.41-1.63-2.32-1.57-2.37Z"/></g><g><path class="t" d="M403.1,320.7s-10.05-12.49-5.34-23.97c.17-.4,.71-.46,.94-.09,1.35,2.18,4.7,9.14,4.39,24.06Z"/><path class="n" d="M398.76,301.81c.08-.01,.35,1.04,.73,2.75,.42,1.93,.91,4.18,1.45,6.68,.55,2.49,1.05,4.75,1.47,6.67,.39,1.7,.63,2.76,.55,2.79-.07,.02-.46-.99-.96-2.68-.49-1.69-1.08-4.04-1.65-6.65-.56-2.62-1-5-1.28-6.73-.28-1.73-.4-2.81-.32-2.83Z"/></g><g><path class="t" d="M413.05,363.84s-14.53-6.79-15.35-19.17c-.03-.43,.44-.73,.81-.49,2.17,1.37,8.24,6.14,14.54,19.67Z"/><path class="n" d="M400.84,348.79c.07-.05,.77,.78,1.87,2.14,1.22,1.54,2.66,3.36,4.25,5.36,1.59,2,3.03,3.8,4.26,5.34,1.1,1.36,1.78,2.2,1.72,2.26-.06,.05-.86-.69-2.04-1.98-1.18-1.3-2.75-3.15-4.41-5.25-1.66-2.1-3.1-4.04-4.11-5.48-1.01-1.43-1.6-2.35-1.53-2.4Z"/></g><g><path class="n" d="M441.98,300.79s.02,.12,.02,.35c0,.28-.02,.62-.03,1.03-.04,.96-.1,2.26-.17,3.89-.19,3.42-.45,8.18-.76,13.88h0v.03c-1.04,5.8-4,12.23-7.96,18.48-2.91,4.6-5.96,8.78-8.6,12.67-2.65,3.88-4.89,7.47-6.44,10.65-1.57,3.18-2.48,5.91-3.01,7.82-.26,.96-.45,1.7-.56,2.22-.12,.51-.19,.78-.21,.77-.02,0,.01-.28,.09-.8,.07-.52,.23-1.28,.45-2.25,.47-1.94,1.33-4.71,2.86-7.94,1.52-3.23,3.74-6.87,6.37-10.78,2.61-3.92,5.65-8.1,8.55-12.68,3.95-6.21,6.89-12.55,7.96-18.26v.03c.4-5.7,.73-10.46,.97-13.87,.13-1.62,.24-2.92,.31-3.88,.04-.41,.07-.74,.1-1.02,.03-.23,.05-.35,.06-.35Z"/><g><path class="t" d="M433.34,337.26s6.15-14.81-1.59-24.51c-.27-.34-.81-.24-.93,.18-.69,2.48-1.95,10.09,2.52,24.33Z"/><path class="n" d="M432.22,317.92c.08,0,.27,1.06,.49,2.8,.22,1.74,.46,4.15,.65,6.82,.19,2.67,.28,5.09,.28,6.85,0,1.76-.09,2.84-.17,2.84-.09,0-.15-1.08-.25-2.83-.13-1.96-.29-4.27-.46-6.82-.18-2.55-.34-4.86-.48-6.82-.11-1.75-.15-2.83-.07-2.84Z"/><g class="q"><path d="M433.34,337.26s6.15-14.81-1.59-24.51c-.27-.34-.81-.24-.93,.18-.69,2.48-1.95,10.09,2.52,24.33Z"/></g></g><g><path class="t" d="M414.28,372.94s4.93-15.26-3.57-24.3c-.3-.32-.83-.17-.91,.25-.48,2.52-1.13,10.21,4.48,24.05Z"/><path class="n" d="M411.6,353.75c.08-.02,.36,1.04,.71,2.75,.36,1.72,.8,4.1,1.2,6.74,.41,2.64,.69,5.05,.84,6.8,.14,1.75,.14,2.84,.06,2.85-.09,0-.23-1.07-.48-2.8-.29-1.95-.63-4.23-1.01-6.76-.38-2.53-.73-4.81-1.03-6.76-.25-1.73-.38-2.81-.3-2.83Z"/><g class="q"><path d="M414.28,372.94s4.93-15.26-3.57-24.3c-.3-.32-.83-.17-.91,.25-.48,2.52-1.13,10.21,4.48,24.05Z"/></g></g><g><path class="t" d="M441.17,319.17s13.14-9.2,11.81-21.53c-.05-.43-.56-.64-.88-.35-1.91,1.72-7.06,7.47-10.93,21.88Z"/><g class="q"><path d="M441.17,319.17s13.14-9.2,11.81-21.53c-.05-.43-.56-.64-.88-.35-1.91,1.72-7.06,7.47-10.93,21.88Z"/></g><path class="n" d="M450.6,302.24c.07,.04-.34,1.04-1.09,2.63-.75,1.58-1.84,3.75-3.11,6.1-1.27,2.36-2.49,4.45-3.44,5.93-.95,1.48-1.6,2.35-1.67,2.3-.07-.05,.46-.99,1.3-2.52,.94-1.73,2.05-3.76,3.27-6,1.22-2.25,2.32-4.28,3.26-6.01,.85-1.53,1.39-2.47,1.47-2.43Z"/></g><g><path class="t" d="M419.58,357.82s15.84-2.47,20.09-14.13c.15-.41-.22-.82-.64-.7-2.47,.71-9.63,3.59-19.45,14.83Z"/><g class="q"><path d="M419.58,357.82s15.84-2.47,20.09-14.13c.15-.41-.22-.82-.64-.7-2.47,.71-9.63,3.59-19.45,14.83Z"/></g><path class="n" d="M435.5,346.78c.05,.07-.76,.78-2.14,1.88-1.37,1.09-3.3,2.56-5.48,4.11-2.18,1.56-4.2,2.9-5.7,3.81-1.5,.91-2.47,1.4-2.51,1.33-.04-.08,.85-.69,2.28-1.69,1.61-1.14,3.5-2.47,5.58-3.94,2.08-1.48,3.97-2.82,5.57-3.96,1.43-1,2.34-1.6,2.39-1.54Z"/></g></g></g><polygon class="l" points="404.46 386.97 399.84 418.08 428.64 418.08 424.91 386.97 404.46 386.97"/><path class="n" d="M426.06,396.61c0,.17-5.2,.3-11.61,.3s-11.61-.13-11.61-.3,5.2-.3,11.61-.3,11.61,.13,11.61,.3Z"/><path class="n" d="M426.63,399.09c0,.17-5.37,.3-11.99,.3s-11.99-.13-11.99-.3,5.37-.3,11.99-.3,11.99,.13,11.99,.3Z"/></g><g><path class="n" d="M314.64,85.27s-.27,0-.78-.01c-.52-.02-1.28-.06-2.29,.01-2,.11-4.99,.49-8.52,1.96-3.49,1.47-7.57,4.08-10.82,8.43-1.61,2.17-2.96,4.77-3.78,7.73-.79,2.96-1.06,6.24-.68,9.62,.43,3.37,1.46,6.85,3.35,10.05,.94,1.6,2.05,3.15,3.4,4.51,1.31,1.41,2.86,2.65,4.6,3.6,1.74,.94,3.73,1.54,5.77,1.45,2.02-.07,4.11-.78,5.59-2.25,1.49-1.47,2.23-3.62,2.23-5.76,.01-2.16-.74-4.31-2.03-6.13-2.6-3.65-6.79-6.1-11.26-7.43-4.51-1.31-9.46-1.35-14.2-.2-2.36,.61-4.67,1.52-6.84,2.72-2.17,1.21-4.14,2.79-5.87,4.61-.41,.48-.88,.91-1.24,1.42l-1.13,1.52c-.66,1.08-1.33,2.16-1.84,3.34-1.06,2.32-1.8,4.81-2.17,7.37-.67,5.12-.05,10.4,2.02,15,2,4.61,5.41,8.57,9.66,10.95,2.12,1.18,4.46,1.95,6.84,2.08,2.37,.15,4.74-.46,6.75-1.62,2.01-1.15,3.69-2.89,4.57-4.97,.87-2.09,.86-4.47,.1-6.54-.74-2.09-2.14-3.88-3.76-5.32-1.63-1.43-3.54-2.51-5.53-3.21-4.03-1.32-8.33-1.25-12.17-.21-3.85,1.05-7.29,3.03-9.99,5.57-2.69,2.55-4.58,5.68-5.72,8.87-2.31,6.44-1.72,12.97,.26,17.97,2.04,5.04,5.28,8.62,8.24,10.99,2.99,2.39,5.7,3.68,7.57,4.41,.94,.36,1.66,.61,2.16,.75,.49,.15,.74,.25,.74,.25,0,0-.26-.06-.76-.19-.5-.12-1.23-.36-2.19-.7-1.88-.7-4.63-1.97-7.66-4.35-3-2.36-6.29-5.96-8.38-11.04-2.03-5.05-2.66-11.66-.34-18.2,1.15-3.25,3.06-6.43,5.79-9.04,2.74-2.59,6.23-4.62,10.15-5.69,3.91-1.06,8.29-1.15,12.44,.19,2.05,.72,4.01,1.82,5.69,3.29,1.67,1.47,3.12,3.32,3.9,5.51,.79,2.17,.82,4.68-.1,6.89-.93,2.21-2.68,4.01-4.77,5.22-2.09,1.2-4.56,1.84-7.02,1.69-2.46-.13-4.88-.92-7.06-2.14-4.36-2.44-7.84-6.49-9.88-11.19-2.11-4.7-2.74-10.07-2.06-15.28,.38-2.61,1.13-5.15,2.22-7.51,.52-1.2,1.21-2.3,1.88-3.41l1.15-1.56c.37-.53,.85-.97,1.27-1.45,1.77-1.86,3.79-3.47,6-4.7,2.21-1.22,4.56-2.14,6.97-2.77,4.83-1.17,9.87-1.13,14.47,.21,4.56,1.36,8.83,3.85,11.52,7.63,1.33,1.88,2.12,4.14,2.1,6.4,0,2.25-.78,4.52-2.38,6.09-1.59,1.57-3.79,2.31-5.9,2.37-2.13,.08-4.21-.55-5.99-1.52-1.79-.98-3.37-2.26-4.7-3.69-1.38-1.4-2.5-2.98-3.45-4.6-1.91-3.26-2.94-6.8-3.36-10.21-.37-3.43-.09-6.75,.73-9.75,.84-2.99,2.22-5.63,3.86-7.82,3.31-4.39,7.45-6.99,10.98-8.45,3.57-1.46,6.59-1.8,8.59-1.88,1.01-.05,1.78,0,2.3,.04,.52,.03,.78,.06,.78,.06Z"/><rect class="t" x="207.83" y="185.33" width="140.21" height="108.14"/><g><polygon class="t" points="207.83 185.33 233.72 209.49 371.56 209.49 348.04 185.33 207.83 185.33"/><path class="n" d="M207.83,185.33c2.53,0,60.44-.11,140.21-.26h.11l.08,.08c7.51,7.71,15.31,15.72,23.28,23.9,.08,.08,.16,.17,.24,.25l.43,.44h-.62c-56.52-.04-106.68-.08-137.83-.1h-.06l-.04-.04c-16.2-15.25-24.94-23.47-25.79-24.27,.86,.79,9.66,8.94,26,24.04l-.11-.04c31.15-.02,81.31-.06,137.83-.1l-.19,.44c-.08-.08-.16-.16-.24-.25-7.97-8.19-15.76-16.2-23.27-23.91l.18,.08c-79.77-.15-137.68-.25-140.21-.26Z"/></g><g><path class="n" d="M249.94,235.2c-1.48,0-2.84,1.34-2.86,2.82-.03,1.48,1.28,2.86,2.76,2.92,1.48,.05,2.89-1.23,2.97-2.71,.08-1.48-1.17-2.91-2.65-3.02"/><path class="n" d="M283.05,235.2c-1.48,0-2.84,1.34-2.86,2.82-.03,1.48,1.28,2.86,2.76,2.92,1.48,.05,2.89-1.23,2.97-2.71s-1.17-2.91-2.65-3.02"/><path class="n" d="M283.26,261.08c-.15,.06-.37-2.71-2.78-6.22-1.18-1.74-2.95-3.59-5.3-5.08-2.33-1.5-5.3-2.57-8.5-2.69-3.2-.06-6.22,.85-8.63,2.22-2.43,1.36-4.29,3.11-5.57,4.78-2.59,3.37-2.97,6.12-3.11,6.05-.02,0,.01-.17,.08-.47,.09-.3,.15-.77,.37-1.33,.36-1.14,1.1-2.74,2.37-4.48,1.26-1.74,3.15-3.56,5.62-4.98,2.46-1.43,5.57-2.39,8.88-2.32,3.31,.12,6.36,1.25,8.74,2.81,2.39,1.56,4.18,3.48,5.34,5.28,1.18,1.8,1.82,3.44,2.12,4.6,.19,.57,.23,1.04,.29,1.35,.05,.31,.07,.47,.06,.48Z"/></g><polygon class="i" points="208.14 186.52 232.94 217.96 348.04 217.96 348.04 209.49 233.72 209.49 208.14 186.52"/><path class="n" d="M320.39,293.23c-.14,0-.26-18.81-.26-42.01s.12-42.01,.26-42.01,.26,18.81,.26,42.01-.12,42.01-.26,42.01Z"/><rect class="k" x="330.04" y="268.71" width="12.36" height="13.97"/><g><polygon class="t" points="207.83 185.33 179.04 209.49 207.83 209.49 207.83 185.33"/><g class="o"><polygon points="207.83 185.33 179.04 209.49 207.83 209.49 207.83 185.33"/></g></g></g><g><g><rect class="t" x="190.97" y="293.47" width="161.21" height="124.34"/><rect class="q" x="190.97" y="293.47" width="161.21" height="124.34"/><path class="n" d="M311.78,416.93c-.14,0-.26-27.72-.26-61.9s.12-61.9,.26-61.9,.26,27.71,.26,61.9-.12,61.9-.26,61.9Z"/><rect class="k" x="326.15" y="389.51" width="12.36" height="13.97"/><rect class="n" x="240.15" y="293.79" width="18.31" height="26.53"/><rect class="n" x="240.15" y="390.91" width="18.31" height="26.53"/></g><path class="n" d="M350.77,293.47s-.14,.02-.41,.03c-.3,0-.7,.01-1.21,.03-1.09,.01-2.66,.03-4.66,.05-4.07,.02-9.91,.05-17.12,.08-14.48,.02-34.45,.05-56.49,.08-22.06-.03-42.02-.06-56.5-.08-7.21-.03-13.05-.06-17.12-.08-2-.02-3.56-.04-4.66-.05-.51-.01-.91-.02-1.21-.03-.27,0-.41-.02-.41-.03s.14-.02,.41-.03c.3,0,.7-.01,1.21-.03,1.09-.01,2.66-.03,4.66-.05,4.07-.02,9.91-.05,17.12-.08,14.48-.02,34.45-.05,56.5-.08,22.05,.03,42.01,.06,56.49,.08,7.21,.04,13.05,.06,17.12,.08,2,.02,3.56,.04,4.66,.05,.51,.01,.91,.02,1.21,.03,.27,0,.41,.02,.41,.03Z"/></g><g><path class="n" d="M74.49,78.2c-1.16-.28-6.75-1.66-17.55-4.31l.13-.02c-3.86,2.46-9.09,4.45-15.15,4.54-3.02-.01-6.21-.37-9.39-1.37-3.18-.99-6.31-2.63-9.15-4.85-5.69-4.4-10.11-11.45-11.07-19.56-.49-4.03-.16-8.27,1.09-12.33,1.28-4.05,3.48-7.88,6.45-11.11,1.5-1.71,3.28-3.12,5.08-4.43,.95-.59,1.88-1.19,2.86-1.71l1.49-.72,.74-.36,.77-.28c4.09-1.59,8.44-2.2,12.62-1.92,4.18,.27,8.19,1.44,11.69,3.28,3.51,1.84,6.52,4.34,8.88,7.17,2.37,2.84,4.09,6.01,5.18,9.21,1.09,3.21,1.59,6.43,1.62,9.48,.04,6.12-1.88,11.37-4.21,15.21v-.16c4.88,8.81,7.35,13.26,7.89,14.24-.56-.97-3.11-5.37-8.17-14.08l-.05-.08,.05-.08c2.27-3.81,4.12-9.01,4.05-15.04-.04-3-.55-6.18-1.64-9.33-1.09-3.15-2.79-6.26-5.13-9.04-2.33-2.78-5.29-5.23-8.74-7.02-3.44-1.8-7.37-2.94-11.48-3.2-4.1-.27-8.37,.34-12.37,1.9l-.76,.28-.73,.35-1.46,.71c-.96,.51-1.87,1.1-2.81,1.68-1.77,1.28-3.51,2.67-4.98,4.34-2.91,3.16-5.07,6.92-6.33,10.89-1.23,3.98-1.56,8.13-1.08,12.09,.93,7.96,5.25,14.89,10.83,19.23,2.79,2.19,5.85,3.81,8.98,4.8,3.13,.99,6.27,1.36,9.24,1.39,5.97-.06,11.14-1.99,14.98-4.39l.06-.04,.07,.02c10.76,2.85,16.32,4.33,17.47,4.63Z"/><path class="t" d="M39.03,36.03l.93,14.66c.08,1.2,1.03,2.15,2.23,2.22h0c1.26,.08,2.37-.85,2.51-2.11l1.63-14.74c.12-1.12-.76-2.09-1.88-2.07l-3.58,.05c-1.07,.01-1.9,.92-1.84,1.98Z"/><path class="t" d="M46.08,61.16c-.62,1.88-2.65,2.89-4.52,2.27-1.88-.62-2.89-2.65-2.27-4.52,.62-1.88,2.65-2.89,4.52-2.27,1.88,.62,2.89,2.65,2.27,4.52Z"/></g></g></g></svg>