<?xml version="1.0" encoding="UTF-8"?><svg xmlns="http://www.w3.org/2000/svg" viewBox="0 0 683.04 427.4"><defs><style>.d{fill:#fff;}.e{fill:#fafafa;}.f{opacity:.5;}.g{fill:#aa6550;}.h{fill:#f5f5f5;}.i{fill:#455a64;}.j{fill:#e0e0e0;}.k{opacity:.8;}.l{fill:#b78876;}.m{opacity:.4;}.n{opacity:.3;}.o{fill:#686ccf;}.p{fill:#ebebeb;}.q{fill:#263238;}</style></defs><g id="a"/><g id="b"><g id="c"><g><g><g><path class="p" d="M32.28,182.63s-8.35-.6-7.58,18.14,2.68,28.72,2.68,28.72c0,0-.25,4.15-3.46,3.34-3.22-.82-9.27-4.86-12.26-1.84-3.1,3.13-2,7.94,2.11,13.6s12.67,18.4,13.44,19.56c.76,1.13,1.06,3.26-1.22,3.05-2.28-.2-17.68-5.42-19.71,2.03-2.04,7.45,12.01,21.35,13.52,22.9,1.51,1.55,1.59,2.53,.98,3.46-.61,.94-5.62-1.3-10.06-2.61-4.44-1.3-9.82-2.04-10.63,2.36s5.37,17.27,28.54,30.8l11.15,5.57,10.55-6.73c21.7-15.78,26.57-29.21,25.32-33.5-1.25-4.3-6.53-3.03-10.81-1.28-4.29,1.74-9.05,4.47-9.75,3.6-.7-.87-.72-1.85,.63-3.54,1.34-1.69,13.93-16.92,11.16-24.13-2.77-7.21-17.57-.48-19.82-.05-2.25,.43-2.16-1.71-1.52-2.92,.65-1.23,7.89-14.75,11.41-20.8,3.53-6.05,4.14-10.94,.74-13.75-3.28-2.71-8.89,1.92-12.01,3.05-3.12,1.13-3.78-2.98-3.78-2.98,0,0,.9-10.12-.21-28.84-1.11-18.72-9.56-17.21-9.56-17.21"/><path class="j" d="M32.94,199.41s.02,.13,.04,.39c.02,.28,.05,.66,.09,1.15,.07,1.03,.17,2.52,.3,4.42,.26,3.84,.58,9.41,.96,16.28,.76,13.75,1.66,32.76,2.57,53.75,.92,21,1.76,40.01,2.45,53.76,.35,6.86,.63,12.42,.83,16.29,.09,1.91,.17,3.4,.22,4.43,.02,.49,.04,.87,.05,1.15,0,.26,0,.39,0,.39,0,0-.02-.13-.04-.39-.02-.28-.05-.66-.09-1.15-.07-1.03-.17-2.52-.3-4.42-.26-3.84-.58-9.41-.96-16.28-.76-13.75-1.66-32.76-2.57-53.76-.92-20.99-1.76-40-2.45-53.75-.35-6.86-.63-12.42-.83-16.29-.09-1.91-.17-3.4-.22-4.43-.02-.49-.04-.87-.05-1.15,0-.26,0-.39,0-.39Z"/><path class="j" d="M19.89,236.98s.27,.19,.69,.58c.43,.39,1.03,.97,1.77,1.7,1.47,1.46,3.45,3.52,5.59,5.84,2.09,2.29,3.99,4.36,5.45,5.97,.65,.71,1.2,1.31,1.66,1.8,.39,.42,.6,.67,.58,.69-.02,.02-.27-.18-.7-.57-.43-.39-1.03-.97-1.76-1.71-1.46-1.47-3.41-3.56-5.55-5.88-2.11-2.27-4.02-4.33-5.49-5.92-.65-.7-1.21-1.3-1.67-1.79-.39-.43-.6-.67-.58-.69Z"/><path class="j" d="M36.74,253.19c-.08-.08,3.99-4.35,9.11-9.53,5.11-5.18,9.33-9.32,9.41-9.24,.08,.08-3.99,4.35-9.11,9.54-5.11,5.18-9.33,9.32-9.41,9.24Z"/><path class="j" d="M36.7,285.5s.26-.2,.78-.49c.6-.33,1.32-.74,2.18-1.22,1.84-1.03,4.38-2.47,7.12-4.16,2.75-1.68,5.18-3.28,6.93-4.46,.82-.55,1.51-1.01,2.08-1.39,.49-.32,.78-.49,.79-.47,.02,.02-.23,.24-.7,.6-.46,.37-1.15,.88-2,1.5-1.71,1.24-4.13,2.89-6.88,4.57-2.75,1.69-5.32,3.09-7.2,4.06-.94,.48-1.71,.86-2.25,1.11-.54,.25-.84,.37-.85,.35Z"/><path class="j" d="M18.23,274.19s.29,.1,.77,.36c.48,.26,1.17,.64,2.02,1.12,1.7,.96,4.03,2.32,6.59,3.84,2.56,1.52,4.87,2.92,6.52,3.95,.83,.52,1.5,.94,1.95,1.24,.46,.3,.7,.48,.69,.5-.02,.03-.29-.1-.77-.36-.48-.26-1.17-.64-2.02-1.12-1.7-.96-4.03-2.32-6.59-3.84-2.56-1.52-4.86-2.92-6.52-3.95-.83-.52-1.5-.94-1.95-1.24-.46-.3-.7-.48-.69-.5Z"/><path class="j" d="M14.57,302.7s.36,.14,.98,.47l2.59,1.43c2.18,1.22,5.18,2.94,8.48,4.86,3.3,1.92,6.27,3.68,8.42,4.97,1.01,.62,1.86,1.14,2.53,1.55,.59,.37,.91,.59,.9,.62-.01,.03-.36-.14-.98-.47-.69-.38-1.56-.86-2.59-1.43-2.18-1.22-5.18-2.94-8.48-4.86-3.3-1.92-6.27-3.68-8.42-4.97-1.01-.62-1.86-1.14-2.53-1.55-.59-.37-.91-.59-.9-.62Z"/><path class="j" d="M37.98,316.11s.33-.26,.97-.65c.71-.43,1.62-.99,2.71-1.65,2.29-1.39,5.44-3.33,8.86-5.56,3.43-2.23,6.47-4.32,8.67-5.85,1.05-.73,1.92-1.34,2.61-1.81,.62-.42,.97-.65,.99-.62,.02,.02-.3,.29-.89,.76-.59,.47-1.45,1.13-2.53,1.92-2.15,1.6-5.18,3.73-8.61,5.97-3.43,2.24-6.61,4.13-8.94,5.46-1.17,.66-2.12,1.19-2.78,1.53-.66,.35-1.04,.53-1.05,.5Z"/></g><g><polygon class="j" points="54.74 335.35 23.9 335.35 33.96 411.55 44.67 411.55 54.74 335.35"/><path class="h" d="M25.5,344.72s.03,.11,.16,.27c.13,.16,.37,.37,.74,.53,.73,.32,2.02,.34,3.26-.4,1.25-.69,2.33-2.04,4-2.63,1.66-.63,3.71-.52,5.67,.11,1.99,.62,3.72,1.62,5.28,2.56,1.57,.93,3.01,1.77,4.29,2.3,1.28,.56,2.4,.82,3.17,.92,.39,.05,.69,.07,.89,.06,.21,0,.31,0,.31-.03,.02-.1-1.75-.09-4.23-1.28-1.25-.57-2.64-1.42-4.2-2.38-1.55-.96-3.32-2.01-5.37-2.64-2.03-.65-4.21-.77-5.99-.07-.89,.34-1.63,.87-2.25,1.39-.63,.52-1.19,1.01-1.77,1.37-1.13,.73-2.31,.76-3,.52-.71-.25-.94-.66-.98-.62Z"/><path class="h" d="M26.62,358.75s.24-.31,.73-.82c.49-.49,1.29-1.13,2.46-1.56,1.16-.44,2.64-.71,4.29-.65,1.65,.06,3.45,.42,5.37,.73,1.91,.32,3.8,.46,5.5,.23,1.69-.22,3.16-.7,4.32-1.23,1.17-.53,2.03-1.12,2.6-1.55,.57-.43,.84-.72,.82-.74-.06-.08-1.25,.98-3.57,1.96-1.16,.48-2.59,.92-4.24,1.1-1.64,.2-3.46,.05-5.36-.26-1.9-.31-3.73-.66-5.43-.7-1.71-.04-3.25,.27-4.44,.78-1.2,.49-2.01,1.21-2.47,1.76-.22,.28-.38,.51-.47,.68-.09,.17-.13,.26-.11,.27Z"/><path class="h" d="M51.25,366.27s-.27-.22-.85-.44c-.57-.23-1.45-.46-2.56-.55-1.1-.09-2.43-.02-3.86,.22-1.44,.23-2.98,.63-4.6,.97-1.62,.34-3.18,.57-4.59,.52-1.41-.05-2.67-.36-3.65-.79-1.98-.87-2.69-2.14-2.77-2.06-.02,.01,.12,.33,.52,.81,.4,.47,1.09,1.08,2.09,1.58,1,.49,2.3,.85,3.78,.93,1.47,.08,3.08-.14,4.72-.49,1.64-.35,3.17-.76,4.57-1.01,1.41-.26,2.69-.36,3.77-.32,2.16,.07,3.39,.73,3.43,.63Z"/><path class="h" d="M29.35,376.83c.01,.08,1.1-.69,2.99-.3,.93,.17,1.97,.64,3.13,1.17,1.16,.54,2.56,1.01,4.07,1.12,3.03,.29,5.72-.69,7.38-1.71,.85-.5,1.44-1.04,1.84-1.41,.38-.4,.57-.63,.54-.65-.07-.07-.88,.84-2.56,1.76-1.65,.91-4.25,1.8-7.15,1.52-2.92-.17-5.16-1.91-7.19-2.14-.99-.15-1.81,0-2.33,.2-.52,.2-.74,.43-.73,.45Z"/><path class="h" d="M31.07,391.46c0,.06,1.03,.05,2.57-.51,1.55-.52,3.47-1.71,5.71-2.6,1.12-.43,2.25-.69,3.28-.69,1.03,0,1.94,.26,2.64,.6,1.42,.71,1.83,1.71,1.91,1.64,.02,0-.04-.26-.29-.65-.25-.39-.72-.89-1.45-1.31-.72-.41-1.69-.72-2.8-.75-1.11-.03-2.3,.24-3.46,.68-2.32,.93-4.18,2.15-5.66,2.74-1.46,.63-2.45,.76-2.44,.84Z"/><path class="h" d="M32.58,398.26c-.02,.06,.72,.33,1.95,.63,1.23,.31,2.95,.63,4.88,.82,1.93,.19,3.68,.2,4.95,.14,1.27-.06,2.04-.18,2.04-.24,0-.15-3.13-.02-6.94-.4-3.81-.37-6.85-1.1-6.88-.96Z"/></g></g><g><g><path class="h" d="M657.6,20.39L600.83,0l-56.22,20.11c-7.18,3.39-13.47,5.42-13.47,12.11v33.29c0,23.12,6.06,46.03,18.52,66.26,10.49,17.02,26.73,34.55,51.73,45.69,22.98-7.47,40.14-27.37,50.62-44.39,12.46-20.23,18.52-43.14,18.52-66.26v-29.94c0-9.54-5.05-14.19-12.92-16.48Z"/><path class="p" d="M601.38,158.13c-19.78-8.81-32.63-22.97-40.93-36.44-9.86-16-14.65-34.13-14.65-52.42v-23.35c0-5.29,3.19-10.24,9.53-13.2l45.51-17.02V0l-56.23,20.11c-5.9,2.58-13.47,5.42-13.47,12.11v33.29c0,23.12,6.06,46.03,18.52,66.26,10.49,17.02,26.73,34.55,51.73,45.69v-19.32Z"/><path class="j" d="M601.38,177.46c3.98-1.33,7.64-2.87,11.15-4.78,9.43-5.13,17.47-12.19,23.6-18.57,6.86-7.14,11.98-14.85,16.42-22.06,12.46-20.23,18.52-43.14,17.97-66.89l.03-27.49c-.03-13.69-7.05-14.7-12.96-17.27L600.83,0V15.7l46.05,17.29c6.34,2.96,9.53,7.91,9.53,13.2v23.35c0,18.29-4.79,36.42-14.65,52.42-8.3,13.47-20.59,27.35-40.37,36.17v19.32Z"/></g><path class="j" d="M615.89,67.78l.06-4.49c0-8.13-6.61-14.74-14.74-14.74s-14.74,6.61-14.74,14.72l-.06,4.58c-3.98,.59-7.03,4.01-7.03,8.15v26.5c0,4.56,3.69,8.25,8.25,8.25h27.51c4.56,0,8.25-3.69,8.25-8.25v-26.5c0-4.3-3.29-7.83-7.5-8.21Zm-10.75,28.12h-7.2l1.12-5.2c-1.25-.77-2.08-2.15-2.08-3.73,0-2.42,1.96-4.39,4.39-4.39s4.39,1.96,4.39,4.39c0,1.52-.77,2.86-1.94,3.64,.51,2.01,1.32,5.28,1.32,5.28Zm7.57-28.15h-23.13l.06-4.46c0-6.38,5.19-11.56,11.56-11.56s11.56,5.19,11.56,11.54l-.06,4.48Z"/><path class="d" d="M555,67.45c-.13,.02-.52-1.73-.85-4.61-.34-2.87-.59-6.88-.46-11.3,.06-2.21,.21-4.31,.41-6.22,.18-1.9,.53-3.69,1.27-5.02,.72-1.34,1.73-2.14,2.49-2.5,.77-.36,1.25-.34,1.26-.29,.1,.12-1.92,.52-3.12,3.1-.59,1.25-.85,2.91-.98,4.79-.15,1.89-.27,3.98-.33,6.16-.13,4.38,0,8.34,.17,11.21,.15,2.87,.3,4.65,.15,4.67Z"/><path class="d" d="M555.83,81.94c-.27,0-.52-1.36-.56-3.06-.03-1.69,.16-3.07,.44-3.08,.27,0,.52,1.36,.56,3.06,.03,1.69-.16,3.07-.44,3.07Z"/></g><path class="q" d="M683.04,411.62c0,.14-152.64,.26-340.89,.26s-340.93-.12-340.93-.26,152.61-.26,340.93-.26,340.89,.12,340.89,.26Z"/><g><g><g><g><g><path class="i" d="M561.37,28.26H127.45c-7.48,0-13.54,6.06-13.54,13.54V348.3c0,7.48,6.06,13.55,13.54,13.55h166.54s10.59,32.76-22.25,49.71h155.72s-37.08-12.71-27.54-49.71h161.46c7.48,0,13.54-6.06,13.54-13.54V41.8c0-7.48-6.06-13.55-13.55-13.55Z"/><path class="q" d="M350.2,329.61c5.9,8.44-3.34,17.67-11.77,11.77-.28-.2-.53-.45-.73-.73-5.89-8.43,3.34-17.66,11.77-11.77,.28,.19,.53,.45,.73,.73Z"/></g><path class="d" d="M131.07,33.87h426.68c5.35,0,9.7,4.35,9.7,9.7V305.77H121.37V43.57c0-5.35,4.35-9.7,9.7-9.7Z"/></g><path class="p" d="M130.53,33.87h429.41c4.15,0,7.52,3.37,7.52,7.52v15.08H121.37v-13.44c0-5.05,4.1-9.15,9.15-9.15Z"/><g><circle class="j" cx="135.58" cy="45.64" r="3.13"/><circle class="j" cx="144.92" cy="45.64" r="3.13"/><circle class="j" cx="153.8" cy="45.64" r="3.13"/></g></g><path class="q" d="M483.8,361.89c0,.14-61.75,.26-137.9,.26s-137.91-.12-137.91-.26,61.74-.26,137.91-.26,137.9,.12,137.9,.26Z"/></g><g><g><path class="o" d="M413.31,94.73l-68.02-25.05-67.35,24.72c-8.6,4.17-16.14,6.66-16.14,14.88v40.91c0,28.41,7.26,56.56,22.19,81.41,12.56,20.91,32.02,42.45,61.97,56.14,27.53-9.17,48.08-33.63,60.65-54.54,14.93-24.85,22.19-53.01,22.19-81.41v-36.79c0-11.72-6.05-17.44-15.48-20.26Z"/><g class="k"><path class="d" d="M413.31,94.73l-68.02-25.05-67.35,24.72c-8.6,4.17-16.14,6.66-16.14,14.88v40.91c0,28.41,7.26,56.56,22.19,81.41,12.56,20.91,32.02,42.45,61.97,56.14,27.53-9.17,48.08-33.63,60.65-54.54,14.93-24.85,22.19-53.01,22.19-81.41v-36.79c0-11.72-6.05-17.44-15.48-20.26Z"/></g></g><g><g><path class="o" d="M386.83,198.29h-12.5v-68.02c0-16.01-13.03-29.04-29.04-29.04s-29.04,13.03-29.04,29.04v68.02h-12.5v-68.02c0-22.9,18.63-41.53,41.53-41.53s41.53,18.63,41.53,41.53v68.02Z"/><g class="m"><path d="M386.83,198.29h-12.5v-68.02c0-16.01-13.03-29.04-29.04-29.04s-29.04,13.03-29.04,29.04v68.02h-12.5v-68.02c0-22.9,18.63-41.53,41.53-41.53s41.53,18.63,41.53,41.53v68.02Z"/></g><rect class="o" x="289.32" y="168.03" width="111.95" height="71.82" rx="5.81" ry="5.81"/><g class="f"><path d="M354.65,194.58c0-5.17-4.19-9.36-9.36-9.36s-9.36,4.19-9.36,9.36c0,4.28,2.89,7.84,6.8,8.96v13.99h5.11v-13.99c3.92-1.12,6.8-4.68,6.8-8.96Z"/></g></g><path class="e" d="M295.29,233.04c-.26,0-.46-11.98-.46-26.75s.21-26.75,.46-26.75,.46,11.98,.46,26.75-.21,26.75-.46,26.75Z"/><path class="e" d="M337.97,206.58s-.44-.15-1.1-.62c-.66-.47-1.54-1.28-2.41-2.46-1.75-2.29-3.34-6.45-2.3-10.94,1.09-4.48,4.38-7.48,6.96-8.74,1.31-.66,2.46-.99,3.26-1.12,.8-.13,1.25-.12,1.26-.06,.04,.18-1.77,.35-4.2,1.76-2.39,1.35-5.37,4.24-6.38,8.38-.96,4.14,.41,8.07,1.94,10.35,1.54,2.35,3.08,3.31,2.97,3.45Z"/></g><path class="o" d="M429.38,271.86s.27-.38,.81-1.09c.14-.18,.29-.38,.46-.6,.15-.23,.29-.5,.46-.79,.33-.58,.74-1.23,1.03-2.06,.16-.41,.35-.83,.51-1.29,.13-.47,.27-.96,.41-1.48,.17-.51,.25-1.07,.34-1.65,.08-.58,.23-1.18,.25-1.82,.27-2.54,.11-5.5-.4-8.77-1.01-6.56-3.8-14.29-8.06-22.69-4.25-8.42-10.11-17.47-17.3-26.9-7.2-9.44-15.85-19.19-25.8-28.98-9.96-9.78-21.23-19.6-33.87-28.91-6.32-4.65-12.99-9.15-20.02-13.4-7.02-4.25-14.43-8.22-22.24-11.66-7.81-3.4-16.05-6.35-24.74-7.76-4.33-.67-8.8-.99-13.19-.32-2.19,.34-4.35,.93-6.37,1.85-2,.97-3.83,2.27-5.35,3.91-1.46,1.69-2.54,3.66-3.29,5.76-.67,2.12-1.03,4.33-1.11,6.54-.17,4.44,.66,8.85,1.82,13.08,2.38,8.48,6.26,16.33,10.52,23.71,4.31,7.37,9.09,14.28,14.12,20.77,5.02,6.5,10.26,12.62,15.59,18.37,10.69,11.5,21.73,21.58,32.58,30.36,10.86,8.77,21.53,16.26,31.73,22.33,10.19,6.07,19.85,10.86,28.7,14.13,8.83,3.28,16.82,5.16,23.45,5.42,3.31,.13,6.27-.04,8.76-.6,.63-.09,1.21-.32,1.78-.46,.57-.15,1.11-.3,1.6-.53,.5-.2,.97-.39,1.43-.57,.44-.21,.83-.45,1.22-.66,.79-.38,1.39-.86,1.92-1.25,.26-.2,.52-.37,.73-.55l.54-.52c.65-.62,.99-.93,.99-.93,0,0-.32,.33-.95,.97-.16,.16-.34,.34-.54,.53-.21,.18-.46,.36-.73,.56-.53,.4-1.13,.89-1.92,1.28-.38,.21-.78,.45-1.22,.67-.45,.19-.93,.38-1.43,.59-.49,.23-1.04,.38-1.61,.54-.57,.15-1.15,.38-1.79,.47-2.5,.58-5.48,.77-8.8,.65-6.66-.23-14.69-2.09-23.55-5.35-8.88-3.25-18.56-8.02-28.78-14.08-10.22-6.07-20.92-13.55-31.81-22.31-10.87-8.78-21.94-18.86-32.66-30.37-5.35-5.76-10.6-11.88-15.63-18.39-5.04-6.5-9.84-13.43-14.16-20.82-4.28-7.4-8.18-15.28-10.58-23.83-1.16-4.26-2.01-8.71-1.84-13.23,.08-2.26,.45-4.51,1.14-6.69,.76-2.15,1.89-4.19,3.39-5.94,1.57-1.7,3.47-3.04,5.52-4.04,2.08-.94,4.29-1.55,6.52-1.89,4.47-.68,8.99-.35,13.35,.33,8.76,1.42,17.03,4.39,24.87,7.8,7.83,3.45,15.25,7.43,22.29,11.7,7.04,4.26,13.72,8.78,20.05,13.44,12.65,9.33,23.93,19.18,33.89,28.99,9.95,9.82,18.6,19.59,25.79,29.06,7.19,9.46,13.03,18.55,17.27,27,4.24,8.43,7.01,16.19,8,22.79,.49,3.29,.65,6.27,.36,8.82-.02,.64-.19,1.24-.27,1.83-.09,.58-.18,1.14-.36,1.66-.15,.52-.29,1.02-.42,1.49-.17,.46-.36,.88-.53,1.29-.3,.83-.72,1.48-1.06,2.06-.17,.28-.31,.56-.47,.79l-.47,.59c-.56,.7-.85,1.06-.85,1.06Z"/><path class="o" d="M461.39,194.59s-.05-.46-.12-1.35c-.02-.22-.04-.47-.06-.75-.04-.27-.12-.57-.18-.89-.14-.65-.27-1.41-.6-2.22-.15-.41-.29-.85-.47-1.3-.22-.44-.44-.9-.68-1.38-.22-.49-.52-.97-.84-1.46-.33-.49-.61-1.04-1.02-1.53-1.49-2.08-3.58-4.18-6.14-6.28-5.12-4.22-12.34-8.14-21.11-11.57-8.78-3.45-19.17-6.31-30.82-8.56-11.65-2.25-24.6-3.77-38.54-4.45-13.94-.67-28.89-.49-44.52,.97-7.81,.74-15.79,1.82-23.86,3.33-8.07,1.5-16.24,3.47-24.36,6.1-8.09,2.67-16.21,5.94-23.63,10.68-3.68,2.38-7.23,5.12-10.06,8.54-1.41,1.71-2.62,3.59-3.53,5.62-.84,2.06-1.35,4.25-1.39,6.48,.04,2.23,.54,4.43,1.38,6.48,.91,2.03,2.11,3.91,3.53,5.62,2.83,3.43,6.38,6.16,10.06,8.55,7.42,4.74,15.54,8.02,23.63,10.69,8.12,2.63,16.29,4.6,24.36,6.1,8.07,1.51,16.05,2.59,23.86,3.33,15.63,1.47,30.58,1.64,44.52,.97,13.94-.68,26.89-2.2,38.54-4.45,11.65-2.25,22.04-5.11,30.82-8.56,8.77-3.43,15.99-7.35,21.11-11.57,2.56-2.1,4.65-4.2,6.14-6.28,.41-.49,.69-1.04,1.02-1.53,.32-.49,.63-.97,.84-1.46,.24-.48,.47-.94,.68-1.38,.18-.45,.32-.89,.47-1.3,.33-.81,.46-1.57,.6-2.22,.07-.32,.14-.62,.18-.89,.02-.28,.04-.53,.06-.75,.07-.89,.12-1.35,.12-1.35,0,0-.01,.46-.07,1.35-.01,.23-.03,.48-.05,.75-.03,.28-.11,.57-.17,.9-.13,.65-.25,1.42-.58,2.24-.15,.41-.28,.86-.46,1.31-.21,.44-.44,.91-.67,1.39-.22,.5-.52,.98-.84,1.48-.33,.49-.61,1.05-1.02,1.54-1.48,2.1-3.58,4.22-6.13,6.34-5.13,4.26-12.35,8.22-21.13,11.68-8.79,3.48-19.19,6.37-30.85,8.65-11.67,2.28-24.63,3.82-38.59,4.52-13.96,.69-28.93,.53-44.59-.92-7.83-.74-15.82-1.81-23.91-3.32-8.09-1.5-16.28-3.47-24.43-6.11-8.12-2.67-16.27-5.96-23.75-10.74-3.71-2.41-7.3-5.17-10.18-8.65-1.44-1.74-2.67-3.67-3.6-5.75-.86-2.11-1.38-4.38-1.42-6.69,.04-2.31,.56-4.57,1.43-6.68,.93-2.09,2.17-4.01,3.61-5.75,2.89-3.48,6.48-6.24,10.18-8.64,7.48-4.78,15.63-8.06,23.75-10.73,8.14-2.64,16.33-4.61,24.42-6.11,8.09-1.51,16.08-2.58,23.91-3.32,15.65-1.45,30.63-1.61,44.58-.92,13.96,.7,26.92,2.24,38.59,4.52,11.66,2.28,22.07,5.17,30.86,8.65,8.78,3.47,16.01,7.42,21.13,11.68,2.56,2.12,4.65,4.25,6.14,6.34,.41,.49,.69,1.05,1.02,1.54,.32,.5,.62,.98,.84,1.48,.24,.49,.46,.95,.67,1.39,.18,.45,.32,.9,.46,1.31,.33,.82,.45,1.58,.58,2.24,.06,.33,.14,.62,.17,.9,.02,.28,.03,.53,.05,.75,.05,.9,.07,1.35,.07,1.35Z"/><path class="o" d="M418.98,98.4s-.39-.24-1.14-.73l-.63-.41c-.24-.14-.52-.26-.82-.4-.6-.29-1.28-.65-2.12-.88-.42-.13-.85-.29-1.32-.42-.48-.1-.98-.2-1.51-.31-.52-.13-1.08-.18-1.67-.23-.59-.03-1.19-.15-1.83-.13-2.55-.1-5.5,.27-8.72,1-6.48,1.46-13.99,4.77-22.08,9.6-8.1,4.82-16.73,11.29-25.65,19.11-8.92,7.83-18.05,17.13-27.13,27.73-9.07,10.61-18.09,22.53-26.51,35.78-4.2,6.63-8.24,13.59-11.99,20.9-3.76,7.3-7.21,14.96-10.1,22.99-2.85,8.03-5.23,16.45-6.03,25.22-.37,4.37-.38,8.85,.58,13.19,.49,2.16,1.23,4.27,2.28,6.23,1.11,1.92,2.53,3.67,4.27,5.07,1.79,1.34,3.83,2.29,5.97,2.88,2.16,.52,4.39,.73,6.61,.66,4.44-.14,8.78-1.27,12.92-2.71,8.29-2.96,15.86-7.37,22.93-12.13,7.06-4.8,13.62-10.05,19.75-15.51,6.14-5.45,11.88-11.1,17.25-16.82,10.73-11.45,20.03-23.17,28.04-34.59,8-11.44,14.73-22.6,20.09-33.19,5.36-10.59,9.47-20.55,12.12-29.6,2.66-9.03,3.99-17.14,3.79-23.77-.1-3.31-.47-6.25-1.2-8.7-.13-.62-.4-1.18-.58-1.74-.19-.56-.38-1.09-.64-1.56-.23-.48-.46-.95-.67-1.38-.24-.42-.51-.8-.74-1.17-.44-.76-.96-1.33-1.38-1.83-.22-.25-.4-.49-.6-.69-.21-.19-.39-.35-.56-.51-.66-.6-.99-.92-.99-.92,0,0,.35,.29,1.03,.88,.17,.15,.36,.31,.57,.5,.2,.2,.39,.44,.61,.69,.43,.5,.97,1.07,1.41,1.83,.24,.37,.51,.75,.75,1.17,.22,.44,.45,.9,.69,1.39,.26,.48,.46,1.01,.65,1.57,.19,.56,.45,1.12,.59,1.75,.75,2.46,1.14,5.41,1.26,8.73,.23,6.66-1.08,14.8-3.71,23.86-2.63,9.08-6.72,19.07-12.07,29.69-5.35,10.62-12.07,21.81-20.07,33.27-8.01,11.45-17.31,23.19-28.05,34.67-5.38,5.73-11.12,11.39-17.27,16.86-6.14,5.48-12.72,10.74-19.79,15.56-7.09,4.78-14.68,9.21-23.04,12.19-4.17,1.46-8.55,2.6-13.08,2.75-2.26,.07-4.53-.14-6.75-.68-2.2-.61-4.31-1.59-6.16-2.98-1.8-1.45-3.27-3.25-4.41-5.23-1.08-2.01-1.84-4.17-2.33-6.37-.98-4.42-.96-8.94-.59-13.34,.81-8.84,3.21-17.29,6.07-25.34,2.9-8.05,6.36-15.73,10.14-23.04,3.76-7.32,7.81-14.29,12.02-20.93,8.44-13.26,17.49-25.19,26.58-35.8,9.11-10.6,18.27-19.9,27.22-27.73,8.95-7.82,17.61-14.28,25.74-19.09,8.12-4.82,15.67-8.11,22.18-9.55,3.25-.72,6.21-1.08,8.77-.96,.64-.02,1.25,.1,1.84,.14,.59,.05,1.15,.11,1.68,.24,.53,.11,1.03,.22,1.51,.32,.47,.14,.91,.3,1.32,.44,.85,.24,1.53,.62,2.12,.91,.3,.15,.58,.28,.82,.42l.62,.43c.74,.51,1.11,.78,1.11,.78Z"/><path class="o" d="M227.93,242.51c1.68,1.68,1.68,4.41,0,6.1-1.68,1.68-4.41,1.68-6.1,0-1.68-1.68-1.68-4.41,0-6.1,1.68-1.68,4.41-1.68,6.1,0Z"/><path class="o" d="M471.2,108.9c0,2.38-1.93,4.31-4.31,4.31s-4.31-1.93-4.31-4.31,1.93-4.31,4.31-4.31,4.31,1.93,4.31,4.31Z"/><path class="o" d="M255.16,256.68c0,.61-.49,1.1-1.1,1.1s-1.1-.49-1.1-1.1,.49-1.1,1.1-1.1,1.1,.49,1.1,1.1Z"/><path class="o" d="M278.55,135.86c0,.61-.49,1.1-1.1,1.1s-1.1-.49-1.1-1.1,.49-1.1,1.1-1.1,1.1,.49,1.1,1.1Z"/><path class="o" d="M449.54,194.59c0,.61-.49,1.1-1.1,1.1s-1.1-.49-1.1-1.1,.49-1.1,1.1-1.1,1.1,.49,1.1,1.1Z"/><path class="o" d="M464.77,143.51c0,.61-.49,1.1-1.1,1.1s-1.1-.49-1.1-1.1,.49-1.1,1.1-1.1,1.1,.49,1.1,1.1Z"/></g></g><g><g><path class="o" d="M640.94,307.11c4.81-3.02,10.31-4.91,15.96-5.49,2.61-.27,5.46-.19,7.55,1.39,.44,.34,.88,.83,.78,1.38-.07,.4-.41,.69-.74,.94-6.49,4.95-16.31,5.58-23.54,1.78"/><path class="o" d="M641.35,306.66c3.61-2.82,7.25-5.66,10.31-9.07s5.55-7.46,6.46-11.95c.28-1.36,.36-2.92-.51-4-8.22,6.42-14.67,14.71-16.26,25.02"/><path class="o" d="M641.02,307.05c.62-4.49,.84-9.11-.19-13.53-1.03-4.42-3.44-8.65-7.21-11.17-1.42,3.32-.81,7.14,.19,10.61,1.55,5.36,3.97,10.46,7.15,15.05"/><path class="o" d="M632.97,321.48c4.89,.59,9.15,3.17,12.8,6.48,3.65,3.31,6.25,7.76,7.32,12.57-4.8-.3-8.86-3.68-11.81-7.47-2.95-3.79-4.99-7.95-8.24-11.5"/><path class="o" d="M631.22,323.78c3.94-9.7,2.51-21.39-3.64-29.85-2.79,9.91-1.76,21.1,3.64,29.85"/><path class="o" d="M620.58,336.45c4.44-.28,8.95,.78,12.8,3,3.85,2.22,7.03,5.59,9.02,9.56,.27,.54,.51,1.23,.15,1.71-.31,.42-.92,.46-1.45,.43-4.3-.28-8.11-2.87-11.26-5.81-3.15-2.95-5.89-6.35-9.36-8.9"/><path class="o" d="M620.92,335.76c2.29-7.32,2.43-15.3,.41-22.7-.8-2.92-2.14-6-4.84-7.37-.23-.12-.5-.22-.74-.13-.23,.09-.36,.32-.47,.54-.96,2.01-1.24,4.29-1.14,6.51s.56,4.41,1.02,6.59c.85,4.03,1.3,8.36,3.51,11.84,.52,.82,.99,1.72,1.41,2.6,.42,.88,.42,1.19,.8,1.9"/><path class="o" d="M592.75,339.96c2.09-7.94-.13-17.56-5.13-24.07-.37-.48-.86-.99-1.46-.94-.92,.09-1.16,1.31-1.12,2.24,.36,8.11,3.07,16.11,7.71,22.77"/><path class="o" d="M590.21,341.7c-9.64,2.51-20.71,.07-28.73-5.84,4.75-2.41,10.36-3.1,15.55-1.91,5.2,1.19,9.94,3.52,13.18,7.75"/><path class="o" d="M588.07,336.41c-5.4-8.81-15.76-14.55-26.07-15.08,1.19,4.2,4.64,7.46,8.53,9.43,3.89,1.97,8.23,2.83,12.52,3.66,1.67,.32,3.95,.68,5.03,1.99"/><path class="o" d="M592.22,310.76c-1.46-5.01-2.93-10.07-3.33-15.27-.4-5.2,.34-10.64,3.04-15.1,5.05,9.76,5.56,21.17,.44,30.9"/><path class="o" d="M575.23,302.18c-5.9-10.72-17.94-19.29-30.12-20.49,4.7,11.7,17.51,20.74,30.12,20.49"/><path class="o" d="M578.94,304.28c-8.8,1.34-16.3,6.96-24.52,10.37-1.76,.73-3.66,1.31-5.54,1.06-1.89-.25-3.75-1.51-4.17-3.37-.35-1.54,.35-3.18,1.46-4.31,1.11-1.13,2.57-1.83,4.03-2.44,8.96-3.73,18.56-3.82,28-1.56"/><path class="o" d="M584.03,310.45c-1.99,.57-2.67,1.6-4.25,2.95-5.35,4.56-11.77,7.86-18.59,9.55-.71,.18-1.64,.25-1.99-.4-.31-.56,.08-1.24,.48-1.74,2.86-3.58,6.94-6.02,11.23-7.62,4.29-1.6,8.01-3.52,13.13-3.11"/><path class="o" d="M589.78,273.18c-7.16,6.68-17.23,10.11-26.98,9.18-.44-.04-.93-.11-1.23-.44-.68-.74,.14-1.88,.93-2.5,7.93-6.18,17.54-8.75,27.28-6.24"/><path class="o" d="M582.97,270.68c-9.46-7.09-22.43-9.23-33.66-5.55,4.24,4.18,10.12,6.43,16.04,7.04,5.92,.62,11.85-.04,17.62-1.49"/><path class="o" d="M585.68,253.56c.78-7.92,.27-14.17,.82-22.12,.04-.64,.18-1.4,.77-1.63,.83-.32,1.52,.7,1.79,1.54,2.36,7.33,1.07,15.74-3.38,22.03"/><path class="o" d="M586.25,254.43c-5.37-3.32-9.39-7.65-13.11-12.75-2.59-3.54-4.77-7.79-4.19-12.14,3.64-.07,7.09,1.93,9.46,4.7,2.37,2.76,3.77,6.22,4.82,9.7,1.05,3.48,1.79,7.06,3.02,10.49"/><path class="o" d="M573.36,250.85c-11.78-4.35-22.76-10.83-32.27-19.03,3.86-1.55,8.27-.62,12.12,.93,8.81,3.55,16,9.55,20.32,18.01"/><path class="o" d="M582.62,258.76c-5.96,.65-12.01,1.08-17.92,.09-5.81-.97-11.3-3.27-16.73-5.56-.45-.19-.94-.42-1.14-.86-.21-.49,.01-1.08,.41-1.43,.39-.36,.92-.53,1.43-.67,5.9-1.65,12.27-.88,18.08,1.08,5.81,1.96,10.57,4.28,15.87,7.35"/><path class="o" d="M616.64,273.45c4.06-8.2,3.8-17.78,.29-26.24-2.47,3.77-2.77,8.56-2.32,13.04,.45,4.48,1.82,9.09,1.9,13.6"/><path class="o" d="M632.88,265.26c10.15-.19,20.3,4.13,27.19,11.58-5.07,.8-10.28-.51-14.89-2.76-4.61-2.25-8.7-5.41-12.76-8.54"/><path class="o" d="M643.79,261.61c4.96-.4,9.74-1.02,14.51,.45,4.77,1.46,9.12,4.78,11.06,9.38-4.64,.52-9.35-.64-13.61-2.57-4.26-1.93-8.13-4.6-11.97-7.26"/><path class="o" d="M627.63,261.78c4.47-2.93,9.05-5.91,14.25-7.12,5.2-1.21,11.23-.32,14.85,3.6-4.21,2.47-9.32,2.76-14.2,2.76s-10.86-.06-15.47,1.57"/><path class="o" d="M627.6,262.01c7.64-7.5,10.53-20.97,7.46-31.22-6,9.12-8.69,20.37-7.46,31.22"/><path class="o" d="M606.61,240.77c-1.44-3.35-2.45-6.86-3.74-10.27-1.29-3.41-2.9-6.76-5.34-9.47-2.44-2.71-5.82-4.72-9.46-4.9,2.28,10.32,9.13,19.53,18.35,24.69"/><path class="o" d="M610.41,245.19c2.38-3.28,5.14-7.73,8.37-10.18s7.44-3.93,11.38-2.99c-4.01,7.17-11.59,12.22-19.75,13.17"/><path class="o" d="M609.65,241.04c1.56-3.97,3.13-7.98,3.77-12.2,.63-4.22,.25-8.72-1.91-12.4-4.19,7.92-5.54,16.43-2.07,24.69"/><path class="o" d="M606.57,216.44c-2.37-7.85-9.57-13.64-17.33-16.29-.98-.33-2.02-.61-3.04-.46s-2.02,.86-2.24,1.87c-.28,1.34,.82,2.53,1.86,3.42,6.05,5.17,13.15,9.09,20.75,11.46"/><path class="o" d="M606.49,210.02c-.3-5.06-.62-10.2-2.26-15-1.65-4.8-4.82-9.3-9.44-11.4-.79,5.11,1.47,10.2,4.19,14.6,2.72,4.4,6,8.56,7.64,13.46"/><path class="o" d="M606.61,213.5c1.96-5.72,2.16-12.99,5.59-17.98,2.4-3.49,6.23-5.86,8.3-9.55,1.37,3.45,.95,7.42-.48,10.84-1.43,3.42-3.8,6.37-6.34,9.08s-4.71,4.75-7.07,7.61"/><path class="o" d="M606.57,382.06c.15,0,.28-38.18,.3-85.27,.01-47.11-.1-85.28-.26-85.28s-.28,38.18-.3,85.28c-.01,47.09,.1,85.27,.26,85.27Z"/><path class="o" d="M573.2,267.69s.5,.23,1.44,.54c1.03,.35,2.36,.8,3.95,1.33,3.33,1.13,7.91,2.78,12.87,4.81,4.92,2.11,9.56,3.82,12.2,6.11,1.32,1.13,2.08,2.35,2.45,3.24,.38,.9,.45,1.45,.5,1.44,.02,0,.01-.14-.02-.4-.04-.26-.11-.64-.28-1.11-.32-.94-1.06-2.25-2.39-3.46-1.33-1.21-3.18-2.3-5.29-3.29-2.12-.99-4.46-2.02-6.95-3.04-4.98-2.04-9.59-3.63-12.96-4.67-1.68-.53-3.06-.91-4.01-1.17-.95-.25-1.49-.37-1.5-.33Z"/><path class="o" d="M562.27,240.82s.13,.16,.4,.43c.33,.31,.73,.69,1.23,1.15,1.14,1.03,2.69,2.44,4.57,4.16,3.95,3.52,9.31,8.29,15.22,13.56,5.94,5.29,11.08,10.34,14.64,14.15,1.78,1.9,3.19,3.47,4.14,4.57,.45,.51,.81,.93,1.11,1.26,.26,.29,.4,.43,.41,.42,.01-.01-.1-.18-.33-.49-.23-.31-.57-.76-1.03-1.33-.91-1.14-2.27-2.76-4.02-4.7-3.5-3.88-8.6-9-14.56-14.3-5.96-5.28-11.39-10.02-15.33-13.44-1.94-1.66-3.52-3.02-4.69-4.02-.52-.43-.95-.79-1.29-1.07-.3-.24-.46-.36-.48-.35Z"/><path class="o" d="M590.11,265.49c.16-.07-1.09-2.94-2.32-6.56-1.25-3.62-1.84-6.68-1.99-6.66-.14,.01,.21,3.16,1.47,6.83,.62,1.83,1.31,3.44,1.85,4.59,.54,1.14,.93,1.83,1,1.8Z"/><path class="o" d="M606.54,288.6s.36-.36,.92-1.06c.62-.8,1.41-1.81,2.35-3.01,1.97-2.55,4.69-6.06,7.75-9.91,3.06-3.85,5.86-7.3,7.9-9.8,.96-1.19,1.76-2.18,2.4-2.97,.56-.71,.86-1.11,.83-1.13-.03-.02-.38,.33-.99,.99-.61,.66-1.48,1.64-2.53,2.86-2.11,2.44-4.97,5.85-8.03,9.71-3.06,3.85-5.74,7.41-7.63,10.02-.95,1.3-1.7,2.37-2.21,3.12-.51,.75-.77,1.17-.74,1.19Z"/><path class="o" d="M613.85,279.21c.09,.1,2.04-2.22,3.07-5.74,.75-2.48,.79-4.75,.69-5.79l-.24,.02c.11,.44,.19,.68,.23,.67,.04,0,.05-.25,0-.71l-.24,.02c-.09,1.03-.25,3.22-.98,5.63-.99,3.41-2.68,5.8-2.54,5.9Z"/><path class="o" d="M623.3,267.33c.07,.08,.7-.72,2.14-1.24,1.43-.55,3.58-.67,5.94-.47,2.36,.17,4.47,.59,5.98,.97,1.51,.37,2.43,.67,2.46,.59,.03-.07-.85-.49-2.36-.97-1.5-.47-3.64-.96-6.05-1.14-2.39-.21-4.65-.02-6.13,.66-1.5,.66-2.04,1.59-1.99,1.6Z"/><path class="o" d="M625.54,264.45c.04,.09,1.25-.5,3.28-1.19,2.03-.7,4.92-1.43,8.18-1.68,3.26-.24,6.23,.04,8.34,.42,2.11,.38,3.39,.77,3.42,.68,.01-.04-.3-.17-.87-.37-.57-.21-1.42-.46-2.48-.7-2.12-.49-5.14-.84-8.46-.59-3.32,.26-6.25,1.07-8.27,1.87-1.01,.4-1.81,.77-2.34,1.06-.53,.29-.82,.46-.8,.5Z"/><path class="o" d="M606.61,252.27c.15,.04,1.22-3.68,2.39-8.31,1.17-4.63,2-8.4,1.86-8.44-.15-.04-1.22,3.68-2.39,8.31-1.17,4.62-2,8.4-1.86,8.44Z"/><path class="o" d="M606.46,252.27c.16,.05,.85-2.43,2.65-4.97,1.75-2.59,3.98-3.9,3.9-4.03-.03-.06-.65,.17-1.51,.78-.86,.6-1.93,1.62-2.85,2.93-1.87,2.64-2.33,5.28-2.2,5.29Z"/><path class="o" d="M606.57,361.71c.06,0,.17-.92,.6-2.54,.43-1.62,1.23-3.92,2.55-6.61,2.64-5.39,7.44-12.23,13.54-19.07,3.02-3.45,5.95-6.71,8.44-9.83,2.49-3.11,4.54-6.08,6.04-8.71,1.5-2.62,2.48-4.87,3.05-6.46,.28-.8,.49-1.42,.6-1.85,.12-.43,.18-.65,.16-.66-.05-.02-.33,.87-.96,2.43-.63,1.56-1.65,3.76-3.18,6.34-1.53,2.58-3.59,5.5-6.1,8.59-2.5,3.09-5.44,6.33-8.46,9.79-6.12,6.86-10.9,13.79-13.47,19.27-1.29,2.73-2.04,5.08-2.41,6.73-.18,.83-.3,1.47-.34,1.92-.05,.44-.07,.67-.06,.68Z"/><path class="o" d="M576.42,327.65s.56,.33,1.58,.89c1.01,.57,2.45,1.45,4.1,2.71,1.65,1.26,3.49,2.92,5.38,4.91,1.89,2,3.84,4.31,5.82,6.8,3.97,4.98,7.69,9.39,9.91,12.91,1.13,1.75,1.95,3.22,2.49,4.25,.54,1.03,.83,1.61,.87,1.59,.02,0-.03-.16-.15-.45-.12-.28-.28-.71-.53-1.24-.48-1.07-1.26-2.58-2.35-4.36-2.16-3.6-5.84-8.07-9.81-13.05-1.99-2.49-3.96-4.81-5.89-6.8-1.93-1.99-3.82-3.64-5.52-4.87-1.7-1.24-3.18-2.07-4.23-2.59-.52-.26-.95-.42-1.23-.55-.29-.12-.44-.17-.45-.15Z"/><path class="o" d="M575.83,338.7c0,.08,1.28,.24,3.34,.49,2.06,.27,4.92,.61,7.92,1.56,2.99,.97,5.47,2.46,7.09,3.72,1.64,1.26,2.41,2.31,2.48,2.25,.03-.02-.13-.3-.49-.77-.36-.47-.94-1.09-1.74-1.78-1.59-1.37-4.1-2.95-7.17-3.95-3.07-.97-5.98-1.25-8.05-1.42-2.08-.15-3.37-.17-3.38-.1Z"/><path class="o" d="M595.69,345.5c.17-.1-1.33-2.4-2.5-5.49-1.1-3.12-1.35-5.86-1.55-5.83-.07,0-.07,.69,.06,1.79,.13,1.1,.39,2.62,.97,4.22,.58,1.6,1.35,2.94,1.94,3.87,.6,.93,1.02,1.47,1.08,1.43Z"/><path class="o" d="M566.65,297.99s.18,.12,.53,.28c.41,.19,.93,.42,1.57,.71,.69,.29,1.52,.67,2.46,1.16,.94,.49,2.04,.99,3.19,1.68,.58,.33,1.19,.68,1.82,1.04,.63,.36,1.26,.79,1.92,1.21,1.34,.81,2.69,1.82,4.13,2.84,2.81,2.13,5.77,4.66,8.61,7.57,2.82,2.94,5.24,5.98,7.28,8.87,.97,1.47,1.93,2.85,2.7,4.22,.39,.68,.8,1.32,1.14,1.96,.34,.64,.66,1.26,.97,1.86,.65,1.17,1.11,2.29,1.57,3.25,.46,.96,.81,1.8,1.08,2.5,.27,.65,.49,1.17,.66,1.59,.16,.36,.25,.55,.27,.54,.02,0-.04-.21-.16-.58-.15-.43-.34-.97-.56-1.63-.24-.71-.56-1.57-1-2.55-.43-.98-.87-2.11-1.5-3.3-.3-.6-.62-1.23-.95-1.88-.33-.65-.74-1.3-1.12-1.99-.76-1.39-1.71-2.79-2.68-4.28-2.03-2.92-4.46-5.99-7.3-8.96-2.87-2.94-5.86-5.47-8.71-7.6-1.46-1.02-2.82-2.02-4.18-2.82-.67-.41-1.31-.84-1.95-1.19-.64-.35-1.26-.69-1.85-1.01-1.17-.67-2.28-1.15-3.25-1.61-.96-.47-1.81-.82-2.51-1.08-.65-.25-1.19-.46-1.61-.62-.37-.14-.57-.2-.58-.18Z"/><path class="o" d="M590.52,313.98s-.22-.93-1.31-1.95c-1.07-1.02-3.02-1.96-5.29-2.03-2.26-.06-4.22,.57-5.56,1.09-1.35,.53-2.13,.96-2.1,1.02,.03,.08,.87-.23,2.23-.65,1.36-.42,3.27-.96,5.42-.9,2.14,.07,3.98,.89,5.05,1.77,1.09,.88,1.48,1.71,1.57,1.66Z"/><path class="o" d="M594.08,317.66c.15-.08-1.19-2.06-1.5-4.88-.35-2.82,.5-5.05,.34-5.1-.06-.03-.36,.49-.62,1.42-.26,.92-.43,2.27-.26,3.74,.17,1.47,.65,2.74,1.12,3.58,.47,.84,.88,1.28,.93,1.24Z"/></g><path class="q" d="M632.94,367.18c-.82,14.59-5.22,29.43-11.98,44.44h-29.41c-6.45-14.86-10.54-29.67-11.27-44.44h52.67Z"/><path class="e" d="M585.04,390.79c0,.15,9.68,.28,21.63,.28s21.63-.12,21.63-.28-9.68-.28-21.63-.28-21.63,.12-21.63,.28Z"/><path class="e" d="M585.7,396.08c0,.15,9.08,.28,20.27,.28s20.28-.12,20.28-.28-9.08-.28-20.28-.28-20.27,.12-20.27,.28Z"/><path class="e" d="M620.48,376.76c-.15,0-.28,3.03-.28,6.77s.12,6.77,.28,6.77,.28-3.03,.28-6.77-.12-6.77-.28-6.77Z"/><path class="e" d="M604.73,376.76c-.15,0-.28,3.14-.28,7.02s.12,7.02,.28,7.02,.28-3.14,.28-7.02-.12-7.02-.28-7.02Z"/><path class="e" d="M589.93,376.64c-.15,0-.28,3.2-.28,7.16s.12,7.16,.28,7.16,.28-3.2,.28-7.16-.12-7.16-.28-7.16Z"/><path class="e" d="M581.21,376.76c0,.15,11.36,.28,25.37,.28s25.37-.12,25.37-.28-11.36-.28-25.37-.28-25.37,.12-25.37,.28Z"/></g><g><g><path class="o" d="M74.05,379.01l-4.75,24.31-9.3,18.15c-.67,1.31-.09,2.91,1.26,3.49h0c.76,.32,1.62,.27,2.32-.16,4.47-2.73,20.86-12.86,21.11-14.66,.29-2.08,6.71-25.31,6.71-25.31l-17.34-5.81Z"/><path class="q" d="M61.25,424.96l23.78-16.46-.22,1.03c-.19,.89-.69,1.68-1.42,2.23-1.93,1.47-7.36,5.41-19.75,13.06-.72,.45-1.62,.5-2.39,.15h0Z"/><path class="p" d="M81.76,401.35c-.7,.29-1.1,1.16-.84,1.87s1.14,1.12,1.85,.85c.7-.27,1.21-1.31,.88-1.98-.33-.68-1.4-1.11-2.02-.67"/><path class="q" d="M69.1,415.6c-.15,.04-.42-1.35-1.71-2.35-1.26-1.04-2.67-.99-2.67-1.14,0-.06,.34-.18,.92-.14,.58,.04,1.38,.3,2.08,.86,.7,.56,1.13,1.29,1.3,1.84,.17,.56,.13,.92,.07,.93Z"/><path class="q" d="M66.67,418.46c-.14,.08-.74-.88-1.92-1.51-1.16-.66-2.29-.66-2.3-.82-.04-.14,1.23-.4,2.56,.35,1.33,.73,1.79,1.95,1.65,1.99Z"/><path class="q" d="M73.22,412.15c-.14,.09-1.06-1.39-2.8-2.53-1.72-1.17-3.44-1.46-3.41-1.62-.01-.14,1.86-.08,3.71,1.17,1.86,1.23,2.63,2.94,2.5,2.98Z"/><path class="q" d="M75.28,404.88c-.1,.13-1.31-.72-3.04-1.16-1.72-.47-3.2-.33-3.22-.49-.04-.13,1.51-.53,3.35-.04,1.85,.48,3,1.6,2.9,1.69Z"/><path class="q" d="M76.86,397.77c-.11,.12-1.27-.98-3.13-1.3-1.85-.36-3.33,.26-3.39,.1-.03-.06,.3-.31,.93-.51,.62-.2,1.55-.31,2.55-.13,1,.18,1.83,.62,2.34,1.03,.52,.41,.74,.76,.69,.8Z"/><path class="q" d="M74.07,395.14s-.01-.34,.17-.92c.18-.57,.54-1.4,1.25-2.24,.36-.39,.76-.91,1.5-1.08,.37-.09,.86,.08,1.07,.47,.22,.37,.22,.79,.14,1.18-.36,1.53-2.01,2.73-3.78,2.57-1.78-.19-3.13-1.52-3.53-3-.08-.38-.09-.82,.19-1.19,.27-.37,.8-.43,1.14-.29,.7,.27,1.06,.78,1.41,1.18,.69,.85,1.05,1.67,1.24,2.24,.19,.57,.22,.91,.19,.92-.1,.04-.35-1.32-1.72-2.91-.35-.37-.75-.84-1.26-1-.25-.08-.49-.03-.62,.16-.14,.18-.15,.49-.08,.79,.34,1.21,1.58,2.43,3.09,2.57,1.5,.15,2.94-.91,3.24-2.13,.07-.3,.06-.61-.07-.83-.12-.21-.35-.31-.59-.27-.51,.09-.94,.53-1.29,.89-1.41,1.55-1.61,2.95-1.71,2.9Z"/></g><g><path class="o" d="M155.08,380.9l4.05,24.44,8.78,18.41c.63,1.33,0,2.91-1.36,3.45h0c-.77,.3-1.62,.22-2.31-.23-4.39-2.86-20.48-13.46-20.68-15.26-.23-2.09-5.98-25.5-5.98-25.5l17.5-5.31Z"/><path class="q" d="M166.55,427.2l-23.3-17.13,.2,1.03c.17,.89,.64,1.7,1.35,2.27,1.89,1.52,7.2,5.62,19.37,13.62,.71,.47,1.61,.55,2.39,.21h0Z"/><path class="p" d="M146.73,403.01c.69,.31,1.06,1.19,.79,1.89-.28,.7-1.17,1.09-1.87,.8-.69-.29-1.18-1.34-.82-2.01,.35-.67,1.43-1.06,2.04-.61"/><path class="q" d="M158.97,417.61c.15,.04,.46-1.34,1.78-2.3,1.29-1,2.7-.91,2.7-1.07,0-.06-.33-.19-.92-.17-.58,.02-1.39,.26-2.11,.8-.72,.54-1.17,1.25-1.35,1.8-.19,.55-.16,.92-.1,.93Z"/><path class="q" d="M161.32,420.55c.14,.08,.77-.86,1.96-1.45,1.18-.63,2.31-.6,2.32-.76,.05-.14-1.22-.43-2.57,.27-1.35,.69-1.85,1.9-1.71,1.94Z"/><path class="q" d="M154.95,414.05c.14,.09,1.1-1.36,2.87-2.45,1.75-1.12,3.48-1.36,3.45-1.53,.01-.14-1.86-.13-3.74,1.06-1.89,1.18-2.71,2.86-2.58,2.91Z"/><path class="q" d="M153.1,406.72c.09,.13,1.33-.68,3.07-1.08,1.73-.42,3.2-.24,3.23-.4,.04-.13-1.49-.58-3.35-.13-1.87,.43-3.04,1.51-2.94,1.61Z"/><path class="q" d="M151.73,399.58c.1,.13,1.3-.94,3.16-1.21,1.86-.31,3.32,.35,3.38,.2,.03-.06-.29-.31-.92-.53-.62-.22-1.55-.36-2.55-.21-1,.16-1.84,.57-2.37,.96-.53,.4-.76,.74-.71,.78Z"/><path class="q" d="M154.59,397.02s.02-.34-.14-.93c-.17-.58-.5-1.41-1.19-2.27-.35-.4-.73-.93-1.47-1.12-.37-.1-.86,.06-1.09,.44-.23,.37-.24,.78-.18,1.17,.32,1.54,1.93,2.78,3.71,2.68,1.78-.14,3.17-1.43,3.61-2.9,.09-.37,.11-.82-.16-1.19-.26-.38-.79-.45-1.13-.33-.7,.24-1.08,.75-1.45,1.14-.71,.83-1.1,1.64-1.3,2.21-.21,.57-.25,.9-.21,.91,.1,.05,.39-1.31,1.8-2.86,.36-.36,.77-.81,1.28-.96,.25-.07,.49-.01,.62,.17,.13,.18,.14,.49,.06,.79-.38,1.2-1.65,2.38-3.16,2.48-1.5,.11-2.91-.99-3.18-2.23-.06-.3-.04-.62,.09-.82,.12-.2,.36-.3,.6-.25,.51,.1,.92,.55,1.26,.93,1.36,1.59,1.52,3,1.62,2.95Z"/></g><path class="q" d="M76.37,219.83c-2.26-3.44-11.63,183.38-11,184.45l24.68,.35,13.43-99.82,7.31-76.33,11.78,71.72,14.45,105.1,26.97,.39-16.67-190.52-34.93-20.01-36.02,24.67Z"/><g><path class="o" d="M99.93,94.33s-7.57,1.31-10.45,3.84c-2.88,2.52-5.81,8.32-5.81,8.32l-14.38,9.76,12.66,50.44-10.61,69.71,2.12,6.01,79.31-1.33,1.51-5.47-8.2-63.45,3.6-42.52,3.31-17.07-14.36-6.44s6.58-2.04,6.88-3.18c.3-1.13-14.82-8.9-14.82-8.9,0,0-23.86-4.05-30.76,.27Z"/><g class="n"><path d="M75.87,203.65c8.95,11.6,21.17,20.14,33.2,28.5,2.54,1.76,5.17,3.57,8.2,4.17,4.34,.85,9.11-1.15,11.54-4.84,1.74-2.65,2.33-5.99,4.4-8.4,1.4-1.63,3.35-2.68,4.85-4.22,1.3-1.33,2.21-2.97,3.11-4.59,1.64-2.96,3.28-5.92,4.92-8.88-5.98-.03-11.5,2.92-16.89,5.5-5.39,2.58-11.39,4.91-17.22,3.57-8.07-1.85-13.21-10.05-20.96-12.95-4.87-1.82-10.57-1.28-15.02,1.43"/></g><path class="o" d="M69.29,116.24s-2.96,3.77-3.61,11.69-5.76,49.48-4.04,55.45c1.72,5.97,23.93,30.9,31.32,30.29l2.76-1,2.64,2.05,11.82-8.86-26.06-32.79,1.4-47.2s-8-11.5-16.24-9.64Z"/><path class="q" d="M89.49,98.16s-.24,.16-.65,.54c-.41,.38-.97,.99-1.59,1.87-.63,.88-1.28,2.04-2.07,3.41-.84,1.34-1.81,2.87-2.89,4.58l-.17-.21c1.44-.56,3.19-.57,4.87-.02,1.69,.54,3.32,1.51,4.9,2.69,3.16,2.39,6.05,5.73,8.84,9.51,5.57,7.6,11.01,17,16.25,27.42l.03,.06v.07c-.12,4.12-.24,8.44-.37,12.83-.64,22.31-1.21,42.5-1.63,57.15-.23,7.29-.41,13.2-.54,17.32-.07,2.02-.13,3.6-.17,4.71-.02,.52-.04,.92-.06,1.22-.02,.28-.03,.42-.04,.42,0,0-.01-.14-.02-.42,0-.3,0-.71,0-1.23,.02-1.1,.04-2.69,.08-4.71,.09-4.12,.22-10.03,.37-17.32,.35-14.63,.8-34.83,1.48-57.15,.13-4.4,.25-8.71,.38-12.84l.03,.12c-5.22-10.39-10.62-19.79-16.14-27.39-2.77-3.78-5.61-7.1-8.71-9.48-1.55-1.17-3.15-2.13-4.78-2.67-1.63-.55-3.3-.55-4.68-.03l-.4,.15,.23-.36c1.1-1.7,2.08-3.22,2.94-4.54,.8-1.34,1.48-2.51,2.13-3.38,.64-.88,1.23-1.48,1.66-1.85,.43-.36,.7-.49,.7-.49Z"/><path class="q" d="M142.79,104.19c.02,.08-1.52,.54-3.92,1.5-2.39,.96-5.66,2.48-8.78,4.88-3.13,2.39-5.56,5.04-7.31,6.94-.82,.89-1.51,1.65-2.08,2.27-.5,.53-.78,.81-.81,.79-.03-.02,.21-.35,.65-.92,.45-.57,1.11-1.39,1.95-2.38,1.69-1.96,4.1-4.68,7.27-7.11,3.18-2.44,6.52-3.93,8.96-4.81,1.23-.44,2.24-.74,2.94-.93,.7-.19,1.1-.26,1.11-.23Z"/><path class="q" d="M116.94,148.16s0-.53,.1-1.48c.11-.95,.31-2.32,.63-4,.62-3.36,1.74-7.96,3.2-12.96,1.5-5,3.07-9.46,4.45-12.59,.68-1.57,1.3-2.81,1.76-3.65,.48-.83,.76-1.28,.79-1.26,.03,.02-.19,.5-.61,1.35-.4,.86-.96,2.12-1.6,3.7-1.28,3.16-2.79,7.62-4.29,12.6-1.46,4.99-2.63,9.56-3.34,12.89-.36,1.66-.62,3.02-.79,3.96-.16,.94-.26,1.46-.3,1.45Z"/><path class="q" d="M119.4,120.27c-.13-.06,1.68-4.1,4.05-9.01,2.37-4.91,4.39-8.84,4.52-8.78s-1.68,4.09-4.05,9.01c-2.37,4.91-4.39,8.84-4.52,8.78Z"/><g><path class="d" d="M121.87,138.98l.23-.5c.24,.18,.6,.31,.94,.31,.39,0,.55-.12,.56-.3,0-.54-1.66-.19-1.65-1.26,0-.49,.41-.89,1.22-.87,.36,0,.73,.1,.99,.27l-.21,.5c-.26-.16-.54-.23-.79-.24-.39,0-.55,.14-.55,.32,0,.53,1.66,.19,1.65,1.24,0,.48-.41,.88-1.23,.87-.45,0-.91-.15-1.16-.35Z"/><path class="d" d="M126.93,138.8v.53l-2.23-.03,.04-2.87,2.17,.03v.53l-1.51-.02v.62l1.32,.02v.52l-1.34-.02v.66l1.55,.02Z"/><path class="d" d="M127.28,137.91c.01-.86,.68-1.47,1.58-1.46,.5,0,.91,.19,1.17,.52l-.43,.39c-.19-.22-.43-.34-.72-.35-.54,0-.92,.36-.93,.9,0,.54,.37,.92,.9,.93,.29,0,.53-.11,.73-.33l.42,.4c-.27,.33-.69,.5-1.19,.49-.89-.01-1.54-.64-1.53-1.5Z"/><path class="d" d="M132.58,138.56c-.04-.14-.08-.28-.12-.42-.04-.09-.07-.19-.1-.28v.27c-.01,.54-.25,.77-.65,.76-.4,0-.64-.23-.63-.78l.02-1.58h-.66l-.02,1.59c-.01,.84,.46,1.32,1.28,1.33,.48,0,.84-.15,1.06-.45-.07-.14-.13-.29-.18-.44Z"/></g><g><path class="d" d="M132.73,137.25v.98s0,.07,.01,.1c.03,.08,.06,.15,.08,.23,.03,.12,.06,.24,.08,.36,.08,.34,.09,.65,.06,.94,.25-.22,.39-.55,.39-.99l.02-1.6h-.65Z"/><path class="d" d="M135.82,140.16l-.54-.81h-.61v.79h-.67l.04-2.87,1.24,.02c.77,.01,1.24,.41,1.23,1.06,0,.43-.23,.74-.6,.9l.63,.93h-.71Zm-.59-2.34h-.54v.99h.53c.41,.01,.61-.17,.62-.48,0-.32-.2-.5-.6-.51Z"/><path class="d" d="M137.05,137.31h.66l-.04,2.87h-.66l.04-2.87Z"/><path class="d" d="M138.98,137.88h-.92v-.55l2.5,.04v.54h-.92l-.03,2.31h-.66l.03-2.33Z"/><path class="d" d="M142.22,139.23v1.02h-.68v-1.03l-1.07-1.86h.7l.75,1.29,.78-1.26h.65l-1.14,1.84Z"/></g><path class="q" d="M135.06,146.71s-.17-.25-.4-.75c-.23-.5-.51-1.23-.83-2.15-.64-1.84-1.33-4.46-1.71-7.42-.37-2.96-.36-5.67-.2-7.61,.08-.97,.17-1.75,.27-2.29,.09-.54,.16-.83,.19-.83,.08,.01-.03,1.21-.09,3.14-.06,1.93-.02,4.6,.35,7.52,.37,2.92,1,5.52,1.54,7.37,.54,1.85,.95,2.98,.87,3.01Z"/><g class="n"><path d="M118.89,138.75c-.43,3.56-1.57,5.32-1.62,8.9-.01,.77-1.23,12.89-.51,13.17,.84,.33,4.05-8.5,4.75-12.9,.55-3.45,1.52-7.99,2.1-11.43,1.68-10.05,5.41-15.46,10.64-24.21,.99-1.66,4.68-6.16,4.68-6.16-.36-.23-1.82,.47-2.85,.93-2.95,1.33-8.23,5.54-8.23,5.54,0,0-3.17,6.06-4.24,9.11-2.05,5.85-3.64,11.75-4.8,17.63"/></g><g class="n"><path d="M85.87,108.23s-3.22,1.76-3.2,3.18c.02,1.42,1.11,2.63,2.35,3.31s2.65,.98,3.98,1.48c3.13,1.17,5.74,3.41,8.09,5.77,3.86,3.88,7.26,8.23,10.08,12.92,2.35,3.9,4.5,8.25,8.43,10.55-2.66-4.76-5.42-9.36-8.08-14.12-2.66-4.75-5.72-9.26-9.18-13.46-3.46-4.2-9.1-9.29-12.46-9.63"/></g><path class="q" d="M74.39,178.48s-.03-.09-.04-.26c-.02-.17-.02-.43,0-.77,.06-.66,.27-1.67,.96-2.73,.67-1.05,1.87-2.18,3.6-2.61,1.69-.43,3.85-.14,5.54,1.23l-.39,.19c-.15-3.04,.04-6.5,.59-10.06,.51-3.29,1.11-6.39,1.45-9.24,.36-2.85,.54-5.42,.59-7.59,.06-2.17,.06-3.93,.03-5.14,0-.56,0-1.02,0-1.4,0-.32,.01-.49,.03-.49,.02,0,.04,.17,.07,.49,.03,.38,.06,.84,.11,1.4,.09,1.21,.15,2.98,.14,5.16,0,2.18-.15,4.78-.48,7.64-.32,2.87-.91,5.99-1.41,9.26-.55,3.55-.76,6.95-.64,9.97l.02,.53-.41-.34c-1.54-1.28-3.56-1.58-5.14-1.21-1.62,.36-2.78,1.4-3.45,2.38-.69,1-.94,1.95-1.04,2.59-.1,.65-.08,1.01-.12,1.01Z"/><path class="q" d="M76.91,202.84s.12,.09,.32,.28c.23,.22,.52,.5,.88,.85,.78,.73,1.92,1.81,3.46,3.06,1.55,1.24,3.47,2.7,5.82,4.11,1.18,.69,2.46,1.42,3.88,1.95,.7,.26,1.46,.41,2.23,.33,.75-.06,1.55-.37,2.06-.91l.16-.16,.17,.13c.83,.64,1.73,1.33,2.65,2.04h-.29c3.64-2.74,7.63-5.74,11.81-8.88l-.05,.37-.21-.26c-3.56-4.44-6.74-8.82-9.7-12.75-2.94-3.94-5.61-7.48-7.92-10.39-2.31-2.92-4.26-5.2-5.66-6.73-.69-.78-1.26-1.35-1.64-1.74-.38-.39-.57-.61-.56-.62,.01-.01,.23,.17,.63,.55,.41,.37,1,.92,1.72,1.68,1.45,1.49,3.46,3.75,5.8,6.64,2.35,2.89,5.06,6.4,8.02,10.33,2.98,3.92,6.17,8.29,9.72,12.71l.21,.26,.17,.21-.22,.16c-4.19,3.13-8.19,6.12-11.83,8.85l-.15,.11-.15-.11c-.91-.71-1.81-1.41-2.64-2.06l.32-.03c-.67,.69-1.53,.98-2.38,1.05-.85,.07-1.68-.09-2.41-.38-1.47-.56-2.74-1.31-3.93-2.02-2.36-1.45-4.27-2.95-5.8-4.23-1.52-1.29-2.64-2.4-3.39-3.17-.34-.37-.61-.67-.83-.91-.18-.21-.27-.32-.26-.33Z"/><path class="q" d="M86.41,129.32c-.09,.03-.47-1.16-1.44-2.9-.47-.87-1.13-1.86-1.94-2.89-.83-1.01-1.82-2.06-2.98-3.04-1.17-.96-2.38-1.75-3.53-2.38-1.16-.61-2.25-1.08-3.19-1.39-1.89-.63-3.12-.79-3.11-.89,0-.04,.32-.02,.88,.05,.56,.05,1.37,.22,2.34,.49,.98,.27,2.11,.71,3.31,1.32,1.19,.62,2.44,1.42,3.64,2.41,1.19,1,2.19,2.09,3.02,3.14,.81,1.07,1.45,2.1,1.89,3.02,.45,.91,.75,1.67,.91,2.22,.16,.54,.24,.84,.2,.85Z"/><g class="n"><path d="M134.14,144.15c.33,.71,1.51,.27,1.64-.28s-.15-1.11-.41-1.62c-1.86-3.58-2.99-7.55-3.28-11.57-.31,4.89,.2,8.94,2.05,13.48"/></g><g class="n"><path d="M73.96,177.43c-.88-2.79,.45-6.12,3.01-7.53,.65-.36,1.39-.61,2.14-.55,1.62,.12,2.78,1.56,3.73,2.88-1.8-.54-3.81-.28-5.42,.69-1.6,.97-2.77,2.63-3.13,4.47"/></g><path class="q" d="M152.09,116.95c.07,.05-.52,.99-1.36,2.57-.84,1.58-1.88,3.82-2.72,6.41-.84,2.59-1.32,5.02-1.57,6.78-.25,1.77-.33,2.88-.41,2.87-.06,0-.11-1.12,.05-2.92,.16-1.8,.59-4.27,1.44-6.9,.86-2.63,1.97-4.88,2.9-6.43,.93-1.55,1.63-2.42,1.68-2.39Z"/><g class="n"><path d="M145.48,142.34c-.54,.55-.68,5.21-.68,5.21,0,5.62,.36,8.09,.37,13.72,0,2.32,0,4.68-.62,6.92-.33,1.19-.83,2.32-1.32,3.45-.63,1.43-1.26,2.87-2.18,4.13-.77,1.06-1.71,1.97-2.64,2.89-4.44,4.42-8.49,9.23-12.1,14.36l-2.2,3.22,21.82-20.47,1.07-2.71,.05-.32-1.58-30.4Z"/></g><g><path class="o" d="M153,112.57s3.44,1.29,5.23,8.96c2.07,8.85,4.78,23.58,5.2,29.15,.35,4.69,4.96,21.83,1.39,29.38s-20.79,30.85-27.58,31.6l-2.83-.72-2.98,.51-8.36-9.62,.73-2.75s-.94-1.53,.04-2.9,22.3-21.39,22.3-21.39c0,0-.81-.1-.99-1.48-.3-2.38,1.77-2.29,1.77-2.29l-1.38-20.95,7.46-37.5Z"/><path class="q" d="M154.29,177.28c-.09,.13-1.66-1-3.89-1.7-2.22-.73-4.16-.72-4.16-.88-.02-.13,1.99-.37,4.32,.39,2.33,.74,3.83,2.11,3.74,2.2Z"/><path class="q" d="M158.6,174.15c-.1,.14-2.18-1.88-5.52-2.75-3.33-.92-6.14-.21-6.16-.38-.02-.06,.66-.32,1.8-.46,1.14-.15,2.77-.12,4.49,.34,1.71,.46,3.14,1.25,4.05,1.95,.92,.7,1.37,1.26,1.33,1.3Z"/><path class="q" d="M146.24,174.7s-.35,.02-.79-.31c-.21-.17-.44-.44-.56-.8-.12-.36-.12-.78-.01-1.19,.07-.27,.17-.5,.31-.73l-.02,.05c.31-.72,.97-.86,1.33-.89,.39-.02,.61,.09,.6,.14-.01,.06-.22,.07-.54,.17-.3,.09-.78,.32-.91,.74v.02l-.02,.04c-.09,.17-.18,.38-.23,.6-.19,.67,0,1.25,.32,1.59,.3,.34,.58,.5,.54,.57Z"/><path class="q" d="M145.27,141.32s.1,.41,.19,1.16c.09,.75,.19,1.84,.29,3.18,.21,2.69,.42,6.41,.6,10.52,.17,4.05,.33,7.71,.45,10.53,.05,1.26,.09,2.33,.13,3.19,.02,.75,.02,1.17-.02,1.18-.04,0-.1-.41-.19-1.16-.09-.75-.19-1.84-.29-3.18-.21-2.69-.42-6.41-.6-10.52-.17-4.05-.33-7.71-.45-10.52-.05-1.26-.09-2.33-.13-3.19-.02-.75-.02-1.17,.02-1.18Z"/><path class="q" d="M146.59,174.55s-.17,.19-.53,.52c-.39,.35-.92,.83-1.58,1.43-1.41,1.28-3.39,3.08-5.85,5.3-2.47,2.27-5.39,5.02-8.62,8.16-1.61,1.57-3.3,3.24-5.03,4.99-.42,.44-.82,.9-1.07,1.43-.26,.53-.3,1.1-.18,1.71,.1,.61,.33,1.24,.31,1.97-.02,.67-.28,1.53-1.07,1.86l.1-.41c1.38,1.58,2.84,3.24,4.31,4.93,1.44,1.65,2.86,3.27,4.23,4.85l-.24-.08c1.01-.17,2-.34,2.98-.51h.07c1.31,.16,2.39,.76,3.52,.57,1.13-.14,2.14-.72,3.04-1.39,1.78-1.39,3.33-2.97,4.77-4.45,2.86-3.01,5.21-5.87,7.14-8.26,1.93-2.4,3.43-4.35,4.47-5.69,.5-.64,.9-1.15,1.2-1.53,.28-.35,.43-.52,.44-.51,.01,0-.11,.2-.37,.57-.28,.39-.66,.92-1.13,1.58-1,1.37-2.46,3.35-4.35,5.78-1.9,2.43-4.22,5.32-7.08,8.36-1.45,1.51-2.97,3.09-4.81,4.53-.93,.7-2,1.34-3.27,1.5-1.3,.21-2.5-.44-3.63-.56h.07c-.98,.17-1.97,.34-2.98,.51l-.14,.02-.1-.11c-1.38-1.58-2.8-3.2-4.24-4.84-1.48-1.69-2.93-3.35-4.31-4.93l-.24-.28,.34-.13c.49-.19,.73-.81,.75-1.4,.02-.59-.19-1.21-.3-1.86-.13-.65-.09-1.41,.23-2.01,.29-.61,.73-1.1,1.17-1.56,1.75-1.76,3.45-3.42,5.07-4.98,3.25-3.12,6.2-5.84,8.7-8.08,2.5-2.24,4.54-4,5.95-5.19,.69-.57,1.23-1.02,1.64-1.36,.38-.3,.58-.46,.59-.45Z"/></g><path class="q" d="M146.08,162.55c0,.14-13.63,.06-30.44-.18-16.81-.24-30.44-.55-30.44-.7,0-.14,13.63-.06,30.44,.18,16.81,.24,30.44,.55,30.43,.7Z"/><path class="q" d="M130.43,170.8s0,.14-.02,.39c-.04,.25-.07,.62-.18,1.09-.18,.94-.55,2.29-1.2,3.89-1.26,3.18-3.92,7.37-8.23,10.47-4.31,3.1-9.13,4.29-12.54,4.48-1.72,.11-3.12,.03-4.07-.1-.48-.05-.84-.13-1.09-.17-.25-.05-.38-.08-.37-.1,0-.11,2.11,.31,5.5,0,3.36-.28,8.05-1.5,12.27-4.53,4.21-3.03,6.86-7.1,8.19-10.19,1.36-3.12,1.63-5.25,1.74-5.22Z"/><path class="q" d="M101.26,212.59c-.09,.11-.66-.21-1.17-.81-.52-.6-.75-1.21-.63-1.28,.12-.08,.54,.38,1.02,.94,.48,.56,.87,1.04,.78,1.15Z"/><path class="q" d="M105.07,209.61c-.12,.09-.55-.3-.96-.86-.42-.56-.66-1.08-.54-1.17,.12-.09,.55,.3,.96,.86,.42,.56,.66,1.08,.54,1.17Z"/><path class="q" d="M127.19,201.59c.07,.13-.51,.55-1.22,1.03-.72,.48-1.32,.85-1.42,.73-.09-.11,.38-.67,1.13-1.17,.74-.5,1.45-.72,1.51-.6Z"/><path class="q" d="M130.03,204.38c.12,.07-.23,.83-.95,1.54-.72,.71-1.49,1.05-1.56,.93-.08-.13,.52-.63,1.19-1.3,.68-.66,1.19-1.25,1.32-1.17Z"/><path class="q" d="M132.75,207.71c.1,.1-.34,.73-1.08,1.32-.74,.59-1.46,.87-1.53,.75-.07-.13,.5-.6,1.2-1.16,.71-.56,1.29-1.01,1.4-.91Z"/><path class="q" d="M93.95,101.28c.15-.06,1.34,2.95,3.38,6.35,2.02,3.41,4.1,5.89,3.98,5.99-.05,.04-.64-.52-1.48-1.53-.84-1.01-1.92-2.47-2.95-4.2-1.03-1.72-1.8-3.37-2.29-4.59-.49-1.22-.71-2-.64-2.03Z"/><path class="q" d="M154.29,235.61s-.29,.03-.85,.04c-.6,0-1.41,.02-2.42,.03-2.15,.02-5.18,.05-8.91,.08-7.52,.09-17.91,.37-29.38,.72-11.48,.35-21.87,.57-29.4,.57-3.76,0-6.81-.03-8.91-.08-1.01-.03-1.82-.05-2.42-.07-.55-.02-.84-.04-.84-.06,0-.02,.29-.03,.85-.04,.6,0,1.41-.02,2.42-.03,2.15-.02,5.18-.05,8.91-.08,7.52-.09,17.91-.37,29.39-.72,11.47-.35,21.87-.57,29.4-.57,3.76,0,6.81,.03,8.91,.08,1.01,.03,1.82,.05,2.42,.07,.55,.02,.84,.04,.84,.06Z"/></g><path class="o" d="M133.57,102.92c-.12,.1-1.34-1.3-3.26-2.47-1.91-1.2-3.7-1.67-3.66-1.82,.01-.13,1.94,.13,3.94,1.38,2.01,1.23,3.1,2.85,2.99,2.91Z"/><g><path class="l" d="M127.09,213.42c.37,.72,1.29,1,2.1,.97,.81-.03,1.61-.29,2.42-.34,.81-.05,1.73,.2,2.14,.9,.33,.56,.25,1.29-.07,1.85-.32,.56-.85,.98-1.4,1.3-2.67,1.56-6.32,1.21-8.64-.83"/><g><path class="l" d="M108.76,225.84c2.35,2.35,4.95,4.45,7.73,6.27,.62,.4,1.31,.8,2.04,.68,.72-.12,1.3-1.06,.82-1.61,.74,.6,1.89,.62,2.66,.06,.73-.53,1.07-1.55,.81-2.41-.02-.06,.03-.11,.09-.08,.71,.27,1.55,.25,2.2-.15,.69-.43,1.08-1.33,.82-2.1,.74,1,2.52,.61,3.09-.5s.17-2.51-.58-3.5c-.76-.99-1.82-1.7-2.77-2.5-.95-.81-1.85-1.8-2.08-3.02"/><path class="g" d="M119.66,231.59c-.05,.12-1.4-.43-2.64-1.69-1.25-1.25-1.79-2.6-1.67-2.65,.13-.07,.85,1.1,2.04,2.29,1.17,1.19,2.34,1.93,2.27,2.06Z"/><path class="g" d="M123.4,229.27c-.07,.12-1.23-.51-2.37-1.64-1.15-1.13-1.78-2.28-1.67-2.36,.12-.09,.93,.9,2.03,1.99,1.1,1.1,2.09,1.89,2.01,2.01Z"/><path class="g" d="M126.66,226.97c-.07,.12-1.18-.46-2.28-1.52-1.1-1.06-1.7-2.16-1.59-2.23,.12-.09,.89,.84,1.95,1.86,1.05,1.03,1.99,1.77,1.91,1.9Z"/></g><g><path class="l" d="M102.2,203.24s-.3-1.28,2.98-.86c3.28,.41,4.75,.73,8.44,.54s9.67-1.24,9.67-1.24l9.63,8.47s-9.85,8.65-12.79,10.19c-2.95,1.54-8.94,5.39-12.36,5.2-2.6-.14-2.83-1.43-2.83-1.43,0,0-2.53-1.74-2.16-2.59,0,0-3.01-.17-2.44-2.47,0,0-2.14-.4-2.49-1.62-.35-1.22,1.27-2.66,1.89-3.28,1-.99,9.76-7.42,9.8-7.6,0,0-7.49-.74-7.35-3.31Z"/><path class="g" d="M108.41,212.59c.09,.11-1.68,1.62-3.94,3.36-2.26,1.74-4.17,3.07-4.26,2.95-.09-.11,1.68-1.62,3.94-3.36,2.26-1.74,4.17-3.07,4.26-2.95Z"/><path class="g" d="M113.05,213.49c.05,.04-.36,.66-1.15,1.57-.79,.91-1.97,2.08-3.42,3.22-1.45,1.13-2.88,2-3.95,2.54-1.07,.55-1.77,.8-1.8,.74-.07-.14,2.58-1.45,5.43-3.69,2.86-2.22,4.77-4.48,4.89-4.38Z"/><path class="g" d="M117.19,216.46s-.39,.76-1.31,1.76c-.91,1.01-2.33,2.27-4.11,3.35-1.79,1.07-3.57,1.73-4.89,2.06-1.32,.33-2.16,.39-2.17,.33-.05-.17,3.3-.71,6.79-2.83,3.51-2.09,5.56-4.79,5.68-4.67Z"/><path class="g" d="M128.95,213.7s-.23,.29-.72,.75c-.49,.45-1.22,1.09-2.15,1.85-1.86,1.51-4.54,3.47-7.7,5.31-1.58,.93-3.12,1.74-4.55,2.43-1.42,.7-2.77,1.24-3.97,1.48-1.19,.25-2.21,.18-2.87,0-.66-.18-.98-.39-.97-.41,.01-.11,1.44,.66,3.75,.05,1.14-.27,2.44-.83,3.84-1.55,1.41-.71,2.93-1.53,4.5-2.45,3.14-1.83,5.83-3.73,7.74-5.16,1.91-1.43,3.05-2.37,3.1-2.31Z"/></g></g><g><g><g><g><path class="l" d="M111.31,45.58c-9.62-.89-18.1,6.28-18.82,15.91-.6,8.02-1.16,16.69-1.17,21.06-.02,9.39,9.35,10.98,9.35,10.98,0,0-.27,2.78-.58,6.22-.62,6.94,4.61,13.03,11.57,13.45h0c6.82,.41,12.68-4.79,13.08-11.61l2.24-37.78c.55-9.31-6.38-17.38-15.66-18.23h0Z"/><path class="g" d="M100.65,93.39s5.92,.57,12.28-3.3c0,0-3.14,6.78-12.5,5.8l.21-2.5Z"/></g><g><path class="l" d="M126.06,67.02c.16-.07,6.48-1.81,6.18,4.6-.3,6.41-6.67,4.79-6.68,4.61,0-.18,.5-9.21,.5-9.21Z"/><path class="g" d="M127.63,73.89s.11,.08,.29,.18c.18,.09,.49,.17,.83,.06,.69-.22,1.31-1.27,1.39-2.42,.04-.58-.05-1.14-.24-1.61-.17-.48-.46-.82-.8-.9-.34-.09-.59,.1-.67,.28-.09,.18-.06,.31-.09,.31-.02,.02-.13-.11-.07-.38,.03-.13,.11-.27,.27-.39,.16-.12,.39-.17,.63-.13,.49,.06,.92,.53,1.12,1.05,.23,.52,.35,1.15,.3,1.81-.1,1.29-.82,2.47-1.76,2.69-.46,.1-.83-.06-1.01-.22-.19-.17-.22-.31-.2-.32Z"/></g><g><g><g><path class="q" d="M96.13,66.6c-.04,.71,.53,1.32,1.27,1.37,.74,.05,1.36-.48,1.4-1.19,.04-.71-.53-1.32-1.27-1.37-.74-.05-1.37,.48-1.4,1.19Z"/><path class="q" d="M94.86,64.87c.16,.18,1.19-.56,2.63-.54,1.44,0,2.49,.76,2.65,.59,.08-.08-.09-.39-.54-.74-.45-.34-1.22-.68-2.12-.69-.9,0-1.66,.31-2.1,.64-.45,.33-.6,.65-.52,.73Z"/></g><g><path class="q" d="M110.58,67c-.04,.71,.53,1.32,1.27,1.37,.74,.05,1.36-.48,1.4-1.19,.04-.71-.53-1.32-1.27-1.37-.74-.05-1.36,.48-1.4,1.19Z"/><path class="q" d="M109.03,65.34c.16,.18,1.19-.56,2.63-.53,1.44,0,2.49,.76,2.65,.59,.08-.08-.09-.39-.54-.74-.45-.34-1.22-.68-2.12-.69-.9,0-1.66,.31-2.1,.64-.45,.33-.6,.65-.52,.73Z"/></g><path class="q" d="M103.64,75.96c0-.08-.89-.25-2.34-.46-.37-.04-.72-.12-.77-.37-.08-.27,.08-.66,.26-1.09,.36-.89,.73-1.81,1.13-2.79,1.57-3.97,2.71-7.24,2.55-7.3-.16-.06-1.56,3.11-3.13,7.08-.38,.98-.74,1.91-1.08,2.81-.15,.42-.39,.89-.21,1.44,.1,.28,.36,.48,.6,.55,.23,.08,.44,.08,.62,.1,1.46,.1,2.37,.12,2.37,.04Z"/></g><path class="q" d="M107.36,60.12c.17,.38,1.59,.1,3.29,.19,1.7,.06,3.1,.46,3.3,.1,.09-.17-.17-.53-.75-.87-.57-.34-1.46-.64-2.49-.69-1.02-.04-1.94,.18-2.54,.47-.6,.29-.9,.62-.82,.8Z"/><path class="q" d="M94.32,59.55c.25,.33,1.25,0,2.44,0,1.19-.04,2.2,.25,2.44-.09,.1-.16-.05-.5-.49-.81-.43-.32-1.16-.58-1.98-.57-.82,.01-1.54,.3-1.96,.63-.43,.33-.57,.67-.46,.83Z"/></g></g><path class="q" d="M126.8,66.74c.07,.98,.02,2.12-.2,3.08-.22,.96-.78,1.89-1.67,2.32-1.62,.78-3.63-.48-4.33-2.14s-.47-3.54-.28-5.33c.26-2.44,.43-4.93,0-7.34-.44-2.42-1.53-4.79-3.43-6.35-1.9-1.56-4.68-2.15-6.9-1.1-1.37,.65-2.41,1.83-3.69,2.64-1.15,.73-2.55,1.15-3.89,.92-1.34-.23-3.16-1.17-2.94-2.52,.53-3.13-1.64-.5-1.5-1.04,.24-.89,2.04-2.41,2.79-2.96,1.38-1.02,2.85-1.5,4.31-1.76,4.06-.71,8.44-.2,12.25,1.38,3.81,1.58,7.16,4.53,8.72,8.35,1.8,4.42,1.52,7.1,.91,11.85"/></g><path class="q" d="M106.69,80.22c.02,.29-1.18,.59-2.68,.67-1.49,.08-2.72-.09-2.73-.37-.02-.29,1.18-.59,2.68-.67,1.49-.08,2.72,.09,2.73,.37Z"/><g><path class="q" d="M126.78,67.3c-.02,.06-.78-.07-1.96-.43-1.19-.36-2.79-.95-4.54-1.66-1.63-.66-3.12-1.25-4.46-1.8-1.15-.44-1.86-.7-1.84-.78,.02-.06,.78,.07,1.96,.43,1.19,.36,2.79,.95,4.54,1.66,1.63,.66,3.12,1.25,4.46,1.8,1.15,.44,1.86,.7,1.84,.78Z"/><path class="q" d="M100.1,61.76c.85,.1,1.55,.75,1.68,1.6,.25,1.68-.03,3.45-.82,4.95-1.03,1.94-2.89,3.43-5.02,3.99-1.22,.32-2.59,.33-3.66-.34-1.49-.94-1.95-2.9-2.08-4.66-.1-1.29-.06-2.66,.65-3.74,.9-1.38,2.67-1.91,4.32-2s4.94,.2,4.94,.2h0Z"/><path class="q" d="M107.64,61.99c-.86,.08-1.59,.71-1.74,1.57-.31,1.69-.07,3.48,.69,5.03,.98,2,2.82,3.55,4.95,4.18,1.22,.36,2.61,.41,3.71-.24,1.54-.91,2.06-2.87,2.24-4.65,.13-1.3,.14-2.69-.54-3.8-.87-1.42-2.65-2-4.31-2.14s-5,.06-5,.06h0Z"/><path class="q" d="M109.16,62.26c0,.14-2.47,.21-5.5,.15-3.04-.06-5.5-.23-5.49-.37,0-.14,2.47-.21,5.5-.15,3.04,.06,5.49,.23,5.49,.37Z"/></g><g><path class="j" d="M126.42,104.82s-.02-.05-.03-.16c0-.1,0-.26,.02-.46,.05-.41,.25-.99,.62-1.66,.37-.67,.85-1.47,1.13-2.5,.3-1.02,.43-2.24,.43-3.59,0-1.36-.17-2.82-.27-4.45,0-.41,.04-.89,.31-1.29,.24-.39,.74-.75,1.31-.6,.26,.07,.49,.24,.64,.49,.15,.24,.15,.61-.02,.86-.41,.52-1.04,.47-1.51,.29-.95-.45-1.48-1.58-1.19-2.62,.14-.51,.44-.98,.89-1.3,.23-.16,.49-.28,.79-.31,.29-.03,.65,.04,.88,.3,.22,.24,.35,.59,.21,.95-.16,.38-.55,.49-.83,.51-.59,.03-1.16-.24-1.54-.66-.39-.42-.62-1.01-.53-1.62,.09-.6,.47-1.11,.97-1.42,.42-.26,.94-.38,1.45-.26,.26,.07,.49,.2,.68,.39,.19,.19,.32,.52,.23,.83-.08,.31-.36,.52-.61,.6-.25,.08-.5,.09-.74,.06-.48-.07-.9-.28-1.26-.56-.71-.55-1.16-1.55-.82-2.46,.32-.84,1.22-1.49,2.16-1.28,.45,.11,.88,.43,.96,.97,.03,.27-.09,.54-.27,.71-.18,.17-.41,.26-.65,.28-.48,.03-.87-.2-1.17-.43-.31-.24-.57-.55-.74-.9-.37-.7-.21-1.68,.46-2.14,.69-.49,1.74-.09,1.87,.73l.02,.14-.12,.07c-.95,.52-2.08-.02-2.43-.87-.18-.44-.1-.93,.11-1.29,.21-.37,.53-.65,.9-.8,.36-.16,.79-.15,1.13,0,.35,.13,.65,.52,.56,.92-.03,.19-.18,.37-.36,.44-.18,.07-.37,.04-.52-.03-.32-.13-.47-.45-.53-.7-.18-1.04-.09-1.84-.03-2.38,.07-.54,.16-.81,.18-.81,.08,0-.27,1.16,.08,3.12,.07,.23,.19,.44,.41,.53,.22,.09,.47,.01,.51-.22,.1-.51-.73-.83-1.28-.55-.58,.24-1.08,.99-.79,1.64,.25,.65,1.21,1.05,1.87,.66l-.1,.2c-.06-.47-.8-.77-1.21-.43-.46,.32-.6,1.03-.3,1.58,.27,.53,.9,1.09,1.46,1.07,.28-.02,.52-.25,.48-.47-.02-.23-.3-.49-.59-.54-.62-.15-1.34,.33-1.57,.98-.25,.64,.08,1.43,.67,1.88,.29,.23,.65,.39,1.01,.45,.34,.05,.75-.07,.78-.29,.08-.2-.21-.51-.54-.58-.33-.08-.73,0-1.04,.2-.39,.23-.67,.63-.73,1.05-.06,.42,.1,.87,.4,1.19,.3,.32,.72,.52,1.13,.5,.43-.01,.52-.31,.28-.6-.2-.23-.68-.17-1,.08-.34,.24-.59,.61-.7,1.01-.24,.79,.22,1.72,.9,2.04,.33,.15,.8,.11,.94-.11,.17-.22-.04-.57-.35-.65-.28-.09-.63,.11-.82,.41-.2,.29-.25,.67-.25,1.05,.08,1.57,.23,3.08,.21,4.45-.02,1.37-.17,2.63-.51,3.68-.32,1.06-.84,1.87-1.23,2.51-.39,.65-.61,1.19-.69,1.58-.08,.39-.07,.6-.09,.6Z"/><path class="j" d="M130.1,74.13c-.06-.48-.17-.97-.43-1.38s-.68-.75-1.16-.79c-.54-.05-1.09,.3-1.27,.81-.18,.49,.05,1.11,.47,1.42,0,0,.02,.01,.03,.02h0s.08,.06,.11,.08c.17,.11,.4,.12,.57,.22,.34,.21,.45,.67,.44,1.07-.02,.4-.13,.8-.1,1.21,.02,.29,.19,.63,.48,.64,.26,0,.43-.25,.54-.48,.4-.87,.43-1.87,.3-2.82Z"/></g><g><path class="d" d="M100.52,95.04s-2.01,2.95-2.18,4.86c-.11,1.27,.74,6.2,1.32,9.39,.34,1.83,1.05,3.57,2.1,5.11l1.3,1.91c1.88,2.76,3.45,5.71,4.68,8.82,2.54,6.41,6.8,17.21,6.95,17.73,.21,.74,1.89,3.77,1.89,3.77l2.25-26.95,6.8-13.48c.59-1.17,.92-2.46,.97-3.77l.16-4.33c.06-1.58-.51-3.13-1.57-4.3h0l-.34,3.89-11.28,10.24-13.08-8.8,.02-4.09Z"/><path class="q" d="M113,108.02c.06,.09-1.26,.48-2.36,2.22-1.14,1.69-1.99,4.41-2.74,7.46-.08,.3-.15,.6-.22,.88l-.1,.4-.32-.26c-2.28-1.91-4.03-3.88-5.29-5.28-1.25-1.41-2-2.29-1.95-2.34,.05-.05,.89,.75,2.21,2.1,1.33,1.34,3.12,3.26,5.36,5.13l-.42,.14,.22-.88c.75-3.05,1.68-5.83,2.94-7.54,.62-.85,1.28-1.43,1.81-1.7,.52-.28,.85-.34,.85-.32Z"/><path class="q" d="M121.05,115.28c.08,.06-.95,1.73-2.54,4.13l-.41,.63v-.76c-.03-1.09-.33-2.34-.71-3.67-.6-2.31-1.15-4.4-2.01-5.68-.82-1.3-1.67-1.82-1.61-1.9,.02-.03,.24,.08,.6,.34,.36,.26,.84,.7,1.31,1.36,.98,1.3,1.61,3.45,2.2,5.75,.37,1.32,.68,2.62,.66,3.81l-.43-.14c1.66-2.35,2.84-3.92,2.92-3.86Z"/><path class="q" d="M115.89,144.79c-.14,0-.79-8.16-1.44-18.25-.65-10.09-1.06-18.28-.92-18.29s.79,8.16,1.44,18.25c.65,10.09,1.06,18.27,.92,18.28Z"/></g><path class="j" d="M90.69,67.31c-.12,.06-.56-1.04-.12-2.35,.43-1.31,1.43-1.93,1.5-1.81,.1,.12-.64,.83-1,1.98-.39,1.14-.23,2.15-.38,2.18Z"/><path class="j" d="M107.18,67.88c-.11,.09-.77-.76-.76-2.03,0-1.26,.65-2.11,.76-2.03,.13,.07-.25,.92-.24,2.03-.01,1.1,.37,1.95,.24,2.03Z"/></g></g></g></g></g></svg>